<svg version="1.1" viewBox="0.0 0.0 755.9055118110236 151.1811023622047" fill="none" stroke="none" stroke-linecap="square" stroke-miterlimit="10" xmlns:xlink="http://www.w3.org/1999/xlink" xmlns="http://www.w3.org/2000/svg"><clipPath id="p.0"><path d="m0 0l755.9055 0l0 151.1811l-755.9055 0l0 -151.1811z" clip-rule="nonzero"/></clipPath><g clip-path="url(#p.0)"><path fill="#000000" fill-opacity="0.0" d="m0 0l755.9055 0l0 151.1811l-755.9055 0z" fill-rule="evenodd"/><path fill="#efefef" d="m599.0551 9.448819l147.40155 0l0 132.28346l-147.40155 0z" fill-rule="evenodd"/><path stroke="#334455" stroke-width="4.0" stroke-linejoin="round" stroke-linecap="butt" d="m599.0551 9.448819l147.40155 0l0 132.28346l-147.40155 0z" fill-rule="evenodd"/><path fill="#efefef" d="m451.65353 9.448819l147.40158 0l0 132.28346l-147.40158 0z" fill-rule="evenodd"/><path stroke="#334455" stroke-width="4.0" stroke-linejoin="round" stroke-linecap="butt" d="m451.65353 9.448819l147.40158 0l0 132.28346l-147.40158 0z" fill-rule="evenodd"/><path fill="#efefef" d="m9.448819 9.448819l147.40157 0l0 132.28346l-147.40157 0z" fill-rule="evenodd"/><path stroke="#334455" stroke-width="4.0" stroke-linejoin="round" stroke-linecap="butt" d="m9.448819 9.448819l147.40157 0l0 132.28346l-147.40157 0z" fill-rule="evenodd"/><path fill="#efefef" d="m156.85039 9.448819l147.4016 0l0 132.28346l-147.4016 0z" fill-rule="evenodd"/><path stroke="#334455" stroke-width="4.0" stroke-linejoin="round" stroke-linecap="butt" d="m156.85039 9.448819l147.4016 0l0 132.28346l-147.4016 0z" fill-rule="evenodd"/><path fill="#efefef" d="m304.25198 9.448819l147.40155 0l0 132.28346l-147.40155 0z" fill-rule="evenodd"/><path stroke="#334455" stroke-width="4.0" stroke-linejoin="round" stroke-linecap="butt" d="m304.25198 9.448819l147.40155 0l0 132.28346l-147.40155 0z" fill-rule="evenodd"/><path fill="#334455" d="m9.448819 117.32284l48.88189 0l0 24.409447l-48.88189 0z" fill-rule="evenodd"/><path stroke="#334455" stroke-width="4.0" stroke-linejoin="round" stroke-linecap="butt" d="m9.448819 117.32284l48.88189 0l0 24.409447l-48.88189 0z" fill-rule="evenodd"/><path fill="#ffffff" d="m26.56292 134.32756l0 -1.140625l2.578125 -3.671875q0.046875 -0.0625 0.1875 -0.265625q0.15625 -0.21875 0.21875 -0.3125q0.078125 -0.09375 0.1875 -0.265625q0.109375 -0.1875 0.171875 -0.28125q0.0625 -0.109375 0.125 -0.25q0.09375 -0.21875 0.09375 -0.40625l0 -0.71875q0 -0.359375 -0.234375 -0.546875q-0.21875 -0.203125 -0.75 -0.203125q-0.53125 0 -0.765625 0.203125q-0.21875 0.1875 -0.21875 0.546875l0 1.453125l-1.46875 0l0 -1.40625q0 -2.125 2.421875 -2.125q1.203125 0 1.84375 0.5625q0.640625 0.546875 0.640625 1.5625l0 0.671875q0 0.515625 -0.3125 1.09375q-0.296875 0.578125 -0.984375 1.5625l-1.828125 2.609375l3.109375 0l0 1.328125l-5.015625 0zm8.4535675 0l-1.71875 0l0 -2.0l1.71875 0l0 2.0zm5.2153015 -9.1875l0 7.859375l1.46875 0l0 1.328125l-4.40625 0l0 -1.328125l1.46875 0l0 -6.234375l-1.609375 0.9375l-0.6875 -1.125l2.484375 -1.4375l1.28125 0z" fill-rule="nonzero"/><path fill="#ffffff" d="m325.03955 76.97868l0 0c0 -29.405903 23.690155 -53.244095 52.91339 -53.244095l0 0c14.033508 0 27.492249 5.6096287 37.415436 15.594835c9.923157 9.985203 15.497955 23.528046 15.497955 37.64926l0 0c0 29.4059 -23.690125 53.244095 -52.91339 53.244095l0 0c-29.223236 0 -52.91339 -23.838196 -52.91339 -53.244095z" fill-rule="evenodd"/><path stroke="#334455" stroke-width="4.0" stroke-linejoin="round" stroke-linecap="butt" d="m325.03955 76.97868l0 0c0 -29.405903 23.690155 -53.244095 52.91339 -53.244095l0 0c14.033508 0 27.492249 5.6096287 37.415436 15.594835c9.923157 9.985203 15.497955 23.528046 15.497955 37.64926l0 0c0 29.4059 -23.690125 53.244095 -52.91339 53.244095l0 0c-29.223236 0 -52.91339 -23.838196 -52.91339 -53.244095z" fill-rule="evenodd"/><path fill="#334455" d="m451.65353 117.32284l48.881897 0l0 24.409447l-48.881897 0z" fill-rule="evenodd"/><path stroke="#334455" stroke-width="4.0" stroke-linejoin="round" stroke-linecap="butt" d="m451.65353 117.32284l48.881897 0l0 24.409447l-48.881897 0z" fill-rule="evenodd"/><path fill="#ffffff" d="m468.76764 134.32756l0 -1.140625l2.578125 -3.671875q0.046875 -0.0625 0.1875 -0.265625q0.15625 -0.21875 0.21875 -0.3125q0.078125 -0.09375 0.1875 -0.265625q0.109375 -0.1875 0.171875 -0.28125q0.0625 -0.109375 0.125 -0.25q0.09375 -0.21875 0.09375 -0.40625l0 -0.71875q0 -0.359375 -0.234375 -0.546875q-0.21875 -0.203125 -0.75 -0.203125q-0.53125 0 -0.765625 0.203125q-0.21875 0.1875 -0.21875 0.546875l0 1.453125l-1.46875 0l0 -1.40625q0 -2.125 2.421875 -2.125q1.203125 0 1.84375 0.5625q0.640625 0.546875 0.640625 1.5625l0 0.671875q0 0.515625 -0.3125 1.09375q-0.296875 0.578125 -0.984375 1.5625l-1.828125 2.609375l3.109375 0l0 1.328125l-5.015625 0zm8.453583 0l-1.71875 0l0 -2.0l1.71875 0l0 2.0zm6.0121765 -9.1875l0 5.859375l0.671875 0l0 1.328125l-0.671875 0l0 2.0l-1.46875 0l0 -2.0l-3.53125 0l0 -1.140625l3.640625 -6.046875l1.359375 0zm-1.46875 5.859375l0 -3.109375l-1.859375 3.109375l1.859375 0z" fill-rule="nonzero"/><path fill="#334455" d="m304.25198 117.32284l48.881866 0l0 24.409447l-48.881866 0z" fill-rule="evenodd"/><path stroke="#334455" stroke-width="4.0" stroke-linejoin="round" stroke-linecap="butt" d="m304.25198 117.32284l48.881866 0l0 24.409447l-48.881866 0z" fill-rule="evenodd"/><path fill="#ffffff" d="m321.36606 134.32756l0 -1.140625l2.578125 -3.671875q0.046875 -0.0625 0.1875 -0.265625q0.15625 -0.21875 0.21875 -0.3125q0.078125 -0.09375 0.1875 -0.265625q0.109375 -0.1875 0.171875 -0.28125q0.0625 -0.109375 0.125 -0.25q0.09375 -0.21875 0.09375 -0.40625l0 -0.71875q0 -0.359375 -0.234375 -0.546875q-0.21875 -0.203125 -0.75 -0.203125q-0.53125 0 -0.765625 0.203125q-0.21875 0.1875 -0.21875 0.546875l0 1.453125l-1.46875 0l0 -1.40625q0 -2.125 2.421875 -2.125q1.203125 0 1.84375 0.5625q0.640625 0.546875 0.640625 1.5625l0 0.671875q0 0.515625 -0.3125 1.09375q-0.296875 0.578125 -0.984375 1.5625l-1.828125 2.609375l3.109375 0l0 1.328125l-5.015625 0zm8.453583 0l-1.71875 0l0 -2.0l1.71875 0l0 2.0zm6.6684265 -7.265625l0 1.203125q0 1.3125 -0.3125 1.421875q0.453125 0.125 0.453125 1.515625l0 1.1875q0 2.140625 -2.53125 2.140625q-2.515625 0 -2.515625 -2.140625l0 -1.390625l1.46875 0l0 1.453125q0 0.34375 0.25 0.546875q0.25 0.203125 0.796875 0.203125q0.5625 0 0.8125 -0.203125q0.25 -0.203125 0.25 -0.546875l0 -1.25q0 -0.328125 -0.25 -0.59375q-0.25 -0.28125 -0.671875 -0.28125l-1.609375 0l0 -1.203125l1.46875 0q0.4375 0 0.671875 -0.265625q0.25 -0.265625 0.25 -0.59375l0 -1.25q0 -0.359375 -0.234375 -0.546875q-0.21875 -0.203125 -0.75 -0.203125q-0.53125 0 -0.765625 0.203125q-0.21875 0.1875 -0.21875 0.546875l0 1.453125l-1.46875 0l0 -1.40625q0 -2.125 2.421875 -2.125q1.203125 0 1.84375 0.5625q0.640625 0.546875 0.640625 1.5625z" fill-rule="nonzero"/><path fill="#000000" fill-opacity="0.0" d="m555.16534 88.22565l-70.64566 0" fill-rule="evenodd"/><path stroke="#434343" stroke-width="2.0" stroke-linejoin="round" stroke-linecap="butt" stroke-dasharray="2.0,6.0" d="m555.16534 88.22565l-70.64566 0" fill-rule="evenodd"/><path fill="#000000" fill-opacity="0.0" d="m555.16534 72.22565l-70.64566 0" fill-rule="evenodd"/><path stroke="#434343" stroke-width="2.0" stroke-linejoin="round" stroke-linecap="butt" stroke-dasharray="2.0,6.0" d="m555.16534 72.22565l-70.64566 0" fill-rule="evenodd"/><path fill="#000000" fill-opacity="0.0" d="m555.16534 80.22565l-70.64566 0" fill-rule="evenodd"/><path stroke="#434343" stroke-width="2.0" stroke-linejoin="round" stroke-linecap="butt" stroke-dasharray="2.0,6.0" d="m555.16534 80.22565l-70.64566 0" fill-rule="evenodd"/><path fill="#ffffff" d="m535.4173 76.60885l0 0c0 -15.185654 12.310425 -27.49606 27.496094 -27.49606l0 0c7.2924194 0 14.286133 2.8968964 19.442627 8.05341c5.156555 5.156513 8.053406 12.150246 8.053406 19.44265l0 0c0 15.185661 -12.310364 27.496063 -27.496033 27.496063l0 0c-15.185669 0 -27.496094 -12.310402 -27.496094 -27.496063z" fill-rule="evenodd"/><path stroke="#334455" stroke-width="4.0" stroke-linejoin="round" stroke-linecap="butt" d="m535.4173 76.60885l0 0c0 -15.185654 12.310425 -27.49606 27.496094 -27.49606l0 0c7.2924194 0 14.286133 2.8968964 19.442627 8.05341c5.156555 5.156513 8.053406 12.150246 8.053406 19.44265l0 0c0 15.185661 -12.310364 27.496063 -27.496033 27.496063l0 0c-15.185669 0 -27.496094 -12.310402 -27.496094 -27.496063z" fill-rule="evenodd"/><path fill="#ffffff" d="m177.63799 75.59023l0 0c0 -29.405907 23.69014 -53.2441 52.91339 -53.2441l0 0c14.033508 0 27.492233 5.6096306 37.41542 15.594833c9.923187 9.985207 15.497955 23.52805 15.497955 37.649265l0 0c0 29.4059 -23.690125 53.244087 -52.913376 53.244087l0 0c-29.223251 0 -52.91339 -23.838188 -52.91339 -53.244087z" fill-rule="evenodd"/><path stroke="#334455" stroke-width="4.0" stroke-linejoin="round" stroke-linecap="butt" d="m177.63799 75.59023l0 0c0 -29.405907 23.69014 -53.2441 52.91339 -53.2441l0 0c14.033508 0 27.492233 5.6096306 37.41542 15.594833c9.923187 9.985207 15.497955 23.52805 15.497955 37.649265l0 0c0 29.4059 -23.690125 53.244087 -52.913376 53.244087l0 0c-29.223251 0 -52.91339 -23.838188 -52.91339 -53.244087z" fill-rule="evenodd"/><path fill="#ffffff" d="m236.79904 53.526413l0 0c0 -8.349503 6.726303 -15.118111 15.023621 -15.118111l0 0c3.9845123 0 7.8058167 1.5927963 10.623291 4.42799c2.8174744 2.8351974 4.4003296 6.680546 4.4003296 10.690121l0 0c0 8.349499 -6.7263184 15.118111 -15.023621 15.118111l0 0c-8.2973175 0 -15.023621 -6.768612 -15.023621 -15.118111z" fill-rule="evenodd"/><path stroke="#334455" stroke-width="4.0" stroke-linejoin="round" stroke-linecap="butt" d="m236.79904 53.526413l0 0c0 -8.349503 6.726303 -15.118111 15.023621 -15.118111l0 0c3.9845123 0 7.8058167 1.5927963 10.623291 4.42799c2.8174744 2.8351974 4.4003296 6.680546 4.4003296 10.690121l0 0c0 8.349499 -6.7263184 15.118111 -15.023621 15.118111l0 0c-8.2973175 0 -15.023621 -6.768612 -15.023621 -15.118111z" fill-rule="evenodd"/><path fill="#ffffff" d="m239.37854 95.386635l0 0c0 -8.349503 6.726303 -15.118111 15.023621 -15.118111l0 0c3.9845276 0 7.805847 1.5927963 10.623322 4.427994c2.8174744 2.8351974 4.400299 6.6805496 4.400299 10.690117l0 0c0 8.349503 -6.726288 15.118111 -15.023621 15.118111l0 0c-8.2973175 0 -15.023621 -6.768608 -15.023621 -15.118111z" fill-rule="evenodd"/><path stroke="#334455" stroke-width="4.0" stroke-linejoin="round" stroke-linecap="butt" d="m239.37854 95.386635l0 0c0 -8.349503 6.726303 -15.118111 15.023621 -15.118111l0 0c3.9845276 0 7.805847 1.5927963 10.623322 4.427994c2.8174744 2.8351974 4.400299 6.6805496 4.400299 10.690117l0 0c0 8.349503 -6.726288 15.118111 -15.023621 15.118111l0 0c-8.2973175 0 -15.023621 -6.768608 -15.023621 -15.118111z" fill-rule="evenodd"/><path fill="#ffffff" d="m185.08385 76.97896l0 0c0 -14.411587 11.612396 -26.09449 25.937012 -26.09449l0 0c6.8789215 0 13.476105 2.7492332 18.340225 7.6428986c4.8641357 4.893669 7.5967865 11.530899 7.5967865 18.451591l0 0c0 14.411591 -11.612396 26.09449 -25.937012 26.09449l0 0c-14.3246155 0 -25.937012 -11.682899 -25.937012 -26.09449z" fill-rule="evenodd"/><path stroke="#334455" stroke-width="4.0" stroke-linejoin="round" stroke-linecap="butt" d="m185.08385 76.97896l0 0c0 -14.411587 11.612396 -26.09449 25.937012 -26.09449l0 0c6.8789215 0 13.476105 2.7492332 18.340225 7.6428986c4.8641357 4.893669 7.5967865 11.530899 7.5967865 18.451591l0 0c0 14.411591 -11.612396 26.09449 -25.937012 26.09449l0 0c-14.3246155 0 -25.937012 -11.682899 -25.937012 -26.09449z" fill-rule="evenodd"/><path fill="#ffffff" d="m200.93895 77.32617l0 0c0 -8.349503 6.726303 -15.118111 15.023621 -15.118111l0 0c3.9845123 0 7.805832 1.5927963 10.623306 4.427994c2.8174744 2.8351898 4.4003296 6.680542 4.4003296 10.690117l0 0c0 8.349503 -6.7263184 15.118111 -15.023636 15.118111l0 0c-8.2973175 0 -15.023621 -6.768608 -15.023621 -15.118111z" fill-rule="evenodd"/><path stroke="#334455" stroke-width="4.0" stroke-linejoin="round" stroke-linecap="butt" d="m200.93895 77.32617l0 0c0 -8.349503 6.726303 -15.118111 15.023621 -15.118111l0 0c3.9845123 0 7.805832 1.5927963 10.623306 4.427994c2.8174744 2.8351898 4.4003296 6.680542 4.4003296 10.690117l0 0c0 8.349503 -6.7263184 15.118111 -15.023636 15.118111l0 0c-8.2973175 0 -15.023621 -6.768608 -15.023621 -15.118111z" fill-rule="evenodd"/><path fill="#334455" d="m156.85039 117.32284l48.881897 0l0 24.409447l-48.881897 0z" fill-rule="evenodd"/><path stroke="#334455" stroke-width="4.0" stroke-linejoin="round" stroke-linecap="butt" d="m156.85039 117.32284l48.881897 0l0 24.409447l-48.881897 0z" fill-rule="evenodd"/><path fill="#ffffff" d="m173.9645 134.32756l0 -1.140625l2.578125 -3.671875q0.046875 -0.0625 0.1875 -0.265625q0.15625 -0.21875 0.21875 -0.3125q0.078125 -0.09375 0.1875 -0.265625q0.109375 -0.1875 0.171875 -0.28125q0.0625 -0.109375 0.125 -0.25q0.09375 -0.21875 0.09375 -0.40625l0 -0.71875q0 -0.359375 -0.234375 -0.546875q-0.21875 -0.203125 -0.75 -0.203125q-0.53125 0 -0.765625 0.203125q-0.21875 0.1875 -0.21875 0.546875l0 1.453125l-1.46875 0l0 -1.40625q0 -2.125 2.421875 -2.125q1.203125 0 1.84375 0.5625q0.640625 0.546875 0.640625 1.5625l0 0.671875q0 0.515625 -0.3125 1.09375q-0.296875 0.578125 -0.984375 1.5625l-1.828125 2.609375l3.109375 0l0 1.328125l-5.015625 0zm8.4535675 0l-1.71875 0l0 -2.0l1.71875 0l0 2.0zm1.8090515 0l0 -1.140625l2.578125 -3.671875q0.046875 -0.0625 0.1875 -0.265625q0.15625 -0.21875 0.21875 -0.3125q0.078125 -0.09375 0.1875 -0.265625q0.109375 -0.1875 0.171875 -0.28125q0.0625 -0.109375 0.125 -0.25q0.09375 -0.21875 0.09375 -0.40625l0 -0.71875q0 -0.359375 -0.234375 -0.546875q-0.21875 -0.203125 -0.75 -0.203125q-0.53125 0 -0.765625 0.203125q-0.21875 0.1875 -0.21875 0.546875l0 1.453125l-1.46875 0l0 -1.40625q0 -2.125 2.421875 -2.125q1.203125 0 1.84375 0.5625q0.640625 0.546875 0.640625 1.5625l0 0.671875q0 0.515625 -0.3125 1.09375q-0.296875 0.578125 -0.984375 1.5625l-1.828125 2.609375l3.109375 0l0 1.328125l-5.015625 0z" fill-rule="nonzero"/><path fill="#ffffff" d="m619.8427 75.59023l0 0c0 -29.405907 23.690125 -53.2441 52.91339 -53.2441l0 0c14.033508 0 27.492249 5.6096306 37.415405 15.594833c9.923218 9.985207 15.497986 23.52805 15.497986 37.649265l0 0c0 29.4059 -23.690125 53.244087 -52.91339 53.244087l0 0c-29.223267 0 -52.91339 -23.838188 -52.91339 -53.244087z" fill-rule="evenodd"/><path stroke="#334455" stroke-width="4.0" stroke-linejoin="round" stroke-linecap="butt" d="m619.8427 75.59023l0 0c0 -29.405907 23.690125 -53.2441 52.91339 -53.2441l0 0c14.033508 0 27.492249 5.6096306 37.415405 15.594833c9.923218 9.985207 15.497986 23.52805 15.497986 37.649265l0 0c0 29.4059 -23.690125 53.244087 -52.91339 53.244087l0 0c-29.223267 0 -52.91339 -23.838188 -52.91339 -53.244087z" fill-rule="evenodd"/><path fill="#ffffff" d="m491.15762 64.38345l0 0c0 -4.3732033 3.5532227 -7.9183884 7.9363403 -7.9183884l0 0c2.1048584 0 4.1235046 0.83425903 5.611847 2.3192444c1.4883728 1.4849854 2.324524 3.4990578 2.324524 5.599144l0 0c0 4.3731995 -3.5532227 7.9183807 -7.936371 7.9183807l0 0c-4.3831177 0 -7.9363403 -3.5451813 -7.9363403 -7.9183807z" fill-rule="evenodd"/><path stroke="#334455" stroke-width="4.0" stroke-linejoin="round" stroke-linecap="butt" d="m491.15762 64.38345l0 0c0 -4.3732033 3.5532227 -7.9183884 7.9363403 -7.9183884l0 0c2.1048584 0 4.1235046 0.83425903 5.611847 2.3192444c1.4883728 1.4849854 2.324524 3.4990578 2.324524 5.599144l0 0c0 4.3731995 -3.5532227 7.9183807 -7.936371 7.9183807l0 0c-4.3831177 0 -7.9363403 -3.5451813 -7.9363403 -7.9183807z" fill-rule="evenodd"/><path fill="#ffffff" d="m496.0567 73.02797l6.0745544 0l0 0c1.5068359 0 2.9519653 0.59858704 4.017456 1.6640778c1.0654907 1.0654907 1.6640625 2.5106125 1.6640625 4.017441l0 17.347008c0 8.392334E-5 -6.1035156E-5 1.449585E-4 -1.5258789E-4 1.449585E-4l-17.437439 -1.449585E-4l0 0c-9.1552734E-5 0 -1.5258789E-4 -6.1035156E-5 -1.5258789E-4 -1.449585E-4l1.5258789E-4 -17.346863l0 0c0 -3.1378174 2.5437012 -5.6815186 5.6815186 -5.6815186z" fill-rule="evenodd"/><path stroke="#334455" stroke-width="4.0" stroke-linejoin="round" stroke-linecap="butt" d="m496.0567 73.02797l6.0745544 0l0 0c1.5068359 0 2.9519653 0.59858704 4.017456 1.6640778c1.0654907 1.0654907 1.6640625 2.5106125 1.6640625 4.017441l0 17.347008c0 8.392334E-5 -6.1035156E-5 1.449585E-4 -1.5258789E-4 1.449585E-4l-17.437439 -1.449585E-4l0 0c-9.1552734E-5 0 -1.5258789E-4 -6.1035156E-5 -1.5258789E-4 -1.449585E-4l1.5258789E-4 -17.346863l0 0c0 -3.1378174 2.5437012 -5.6815186 5.6815186 -5.6815186z" fill-rule="evenodd"/><path fill="#ffffff" d="m465.3545 64.72991l0 0c0 -4.373207 3.5532227 -7.9183884 7.9363403 -7.9183884l0 0c2.1048584 0 4.123474 0.8342552 5.611847 2.3192406c1.4883423 1.4849854 2.3244934 3.4990578 2.3244934 5.599148l0 0c0 4.3731995 -3.5532227 7.9183807 -7.9363403 7.9183807l0 0c-4.3831177 0 -7.9363403 -3.5451813 -7.9363403 -7.9183807z" fill-rule="evenodd"/><path stroke="#334455" stroke-width="4.0" stroke-linejoin="round" stroke-linecap="butt" d="m465.3545 64.72991l0 0c0 -4.373207 3.5532227 -7.9183884 7.9363403 -7.9183884l0 0c2.1048584 0 4.123474 0.8342552 5.611847 2.3192406c1.4883423 1.4849854 2.3244934 3.4990578 2.3244934 5.599148l0 0c0 4.3731995 -3.5532227 7.9183807 -7.9363403 7.9183807l0 0c-4.3831177 0 -7.9363403 -3.5451813 -7.9363403 -7.9183807z" fill-rule="evenodd"/><path fill="#ffffff" d="m470.25354 73.37443l6.0745544 0l0 0c1.5068359 0 2.9519653 0.59858704 4.017456 1.6640778c1.0654907 1.0654907 1.664093 2.5106049 1.664093 4.017441l0 17.347008c0 7.6293945E-5 -9.1552734E-5 1.449585E-4 -1.5258789E-4 1.449585E-4l-17.43747 -1.449585E-4l0 0c-9.1552734E-5 0 -1.5258789E-4 -6.866455E-5 -1.5258789E-4 -1.449585E-4l1.5258789E-4 -17.346863l0 0c0 -3.1378174 2.5437012 -5.6815186 5.6815186 -5.6815186z" fill-rule="evenodd"/><path stroke="#334455" stroke-width="4.0" stroke-linejoin="round" stroke-linecap="butt" d="m470.25354 73.37443l6.0745544 0l0 0c1.5068359 0 2.9519653 0.59858704 4.017456 1.6640778c1.0654907 1.0654907 1.664093 2.5106049 1.664093 4.017441l0 17.347008c0 7.6293945E-5 -9.1552734E-5 1.449585E-4 -1.5258789E-4 1.449585E-4l-17.43747 -1.449585E-4l0 0c-9.1552734E-5 0 -1.5258789E-4 -6.866455E-5 -1.5258789E-4 -1.449585E-4l1.5258789E-4 -17.346863l0 0c0 -3.1378174 2.5437012 -5.6815186 5.6815186 -5.6815186z" fill-rule="evenodd"/><path fill="#ffffff" d="m479.81906 73.17348l0 0c0 -4.3731995 3.5532227 -7.9183884 7.9363403 -7.9183884l0 0c2.104828 0 4.123474 0.83425903 5.611847 2.3192444c1.4883423 1.4849854 2.3244934 3.4990616 2.3244934 5.599144l0 0c0 4.373207 -3.5532227 7.9183884 -7.9363403 7.9183884l0 0c-4.3831177 0 -7.9363403 -3.5451813 -7.9363403 -7.9183884z" fill-rule="evenodd"/><path stroke="#334455" stroke-width="4.0" stroke-linejoin="round" stroke-linecap="butt" d="m479.81906 73.17348l0 0c0 -4.3731995 3.5532227 -7.9183884 7.9363403 -7.9183884l0 0c2.104828 0 4.123474 0.83425903 5.611847 2.3192444c1.4883423 1.4849854 2.3244934 3.4990616 2.3244934 5.599144l0 0c0 4.373207 -3.5532227 7.9183884 -7.9363403 7.9183884l0 0c-4.3831177 0 -7.9363403 -3.5451813 -7.9363403 -7.9183884z" fill-rule="evenodd"/><path fill="#ffffff" d="m484.7181 81.81799l6.0745544 0l0 0c1.5068359 0 2.9519653 0.59858704 4.017456 1.6640778c1.0654907 1.0654907 1.6640625 2.5106125 1.6640625 4.017441l0 17.347015c0 7.6293945E-5 -6.1035156E-5 1.449585E-4 -1.2207031E-4 1.449585E-4l-17.43747 -1.449585E-4l0 0c-9.1552734E-5 0 -1.5258789E-4 -6.866455E-5 -1.5258789E-4 -1.5258789E-4l1.5258789E-4 -17.346863l0 0c0 -3.1378174 2.5437012 -5.6815186 5.6815186 -5.6815186z" fill-rule="evenodd"/><path stroke="#334455" stroke-width="4.0" stroke-linejoin="round" stroke-linecap="butt" d="m484.7181 81.81799l6.0745544 0l0 0c1.5068359 0 2.9519653 0.59858704 4.017456 1.6640778c1.0654907 1.0654907 1.6640625 2.5106125 1.6640625 4.017441l0 17.347015c0 7.6293945E-5 -6.1035156E-5 1.449585E-4 -1.2207031E-4 1.449585E-4l-17.43747 -1.449585E-4l0 0c-9.1552734E-5 0 -1.5258789E-4 -6.866455E-5 -1.5258789E-4 -1.5258789E-4l1.5258789E-4 -17.346863l0 0c0 -3.1378174 2.5437012 -5.6815186 5.6815186 -5.6815186z" fill-rule="evenodd"/><path fill="#334455" d="m599.0551 117.32284l48.881897 0l0 24.409447l-48.881897 0z" fill-rule="evenodd"/><path stroke="#334455" stroke-width="4.0" stroke-linejoin="round" stroke-linecap="butt" d="m599.0551 117.32284l48.881897 0l0 24.409447l-48.881897 0z" fill-rule="evenodd"/><path fill="#ffffff" d="m616.1692 134.32756l0 -1.140625l2.578125 -3.671875q0.046875 -0.0625 0.1875 -0.265625q0.15625 -0.21875 0.21875 -0.3125q0.078125 -0.09375 0.1875 -0.265625q0.109375 -0.1875 0.171875 -0.28125q0.0625 -0.109375 0.125 -0.25q0.09375 -0.21875 0.09375 -0.40625l0 -0.71875q0 -0.359375 -0.234375 -0.546875q-0.21875 -0.203125 -0.75 -0.203125q-0.53125 0 -0.765625 0.203125q-0.21875 0.1875 -0.21875 0.546875l0 1.453125l-1.46875 0l0 -1.40625q0 -2.125 2.421875 -2.125q1.203125 0 1.84375 0.5625q0.640625 0.546875 0.640625 1.5625l0 0.671875q0 0.515625 -0.3125 1.09375q-0.296875 0.578125 -0.984375 1.5625l-1.828125 2.609375l3.109375 0l0 1.328125l-5.015625 0zm8.453613 0l-1.71875 0l0 -2.0l1.71875 0l0 2.0zm3.355896 -7.859375l0 2.125l1.0625 0q1.140625 0 1.765625 0.609375q0.625 0.59375 0.625 1.59375l0 1.59375q0 2.140625 -2.53125 2.140625q-2.515625 0 -2.515625 -2.140625l0 -1.390625l1.46875 0l0 1.453125q0 0.34375 0.25 0.546875q0.25 0.203125 0.796875 0.203125q0.5625 0 0.8125 -0.203125q0.25 -0.203125 0.25 -0.546875l0 -1.65625q0 -0.3125 -0.25 -0.578125q-0.25 -0.28125 -0.671875 -0.28125l-2.515625 0l0 -4.796875l4.765625 0l0 1.328125l-3.3125 0z" fill-rule="nonzero"/><path fill="#ee8800" d="m642.0064 64.2807l12.204712 -12.205944l12.204712 12.205944l-12.204712 12.205948z" fill-rule="evenodd"/><path stroke="#334455" stroke-width="4.0" stroke-linejoin="round" stroke-linecap="butt" d="m642.0064 64.2807l12.204712 -12.205944l12.204712 12.205944l-12.204712 12.205948z" fill-rule="evenodd"/><path fill="#ee8800" d="m655.26013 64.2807l12.204773 -12.205944l12.204712 12.205944l-12.204712 12.205948z" fill-rule="evenodd"/><path stroke="#334455" stroke-width="4.0" stroke-linejoin="round" stroke-linecap="butt" d="m655.26013 64.2807l12.204773 -12.205944l12.204712 12.205944l-12.204712 12.205948z" fill-rule="evenodd"/><path fill="#ee8800" d="m654.6027 64.28037l6.251953 -6.2519646l6.252014 6.2519646l-6.252014 6.2519684z" fill-rule="evenodd"/><path stroke="#334455" stroke-width="4.0" stroke-linejoin="round" stroke-linecap="butt" d="m654.6027 64.28037l6.251953 -6.2519646l6.252014 6.2519646l-6.252014 6.2519684z" fill-rule="evenodd"/><path fill="#ee8800" d="m671.5864 92.43293l12.204712 -12.20594l12.204773 12.20594l-12.204773 12.205948z" fill-rule="evenodd"/><path stroke="#334455" stroke-width="4.0" stroke-linejoin="round" stroke-linecap="butt" d="m671.5864 92.43293l12.204712 -12.20594l12.204773 12.20594l-12.204773 12.205948z" fill-rule="evenodd"/><path fill="#ee8800" d="m684.8402 92.43293l12.204712 -12.20594l12.204712 12.20594l-12.204712 12.205948z" fill-rule="evenodd"/><path stroke="#334455" stroke-width="4.0" stroke-linejoin="round" stroke-linecap="butt" d="m684.8402 92.43293l12.204712 -12.20594l12.204712 12.20594l-12.204712 12.205948z" fill-rule="evenodd"/><path fill="#ee8800" d="m684.1828 92.43261l6.251953 -6.2519684l6.251953 6.2519684l-6.251953 6.2519684z" fill-rule="evenodd"/><path stroke="#334455" stroke-width="4.0" stroke-linejoin="round" stroke-linecap="butt" d="m684.1828 92.43261l6.251953 -6.2519684l6.251953 6.2519684l-6.251953 6.2519684z" fill-rule="evenodd"/><path fill="#00bbcc" d="m56.060356 84.17082l0 0c0 -7.479759 6.063545 -13.543304 13.543304 -13.543304l0 0c3.5919113 0 7.036705 1.4268799 9.576569 3.9667435c2.539856 2.5398636 3.9667358 5.9846573 3.9667358 9.576561l0 0c0 7.479767 -6.0635376 13.543312 -13.543304 13.543312l0 0c-7.479759 0 -13.543304 -6.063545 -13.543304 -13.543312z" fill-rule="evenodd"/><path stroke="#334455" stroke-width="4.0" stroke-linejoin="round" stroke-linecap="butt" d="m56.060356 84.17082l0 0c0 -7.479759 6.063545 -13.543304 13.543304 -13.543304l0 0c3.5919113 0 7.036705 1.4268799 9.576569 3.9667435c2.539856 2.5398636 3.9667358 5.9846573 3.9667358 9.576561l0 0c0 7.479767 -6.0635376 13.543312 -13.543304 13.543312l0 0c-7.479759 0 -13.543304 -6.063545 -13.543304 -13.543312z" fill-rule="evenodd"/><path fill="#00bbcc" d="m83.1524 84.17028l0 0c0 -7.479767 6.063545 -13.543312 13.543312 -13.543312l0 0c3.5919037 0 7.0366974 1.4268799 9.576561 3.9667435c2.5398636 2.5398636 3.9667435 5.9846573 3.9667435 9.576569l0 0c0 7.479759 -6.063545 13.543304 -13.543304 13.543304l0 0c-7.479767 0 -13.543312 -6.063545 -13.543312 -13.543304z" fill-rule="evenodd"/><path stroke="#334455" stroke-width="4.0" stroke-linejoin="round" stroke-linecap="butt" d="m83.1524 84.17028l0 0c0 -7.479767 6.063545 -13.543312 13.543312 -13.543312l0 0c3.5919037 0 7.0366974 1.4268799 9.576561 3.9667435c2.5398636 2.5398636 3.9667435 5.9846573 3.9667435 9.576569l0 0c0 7.479759 -6.063545 13.543304 -13.543304 13.543304l0 0c-7.479767 0 -13.543312 -6.063545 -13.543312 -13.543304z" fill-rule="evenodd"/><path fill="#00bbcc" d="m68.74635 60.279507l0 0c0 -7.479763 6.063545 -13.543308 13.543312 -13.543308l0 0c3.5919037 0 7.0366974 1.4268799 9.576561 3.9667435c2.5398636 2.5398636 3.9667435 5.9846573 3.9667435 9.576565l0 0c0 7.479763 -6.063545 13.543308 -13.543304 13.543308l0 0c-7.479767 0 -13.543312 -6.063545 -13.543312 -13.543308z" fill-rule="evenodd"/><path stroke="#334455" stroke-width="4.0" stroke-linejoin="round" stroke-linecap="butt" d="m68.74635 60.279507l0 0c0 -7.479763 6.063545 -13.543308 13.543312 -13.543308l0 0c3.5919037 0 7.0366974 1.4268799 9.576561 3.9667435c2.5398636 2.5398636 3.9667435 5.9846573 3.9667435 9.576565l0 0c0 7.479763 -6.063545 13.543308 -13.543304 13.543308l0 0c-7.479767 0 -13.543312 -6.063545 -13.543312 -13.543308z" fill-rule="evenodd"/><path fill="#334455" d="m386.95874 68.57397l1.1023865 0l0 6.8031464l-1.1023865 0z" fill-rule="evenodd"/><path stroke="#334455" stroke-width="3.0" stroke-linejoin="round" stroke-linecap="butt" d="m386.95874 68.57397l1.1023865 0l0 6.8031464l-1.1023865 0z" fill-rule="evenodd"/><path fill="#334455" d="m386.95874 69.32732l0 0c0 -3.3422089 1.8808899 -6.4241333 4.919281 -8.060432c3.0383606 -1.6362991 6.760956 -1.572113 9.736053 0.16786957c2.9750977 1.7399826 4.7392883 4.884758 4.614044 8.2248l-1.0689087 -0.036872864l0 0c0.11193848 -2.9537659 -1.4561157 -5.7351265 -4.101013 -7.2742157c-2.6448975 -1.5390854 -5.9546204 -1.5961494 -8.656067 -0.14924622c-2.701477 1.446907 -4.3738403 4.172394 -4.3738403 7.1280975z" fill-rule="evenodd"/><path stroke="#334455" stroke-width="3.0" stroke-linejoin="round" stroke-linecap="butt" d="m386.95874 69.32732l0 0c0 -3.3422089 1.8808899 -6.4241333 4.919281 -8.060432c3.0383606 -1.6362991 6.760956 -1.572113 9.736053 0.16786957c2.9750977 1.7399826 4.7392883 4.884758 4.614044 8.2248l-1.0689087 -0.036872864l0 0c0.11193848 -2.9537659 -1.4561157 -5.7351265 -4.101013 -7.2742157c-2.6448975 -1.5390854 -5.9546204 -1.5961494 -8.656067 -0.14924622c-2.701477 1.446907 -4.3738403 4.172394 -4.3738403 7.1280975z" fill-rule="evenodd"/><path fill="#334455" d="m387.97333 69.39605l0 0c0 -4.4978943 3.8516235 -8.147068 8.610016 -8.157455c4.758362 -0.010387421 8.627777 3.621933 8.64975 8.1197815l0 0l0 0c-0.021972656 -4.4978485 -3.891388 -8.130169 -8.64975 -8.1197815c-4.7583923 0.010387421 -8.610016 3.6595612 -8.610016 8.157455z" fill-rule="evenodd"/><path stroke="#334455" stroke-width="3.0" stroke-linejoin="round" stroke-linecap="butt" d="m387.97333 69.39605l0 0c0 -4.4978943 3.8516235 -8.147068 8.610016 -8.157455c4.758362 -0.010387421 8.627777 3.621933 8.64975 8.1197815l0 0l0 0c-0.021972656 -4.4978485 -3.891388 -8.130169 -8.64975 -8.1197815c-4.7583923 0.010387421 -8.610016 3.6595612 -8.610016 8.157455z" fill-rule="evenodd"/><path fill="#334455" d="m405.15125 69.56719l1.102356 0l0 5.6692886l-1.102356 0z" fill-rule="evenodd"/><path stroke="#334455" stroke-width="3.0" stroke-linejoin="round" stroke-linecap="butt" d="m405.15125 69.56719l1.102356 0l0 5.6692886l-1.102356 0z" fill-rule="evenodd"/><path fill="#ee3333" d="m383.63516 72.96113l25.88977 0l0 20.913383l-25.88977 0z" fill-rule="evenodd"/><path stroke="#334455" stroke-width="3.0" stroke-linejoin="round" stroke-linecap="butt" d="m383.63516 72.96113l25.88977 0l0 20.913383l-25.88977 0z" fill-rule="evenodd"/><path fill="#334455" d="m394.76636 83.16505l3.6623535 0l0 5.702362l-3.6623535 0z" fill-rule="evenodd"/><path stroke="#334455" stroke-width="3.0" stroke-linejoin="round" stroke-linecap="butt" d="m394.76636 83.16505l3.6623535 0l0 5.702362l-3.6623535 0z" fill-rule="evenodd"/><path fill="#334455" d="m393.4541 81.078964l0 0c0 -1.7006378 1.4074097 -3.079277 3.1435242 -3.079277l0 0c0.8337097 0 1.6333008 0.32442474 2.2228088 0.90190125c0.5895386 0.5774765 0.92071533 1.3607025 0.92071533 2.1773758l0 0c0 1.7006378 -1.4073792 3.079277 -3.1435242 3.079277l0 0c-1.7361145 0 -3.1435242 -1.3786392 -3.1435242 -3.079277z" fill-rule="evenodd"/><path stroke="#334455" stroke-width="3.0" stroke-linejoin="round" stroke-linecap="butt" d="m393.4541 81.078964l0 0c0 -1.7006378 1.4074097 -3.079277 3.1435242 -3.079277l0 0c0.8337097 0 1.6333008 0.32442474 2.2228088 0.90190125c0.5895386 0.5774765 0.92071533 1.3607025 0.92071533 2.1773758l0 0c0 1.7006378 -1.4073792 3.079277 -3.1435242 3.079277l0 0c-1.7361145 0 -3.1435242 -1.3786392 -3.1435242 -3.079277z" fill-rule="evenodd"/><path fill="#334455" d="m349.70416 68.57397l1.102356 0l0 6.8031464l-1.102356 0z" fill-rule="evenodd"/><path stroke="#334455" stroke-width="3.0" stroke-linejoin="round" stroke-linecap="butt" d="m349.70416 68.57397l1.102356 0l0 6.8031464l-1.102356 0z" fill-rule="evenodd"/><path fill="#334455" d="m349.70416 69.32732l0 0c0 -3.3422089 1.8808899 -6.4241333 4.9192505 -8.060432c3.0383606 -1.6362991 6.7609863 -1.572113 9.736053 0.16786957c2.9750977 1.7399826 4.7392883 4.884758 4.614044 8.2248l-1.0689087 -0.036872864l0 0c0.11193848 -2.9537659 -1.4561157 -5.7351265 -4.1009827 -7.2742157c-2.6448975 -1.5390854 -5.954651 -1.5961494 -8.656097 -0.14924622c-2.7014465 1.446907 -4.37381 4.172394 -4.37381 7.1280975z" fill-rule="evenodd"/><path stroke="#334455" stroke-width="3.0" stroke-linejoin="round" stroke-linecap="butt" d="m349.70416 69.32732l0 0c0 -3.3422089 1.8808899 -6.4241333 4.9192505 -8.060432c3.0383606 -1.6362991 6.7609863 -1.572113 9.736053 0.16786957c2.9750977 1.7399826 4.7392883 4.884758 4.614044 8.2248l-1.0689087 -0.036872864l0 0c0.11193848 -2.9537659 -1.4561157 -5.7351265 -4.1009827 -7.2742157c-2.6448975 -1.5390854 -5.954651 -1.5961494 -8.656097 -0.14924622c-2.7014465 1.446907 -4.37381 4.172394 -4.37381 7.1280975z" fill-rule="evenodd"/><path fill="#334455" d="m350.71875 69.39605l0 0c0 -4.4978943 3.851593 -8.147068 8.609985 -8.157455c4.7583923 -0.010387421 8.627777 3.621933 8.64975 8.1197815l0 0l0 0c-0.021972656 -4.4978485 -3.8913574 -8.130169 -8.64975 -8.1197815c-4.7583923 0.010387421 -8.609985 3.6595612 -8.609985 8.157455z" fill-rule="evenodd"/><path stroke="#334455" stroke-width="3.0" stroke-linejoin="round" stroke-linecap="butt" d="m350.71875 69.39605l0 0c0 -4.4978943 3.851593 -8.147068 8.609985 -8.157455c4.7583923 -0.010387421 8.627777 3.621933 8.64975 8.1197815l0 0l0 0c-0.021972656 -4.4978485 -3.8913574 -8.130169 -8.64975 -8.1197815c-4.7583923 0.010387421 -8.609985 3.6595612 -8.609985 8.157455z" fill-rule="evenodd"/><path fill="#334455" d="m367.89667 69.56719l1.102356 0l0 5.6692886l-1.102356 0z" fill-rule="evenodd"/><path stroke="#334455" stroke-width="3.0" stroke-linejoin="round" stroke-linecap="butt" d="m367.89667 69.56719l1.102356 0l0 5.6692886l-1.102356 0z" fill-rule="evenodd"/><path fill="#ee3333" d="m346.38058 72.96113l25.88977 0l0 20.913383l-25.88977 0z" fill-rule="evenodd"/><path stroke="#334455" stroke-width="3.0" stroke-linejoin="round" stroke-linecap="butt" d="m346.38058 72.96113l25.88977 0l0 20.913383l-25.88977 0z" fill-rule="evenodd"/><path fill="#334455" d="m357.51178 83.16505l3.6623535 0l0 5.702362l-3.6623535 0z" fill-rule="evenodd"/><path stroke="#334455" stroke-width="3.0" stroke-linejoin="round" stroke-linecap="butt" d="m357.51178 83.16505l3.6623535 0l0 5.702362l-3.6623535 0z" fill-rule="evenodd"/><path fill="#334455" d="m356.19952 81.078964l0 0c0 -1.7006378 1.4074097 -3.079277 3.1435242 -3.079277l0 0c0.8337097 0 1.6332703 0.32442474 2.2228088 0.90190125c0.58950806 0.5774765 0.92071533 1.3607025 0.92071533 2.1773758l0 0c0 1.7006378 -1.4074097 3.079277 -3.1435242 3.079277l0 0c-1.7361145 0 -3.1435242 -1.3786392 -3.1435242 -3.079277z" fill-rule="evenodd"/><path stroke="#334455" stroke-width="3.0" stroke-linejoin="round" stroke-linecap="butt" d="m356.19952 81.078964l0 0c0 -1.7006378 1.4074097 -3.079277 3.1435242 -3.079277l0 0c0.8337097 0 1.6332703 0.32442474 2.2228088 0.90190125c0.58950806 0.5774765 0.92071533 1.3607025 0.92071533 2.1773758l0 0c0 1.7006378 -1.4074097 3.079277 -3.1435242 3.079277l0 0c-1.7361145 0 -3.1435242 -1.3786392 -3.1435242 -3.079277z" fill-rule="evenodd"/></g></svg>