<svg version="1.1" viewBox="0.0 0.0 755.9055118110236 151.1811023622047" fill="none" stroke="none" stroke-linecap="square" stroke-miterlimit="10" xmlns:xlink="http://www.w3.org/1999/xlink" xmlns="http://www.w3.org/2000/svg"><clipPath id="p.0"><path d="m0 0l755.9055 0l0 151.1811l-755.9055 0l0 -151.1811z" clip-rule="nonzero"/></clipPath><g clip-path="url(#p.0)"><path fill="#000000" fill-opacity="0.0" d="m0 0l755.9055 0l0 151.1811l-755.9055 0z" fill-rule="evenodd"/><path fill="#efefef" d="m599.0551 9.448819l147.40155 0l0 132.28346l-147.40155 0z" fill-rule="evenodd"/><path stroke="#334455" stroke-width="4.0" stroke-linejoin="round" stroke-linecap="butt" d="m599.0551 9.448819l147.40155 0l0 132.28346l-147.40155 0z" fill-rule="evenodd"/><path fill="#efefef" d="m451.65353 9.448819l147.40158 0l0 132.28346l-147.40158 0z" fill-rule="evenodd"/><path stroke="#334455" stroke-width="4.0" stroke-linejoin="round" stroke-linecap="butt" d="m451.65353 9.448819l147.40158 0l0 132.28346l-147.40158 0z" fill-rule="evenodd"/><path fill="#efefef" d="m9.448819 9.448819l147.40157 0l0 132.28346l-147.40157 0z" fill-rule="evenodd"/><path stroke="#334455" stroke-width="4.0" stroke-linejoin="round" stroke-linecap="butt" d="m9.448819 9.448819l147.40157 0l0 132.28346l-147.40157 0z" fill-rule="evenodd"/><path fill="#efefef" d="m156.85039 9.448819l147.4016 0l0 132.28346l-147.4016 0z" fill-rule="evenodd"/><path stroke="#334455" stroke-width="4.0" stroke-linejoin="round" stroke-linecap="butt" d="m156.85039 9.448819l147.4016 0l0 132.28346l-147.4016 0z" fill-rule="evenodd"/><path fill="#efefef" d="m304.25198 9.448819l147.40155 0l0 132.28346l-147.40155 0z" fill-rule="evenodd"/><path stroke="#334455" stroke-width="4.0" stroke-linejoin="round" stroke-linecap="butt" d="m304.25198 9.448819l147.40155 0l0 132.28346l-147.40155 0z" fill-rule="evenodd"/><path fill="#334455" d="m9.448819 117.32284l48.88189 0l0 24.409447l-48.88189 0z" fill-rule="evenodd"/><path stroke="#334455" stroke-width="4.0" stroke-linejoin="round" stroke-linecap="butt" d="m9.448819 117.32284l48.88189 0l0 24.409447l-48.88189 0z" fill-rule="evenodd"/><path fill="#ffffff" d="m26.56292 134.32756l0 -1.140625l2.578125 -3.671875q0.046875 -0.0625 0.1875 -0.265625q0.15625 -0.21875 0.21875 -0.3125q0.078125 -0.09375 0.1875 -0.265625q0.109375 -0.1875 0.171875 -0.28125q0.0625 -0.109375 0.125 -0.25q0.09375 -0.21875 0.09375 -0.40625l0 -0.71875q0 -0.359375 -0.234375 -0.546875q-0.21875 -0.203125 -0.75 -0.203125q-0.53125 0 -0.765625 0.203125q-0.21875 0.1875 -0.21875 0.546875l0 1.453125l-1.46875 0l0 -1.40625q0 -2.125 2.421875 -2.125q1.203125 0 1.84375 0.5625q0.640625 0.546875 0.640625 1.5625l0 0.671875q0 0.515625 -0.3125 1.09375q-0.296875 0.578125 -0.984375 1.5625l-1.828125 2.609375l3.109375 0l0 1.328125l-5.015625 0zm8.4535675 0l-1.71875 0l0 -2.0l1.71875 0l0 2.0zm5.2153015 -9.1875l0 7.859375l1.46875 0l0 1.328125l-4.40625 0l0 -1.328125l1.46875 0l0 -6.234375l-1.609375 0.9375l-0.6875 -1.125l2.484375 -1.4375l1.28125 0z" fill-rule="nonzero"/><path fill="#ffffff" d="m325.03955 76.97868l0 0c0 -29.405903 23.690155 -53.244095 52.91339 -53.244095l0 0c14.033508 0 27.492249 5.6096287 37.415436 15.594835c9.923157 9.985203 15.497955 23.528046 15.497955 37.64926l0 0c0 29.4059 -23.690125 53.244095 -52.91339 53.244095l0 0c-29.223236 0 -52.91339 -23.838196 -52.91339 -53.244095z" fill-rule="evenodd"/><path stroke="#334455" stroke-width="4.0" stroke-linejoin="round" stroke-linecap="butt" d="m325.03955 76.97868l0 0c0 -29.405903 23.690155 -53.244095 52.91339 -53.244095l0 0c14.033508 0 27.492249 5.6096287 37.415436 15.594835c9.923157 9.985203 15.497955 23.528046 15.497955 37.64926l0 0c0 29.4059 -23.690125 53.244095 -52.91339 53.244095l0 0c-29.223236 0 -52.91339 -23.838196 -52.91339 -53.244095z" fill-rule="evenodd"/><path fill="#334455" d="m451.65353 117.32284l48.881897 0l0 24.409447l-48.881897 0z" fill-rule="evenodd"/><path stroke="#334455" stroke-width="4.0" stroke-linejoin="round" stroke-linecap="butt" d="m451.65353 117.32284l48.881897 0l0 24.409447l-48.881897 0z" fill-rule="evenodd"/><path fill="#ffffff" d="m468.76764 134.32756l0 -1.140625l2.578125 -3.671875q0.046875 -0.0625 0.1875 -0.265625q0.15625 -0.21875 0.21875 -0.3125q0.078125 -0.09375 0.1875 -0.265625q0.109375 -0.1875 0.171875 -0.28125q0.0625 -0.109375 0.125 -0.25q0.09375 -0.21875 0.09375 -0.40625l0 -0.71875q0 -0.359375 -0.234375 -0.546875q-0.21875 -0.203125 -0.75 -0.203125q-0.53125 0 -0.765625 0.203125q-0.21875 0.1875 -0.21875 0.546875l0 1.453125l-1.46875 0l0 -1.40625q0 -2.125 2.421875 -2.125q1.203125 0 1.84375 0.5625q0.640625 0.546875 0.640625 1.5625l0 0.671875q0 0.515625 -0.3125 1.09375q-0.296875 0.578125 -0.984375 1.5625l-1.828125 2.609375l3.109375 0l0 1.328125l-5.015625 0zm8.453583 0l-1.71875 0l0 -2.0l1.71875 0l0 2.0zm6.0121765 -9.1875l0 5.859375l0.671875 0l0 1.328125l-0.671875 0l0 2.0l-1.46875 0l0 -2.0l-3.53125 0l0 -1.140625l3.640625 -6.046875l1.359375 0zm-1.46875 5.859375l0 -3.109375l-1.859375 3.109375l1.859375 0z" fill-rule="nonzero"/><path fill="#334455" d="m304.25198 117.32284l48.881866 0l0 24.409447l-48.881866 0z" fill-rule="evenodd"/><path stroke="#334455" stroke-width="4.0" stroke-linejoin="round" stroke-linecap="butt" d="m304.25198 117.32284l48.881866 0l0 24.409447l-48.881866 0z" fill-rule="evenodd"/><path fill="#ffffff" d="m321.36606 134.32756l0 -1.140625l2.578125 -3.671875q0.046875 -0.0625 0.1875 -0.265625q0.15625 -0.21875 0.21875 -0.3125q0.078125 -0.09375 0.1875 -0.265625q0.109375 -0.1875 0.171875 -0.28125q0.0625 -0.109375 0.125 -0.25q0.09375 -0.21875 0.09375 -0.40625l0 -0.71875q0 -0.359375 -0.234375 -0.546875q-0.21875 -0.203125 -0.75 -0.203125q-0.53125 0 -0.765625 0.203125q-0.21875 0.1875 -0.21875 0.546875l0 1.453125l-1.46875 0l0 -1.40625q0 -2.125 2.421875 -2.125q1.203125 0 1.84375 0.5625q0.640625 0.546875 0.640625 1.5625l0 0.671875q0 0.515625 -0.3125 1.09375q-0.296875 0.578125 -0.984375 1.5625l-1.828125 2.609375l3.109375 0l0 1.328125l-5.015625 0zm8.453583 0l-1.71875 0l0 -2.0l1.71875 0l0 2.0zm6.6684265 -7.265625l0 1.203125q0 1.3125 -0.3125 1.421875q0.453125 0.125 0.453125 1.515625l0 1.1875q0 2.140625 -2.53125 2.140625q-2.515625 0 -2.515625 -2.140625l0 -1.390625l1.46875 0l0 1.453125q0 0.34375 0.25 0.546875q0.25 0.203125 0.796875 0.203125q0.5625 0 0.8125 -0.203125q0.25 -0.203125 0.25 -0.546875l0 -1.25q0 -0.328125 -0.25 -0.59375q-0.25 -0.28125 -0.671875 -0.28125l-1.609375 0l0 -1.203125l1.46875 0q0.4375 0 0.671875 -0.265625q0.25 -0.265625 0.25 -0.59375l0 -1.25q0 -0.359375 -0.234375 -0.546875q-0.21875 -0.203125 -0.75 -0.203125q-0.53125 0 -0.765625 0.203125q-0.21875 0.1875 -0.21875 0.546875l0 1.453125l-1.46875 0l0 -1.40625q0 -2.125 2.421875 -2.125q1.203125 0 1.84375 0.5625q0.640625 0.546875 0.640625 1.5625z" fill-rule="nonzero"/><path fill="#000000" fill-opacity="0.0" d="m555.16534 88.22565l-70.64566 0" fill-rule="evenodd"/><path stroke="#434343" stroke-width="2.0" stroke-linejoin="round" stroke-linecap="butt" stroke-dasharray="2.0,6.0" d="m555.16534 88.22565l-70.64566 0" fill-rule="evenodd"/><path fill="#000000" fill-opacity="0.0" d="m555.16534 72.22565l-70.64566 0" fill-rule="evenodd"/><path stroke="#434343" stroke-width="2.0" stroke-linejoin="round" stroke-linecap="butt" stroke-dasharray="2.0,6.0" d="m555.16534 72.22565l-70.64566 0" fill-rule="evenodd"/><path fill="#000000" fill-opacity="0.0" d="m555.16534 80.22565l-70.64566 0" fill-rule="evenodd"/><path stroke="#434343" stroke-width="2.0" stroke-linejoin="round" stroke-linecap="butt" stroke-dasharray="2.0,6.0" d="m555.16534 80.22565l-70.64566 0" fill-rule="evenodd"/><path fill="#ffffff" d="m535.4173 76.60885l0 0c0 -15.185654 12.310425 -27.49606 27.496094 -27.49606l0 0c7.2924194 0 14.286133 2.8968964 19.442627 8.05341c5.156555 5.156513 8.053406 12.150246 8.053406 19.44265l0 0c0 15.185661 -12.310364 27.496063 -27.496033 27.496063l0 0c-15.185669 0 -27.496094 -12.310402 -27.496094 -27.496063z" fill-rule="evenodd"/><path stroke="#334455" stroke-width="4.0" stroke-linejoin="round" stroke-linecap="butt" d="m535.4173 76.60885l0 0c0 -15.185654 12.310425 -27.49606 27.496094 -27.49606l0 0c7.2924194 0 14.286133 2.8968964 19.442627 8.05341c5.156555 5.156513 8.053406 12.150246 8.053406 19.44265l0 0c0 15.185661 -12.310364 27.496063 -27.496033 27.496063l0 0c-15.185669 0 -27.496094 -12.310402 -27.496094 -27.496063z" fill-rule="evenodd"/><path fill="#000000" fill-opacity="0.0" d="m51.362206 176.97638l551.74805 0l0 42.078735l-551.74805 0z" fill-rule="evenodd"/><path fill="#000000" d="m61.799706 203.89638l0 -13.359375l5.046875 0q1.328125 0 2.03125 0.125q0.96875 0.171875 1.640625 0.640625q0.671875 0.453125 1.078125 1.28125q0.40625 0.828125 0.40625 1.828125q0 1.703125 -1.09375 2.890625q-1.078125 1.171875 -3.921875 1.171875l-3.421875 0l0 5.421875l-1.765625 0zm1.765625 -7.0l3.453125 0q1.71875 0 2.4375 -0.640625q0.71875 -0.640625 0.71875 -1.796875q0 -0.84375 -0.421875 -1.4375q-0.421875 -0.59375 -1.125 -0.78125q-0.4375 -0.125 -1.640625 -0.125l-3.421875 0l0 4.78125zm16.787323 5.8125q-0.921875 0.765625 -1.765625 1.09375q-0.828125 0.3125 -1.796875 0.3125q-1.59375 0 -2.453125 -0.78125q-0.859375 -0.78125 -0.859375 -1.984375q0 -0.71875 0.328125 -1.296875q0.328125 -0.59375 0.84375 -0.9375q0.53125 -0.359375 1.1875 -0.546875q0.46875 -0.125 1.453125 -0.25q1.984375 -0.234375 2.921875 -0.5625q0.015625 -0.34375 0.015625 -0.421875q0 -1.0 -0.46875 -1.421875q-0.625 -0.546875 -1.875 -0.546875q-1.15625 0 -1.703125 0.40625q-0.546875 0.40625 -0.8125 1.421875l-1.609375 -0.21875q0.21875 -1.015625 0.71875 -1.640625q0.5 -0.640625 1.453125 -0.984375q0.953125 -0.34375 2.1875 -0.34375q1.25 0 2.015625 0.296875q0.78125 0.28125 1.140625 0.734375q0.375 0.4375 0.515625 1.109375q0.078125 0.421875 0.078125 1.515625l0 2.1875q0 2.28125 0.109375 2.890625q0.109375 0.59375 0.40625 1.15625l-1.703125 0q-0.265625 -0.515625 -0.328125 -1.1875zm-0.140625 -3.671875q-0.890625 0.375 -2.671875 0.625q-1.015625 0.140625 -1.4375 0.328125q-0.421875 0.1875 -0.65625 0.53125q-0.21875 0.34375 -0.21875 0.78125q0 0.65625 0.5 1.09375q0.5 0.4375 1.453125 0.4375q0.9375 0 1.671875 -0.40625q0.75 -0.421875 1.09375 -1.140625q0.265625 -0.5625 0.265625 -1.640625l0 -0.609375zm4.203842 8.5625l0 -13.375l1.484375 0l0 1.25q0.53125 -0.734375 1.1875 -1.09375q0.671875 -0.375 1.625 -0.375q1.234375 0 2.171875 0.640625q0.953125 0.625 1.4375 1.796875q0.484375 1.15625 0.484375 2.546875q0 1.484375 -0.53125 2.671875q-0.53125 1.1875 -1.546875 1.828125q-1.015625 0.625 -2.140625 0.625q-0.8125 0 -1.46875 -0.34375q-0.65625 -0.34375 -1.0625 -0.875l0 4.703125l-1.640625 0zm1.484375 -8.484375q0 1.859375 0.75 2.765625q0.765625 0.890625 1.828125 0.890625q1.09375 0 1.875 -0.921875q0.78125 -0.9375 0.78125 -2.875q0 -1.84375 -0.765625 -2.765625q-0.75 -0.921875 -1.8125 -0.921875q-1.046875 0 -1.859375 0.984375q-0.796875 0.96875 -0.796875 2.84375zm15.516342 1.671875l1.6875 0.203125q-0.40625 1.484375 -1.484375 2.3125q-1.078125 0.8125 -2.765625 0.8125q-2.125 0 -3.375 -1.296875q-1.234375 -1.3125 -1.234375 -3.671875q0 -2.453125 1.25 -3.796875q1.265625 -1.34375 3.265625 -1.34375q1.9375 0 3.15625 1.328125q1.234375 1.3125 1.234375 3.703125q0 0.15625 0 0.4375l-7.21875 0q0.09375 1.59375 0.90625 2.453125q0.8125 0.84375 2.015625 0.84375q0.90625 0 1.546875 -0.46875q0.640625 -0.484375 1.015625 -1.515625zm-5.390625 -2.65625l5.40625 0q-0.109375 -1.21875 -0.625 -1.828125q-0.78125 -0.953125 -2.03125 -0.953125q-1.125 0 -1.90625 0.765625q-0.765625 0.75 -0.84375 2.015625zm1.546875 -5.109375l1.21875 -2.546875l2.15625 0l-2.015625 2.546875l-1.359375 0zm7.594467 -0.59375l0 -1.890625l1.640625 0l0 1.890625l-1.640625 0zm0 11.46875l0 -9.671875l1.640625 0l0 9.671875l-1.640625 0zm3.4885712 -2.890625l1.625 -0.25q0.125 0.96875 0.75 1.5q0.625 0.515625 1.75 0.515625q1.125 0 1.671875 -0.453125q0.546875 -0.46875 0.546875 -1.09375q0 -0.546875 -0.484375 -0.875q-0.328125 -0.21875 -1.671875 -0.546875q-1.8125 -0.46875 -2.515625 -0.796875q-0.6875 -0.328125 -1.046875 -0.90625q-0.359375 -0.59375 -0.359375 -1.3125q0 -0.640625 0.296875 -1.1875q0.296875 -0.5625 0.8125 -0.921875q0.375 -0.28125 1.03125 -0.46875q0.671875 -0.203125 1.421875 -0.203125q1.140625 0 2.0 0.328125q0.859375 0.328125 1.265625 0.890625q0.421875 0.5625 0.578125 1.5l-1.609375 0.21875q-0.109375 -0.75 -0.640625 -1.171875q-0.515625 -0.421875 -1.46875 -0.421875q-1.140625 0 -1.625 0.375q-0.46875 0.375 -0.46875 0.875q0 0.3125 0.1875 0.578125q0.203125 0.265625 0.640625 0.4375q0.234375 0.09375 1.4375 0.421875q1.75 0.453125 2.4375 0.75q0.6875 0.296875 1.078125 0.859375q0.390625 0.5625 0.390625 1.40625q0 0.828125 -0.484375 1.546875q-0.46875 0.71875 -1.375 1.125q-0.90625 0.390625 -2.046875 0.390625q-1.875 0 -2.875 -0.78125q-0.984375 -0.78125 -1.25 -2.328125zm14.527054 -1.125l0 -1.640625l5.0312424 0l0 1.640625l-5.0312424 0zm21.770973 -0.671875l1.765625 0.453125q-0.5625 2.171875 -2.0 3.328125q-1.4375 1.140625 -3.53125 1.140625q-2.15625 0 -3.515625 -0.875q-1.34375 -0.890625 -2.0625 -2.546875q-0.703125 -1.671875 -0.703125 -3.59375q0 -2.078125 0.796875 -3.625q0.796875 -1.5625 2.265625 -2.359375q1.484375 -0.8125 3.25 -0.8125q2.0 0 3.359375 1.015625q1.375 1.015625 1.90625 2.875l-1.734375 0.40625q-0.46875 -1.453125 -1.359375 -2.109375q-0.875 -0.671875 -2.203125 -0.671875q-1.546875 0 -2.578125 0.734375q-1.03125 0.734375 -1.453125 1.984375q-0.421875 1.234375 -0.421875 2.5625q0 1.703125 0.5 2.96875q0.5 1.265625 1.546875 1.90625q1.046875 0.625 2.265625 0.625q1.484375 0 2.515625 -0.859375q1.03125 -0.859375 1.390625 -2.546875zm4.301071 4.6875l0 -9.671875l1.640625 0l0 9.671875l-1.640625 0zm0.21875 -10.875l1.21875 -2.546875l2.15625 0l-2.015625 2.546875l-1.359375 0zm4.386429 10.875l0 -9.671875l1.46875 0l0 1.46875q0.5625 -1.03125 1.03125 -1.359375q0.484375 -0.328125 1.0625 -0.328125q0.828125 0 1.6875 0.53125l-0.5625 1.515625q-0.609375 -0.359375 -1.203125 -0.359375q-0.546875 0 -0.96875 0.328125q-0.421875 0.328125 -0.609375 0.890625q-0.28125 0.875 -0.28125 1.921875l0 5.0625l-1.625 0zm12.540802 -3.546875l1.609375 0.21875q-0.265625 1.65625 -1.359375 2.609375q-1.078125 0.9375 -2.671875 0.9375q-1.984375 0 -3.1875 -1.296875q-1.203125 -1.296875 -1.203125 -3.71875q0 -1.578125 0.515625 -2.75q0.515625 -1.171875 1.578125 -1.75q1.0625 -0.59375 2.3125 -0.59375q1.578125 0 2.578125 0.796875q1.0 0.796875 1.28125 2.265625l-1.59375 0.234375q-0.234375 -0.96875 -0.8125 -1.453125q-0.578125 -0.5 -1.390625 -0.5q-1.234375 0 -2.015625 0.890625q-0.78125 0.890625 -0.78125 2.8125q0 1.953125 0.75 2.84375q0.75 0.875 1.953125 0.875q0.96875 0 1.609375 -0.59375q0.65625 -0.59375 0.828125 -1.828125zm9.34375 3.546875l0 -1.421875q-1.125 1.640625 -3.0625 1.640625q-0.859375 0 -1.609375 -0.328125q-0.734375 -0.328125 -1.09375 -0.828125q-0.359375 -0.5 -0.5 -1.21875q-0.109375 -0.46875 -0.109375 -1.53125l0 -5.984375l1.640625 0l0 5.359375q0 1.28125 0.109375 1.734375q0.15625 0.640625 0.65625 1.015625q0.5 0.375 1.234375 0.375q0.734375 0 1.375 -0.375q0.65625 -0.390625 0.921875 -1.03125q0.265625 -0.65625 0.265625 -1.890625l0 -5.1875l1.640625 0l0 9.671875l-1.46875 0zm4.000717 0l0 -13.359375l1.640625 0l0 13.359375l-1.640625 0zm3.5823212 -4.84375q0 -2.6875 1.484375 -3.96875q1.25 -1.078125 3.046875 -1.078125q2.0 0 3.265625 1.3125q1.265625 1.296875 1.265625 3.609375q0 1.859375 -0.5625 2.9375q-0.5625 1.0625 -1.640625 1.65625q-1.0625 0.59375 -2.328125 0.59375q-2.03125 0 -3.28125 -1.296875q-1.25 -1.3125 -1.25 -3.765625zm1.6875 0q0 1.859375 0.796875 2.796875q0.8125 0.921875 2.046875 0.921875q1.21875 0 2.03125 -0.921875q0.8125 -0.9375 0.8125 -2.84375q0 -1.796875 -0.8125 -2.71875q-0.8125 -0.921875 -2.03125 -0.921875q-1.234375 0 -2.046875 0.921875q-0.796875 0.90625 -0.796875 2.765625zm8.641342 1.953125l1.625 -0.25q0.125 0.96875 0.75 1.5q0.625 0.515625 1.75 0.515625q1.125 0 1.671875 -0.453125q0.546875 -0.46875 0.546875 -1.09375q0 -0.546875 -0.484375 -0.875q-0.328125 -0.21875 -1.671875 -0.546875q-1.8125 -0.46875 -2.515625 -0.796875q-0.6875 -0.328125 -1.046875 -0.90625q-0.359375 -0.59375 -0.359375 -1.3125q0 -0.640625 0.296875 -1.1875q0.296875 -0.5625 0.8125 -0.921875q0.375 -0.28125 1.03125 -0.46875q0.671875 -0.203125 1.421875 -0.203125q1.140625 0 2.0 0.328125q0.859375 0.328125 1.265625 0.890625q0.421875 0.5625 0.578125 1.5l-1.609375 0.21875q-0.109375 -0.75 -0.640625 -1.171875q-0.515625 -0.421875 -1.46875 -0.421875q-1.140625 0 -1.625 0.375q-0.46875 0.375 -0.46875 0.875q0 0.3125 0.1875 0.578125q0.203125 0.265625 0.640625 0.4375q0.234375 0.09375 1.4375 0.421875q1.75 0.453125 2.4375 0.75q0.6875 0.296875 1.078125 0.859375q0.390625 0.5625 0.390625 1.40625q0 0.828125 -0.484375 1.546875q-0.46875 0.71875 -1.375 1.125q-0.90625 0.390625 -2.046875 0.390625q-1.875 0 -2.875 -0.78125q-0.984375 -0.78125 -1.25 -2.328125zm14.527054 -1.125l0 -1.640625l5.03125 0l0 1.640625l-5.03125 0zm10.770981 4.015625l5.125 -13.359375l1.90625 0l5.46875 13.359375l-2.015625 0l-1.546875 -4.046875l-5.59375 0l-1.46875 4.046875l-1.875 0zm3.859375 -5.484375l4.53125 0l-1.40625 -3.703125q-0.625 -1.6875 -0.9375 -2.765625q-0.265625 1.28125 -0.71875 2.546875l-1.46875 3.921875zm9.834198 5.484375l0 -9.671875l1.46875 0l0 1.46875q0.5625 -1.03125 1.03125 -1.359375q0.484375 -0.328125 1.0625 -0.328125q0.828125 0 1.6875 0.53125l-0.5625 1.515625q-0.609375 -0.359375 -1.203125 -0.359375q-0.546875 0 -0.96875 0.328125q-0.421875 0.328125 -0.609375 0.890625q-0.28125 0.875 -0.28125 1.921875l0 5.0625l-1.625 0zm9.806427 -1.46875l0.234375 1.453125q-0.6875 0.140625 -1.234375 0.140625q-0.890625 0 -1.390625 -0.28125q-0.484375 -0.28125 -0.6875 -0.734375q-0.203125 -0.46875 -0.203125 -1.9375l0 -5.578125l-1.203125 0l0 -1.265625l1.203125 0l0 -2.390625l1.625 -0.984375l0 3.375l1.65625 0l0 1.265625l-1.65625 0l0 5.671875q0 0.6875 0.078125 0.890625q0.09375 0.203125 0.28125 0.328125q0.203125 0.109375 0.578125 0.109375q0.265625 0 0.71875 -0.0625zm8.230179 -1.640625l1.6875 0.203125q-0.40625 1.484375 -1.484375 2.3125q-1.078125 0.8125 -2.765625 0.8125q-2.125 0 -3.375 -1.296875q-1.234375 -1.3125 -1.234375 -3.671875q0 -2.453125 1.25 -3.796875q1.265625 -1.34375 3.265625 -1.34375q1.9375 0 3.15625 1.328125q1.234375 1.3125 1.234375 3.703125q0 0.15625 0 0.4375l-7.21875 0q0.09375 1.59375 0.90625 2.453125q0.8125 0.84375 2.015625 0.84375q0.90625 0 1.546875 -0.46875q0.640625 -0.484375 1.015625 -1.515625zm-5.390625 -2.65625l5.40625 0q-0.109375 -1.21875 -0.625 -1.828125q-0.78125 -0.953125 -2.03125 -0.953125q-1.125 0 -1.90625 0.765625q-0.765625 0.75 -0.84375 2.015625zm9.531967 5.765625l0 -8.40625l-1.453125 0l0 -1.265625l1.453125 0l0 -1.03125q0 -0.96875 0.171875 -1.453125q0.234375 -0.640625 0.828125 -1.03125q0.59375 -0.390625 1.671875 -0.390625q0.6875 0 1.53125 0.15625l-0.25 1.4375q-0.5 -0.09375 -0.953125 -0.09375q-0.75 0 -1.0625 0.328125q-0.3125 0.3125 -0.3125 1.1875l0 0.890625l1.890625 0l0 1.265625l-1.890625 0l0 8.40625l-1.625 0zm11.105194 -1.1875q-0.921875 0.765625 -1.765625 1.09375q-0.828125 0.3125 -1.796875 0.3125q-1.59375 0 -2.453125 -0.78125q-0.859375 -0.78125 -0.859375 -1.984375q0 -0.71875 0.328125 -1.296875q0.328125 -0.59375 0.84375 -0.9375q0.53125 -0.359375 1.1875 -0.546875q0.46875 -0.125 1.453125 -0.25q1.984375 -0.234375 2.921875 -0.5625q0.015625 -0.34375 0.015625 -0.421875q0 -1.0 -0.46875 -1.421875q-0.625 -0.546875 -1.875 -0.546875q-1.15625 0 -1.703125 0.40625q-0.546875 0.40625 -0.8125 1.421875l-1.609375 -0.21875q0.21875 -1.015625 0.71875 -1.640625q0.5 -0.640625 1.453125 -0.984375q0.953125 -0.34375 2.1875 -0.34375q1.25 0 2.015625 0.296875q0.78125 0.28125 1.140625 0.734375q0.375 0.4375 0.515625 1.109375q0.078125 0.421875 0.078125 1.515625l0 2.1875q0 2.28125 0.109375 2.890625q0.109375 0.59375 0.40625 1.15625l-1.703125 0q-0.265625 -0.515625 -0.328125 -1.1875zm-0.140625 -3.671875q-0.890625 0.375 -2.671875 0.625q-1.015625 0.140625 -1.4375 0.328125q-0.421875 0.1875 -0.65625 0.53125q-0.21875 0.34375 -0.21875 0.78125q0 0.65625 0.5 1.09375q0.5 0.4375 1.453125 0.4375q0.9375 0 1.671875 -0.40625q0.75 -0.421875 1.09375 -1.140625q0.265625 -0.5625 0.265625 -1.640625l0 -0.609375zm7.781952 3.390625l0.234375 1.453125q-0.6875 0.140625 -1.234375 0.140625q-0.890625 0 -1.390625 -0.28125q-0.484375 -0.28125 -0.6875 -0.734375q-0.203125 -0.46875 -0.203125 -1.9375l0 -5.578125l-1.203125 0l0 -1.265625l1.203125 0l0 -2.390625l1.625 -0.984375l0 3.375l1.65625 0l0 1.265625l-1.65625 0l0 5.671875q0 0.6875 0.078125 0.890625q0.09375 0.203125 0.28125 0.328125q0.203125 0.109375 0.578125 0.109375q0.265625 0 0.71875 -0.0625zm0.9958191 -3.375q0 -2.6875 1.484375 -3.96875q1.25 -1.078125 3.046875 -1.078125q2.0 0 3.265625 1.3125q1.265625 1.296875 1.265625 3.609375q0 1.859375 -0.5625 2.9375q-0.5625 1.0625 -1.640625 1.65625q-1.0625 0.59375 -2.328125 0.59375q-2.03125 0 -3.28125 -1.296875q-1.25 -1.3125 -1.25 -3.765625zm1.6875 0q0 1.859375 0.796875 2.796875q0.8125 0.921875 2.046875 0.921875q1.21875 0 2.03125 -0.921875q0.8125 -0.9375 0.8125 -2.84375q0 -1.796875 -0.8125 -2.71875q-0.8125 -0.921875 -2.03125 -0.921875q-1.234375 0 -2.046875 0.921875q-0.796875 0.90625 -0.796875 2.765625zm8.641327 1.953125l1.625 -0.25q0.125 0.96875 0.75 1.5q0.625 0.515625 1.75 0.515625q1.125 0 1.671875 -0.453125q0.546875 -0.46875 0.546875 -1.09375q0 -0.546875 -0.484375 -0.875q-0.328125 -0.21875 -1.671875 -0.546875q-1.8125 -0.46875 -2.515625 -0.796875q-0.6875 -0.328125 -1.046875 -0.90625q-0.359375 -0.59375 -0.359375 -1.3125q0 -0.640625 0.296875 -1.1875q0.296875 -0.5625 0.8125 -0.921875q0.375 -0.28125 1.03125 -0.46875q0.671875 -0.203125 1.421875 -0.203125q1.140625 0 2.0 0.328125q0.859375 0.328125 1.265625 0.890625q0.421875 0.5625 0.578125 1.5l-1.609375 0.21875q-0.109375 -0.75 -0.640625 -1.171875q-0.515625 -0.421875 -1.46875 -0.421875q-1.140625 0 -1.625 0.375q-0.46875 0.375 -0.46875 0.875q0 0.3125 0.1875 0.578125q0.203125 0.265625 0.640625 0.4375q0.234375 0.09375 1.4375 0.421875q1.75 0.453125 2.4375 0.75q0.6875 0.296875 1.078125 0.859375q0.390625 0.5625 0.390625 1.40625q0 0.828125 -0.484375 1.546875q-0.46875 0.71875 -1.375 1.125q-0.90625 0.390625 -2.046875 0.390625q-1.875 0 -2.875 -0.78125q-0.984375 -0.78125 -1.25 -2.328125zm14.527069 -1.125l0 -1.640625l5.03125 0l0 1.640625l-5.03125 0zm12.192841 4.015625l0 -13.359375l2.65625 0l3.15625 9.453125q0.4375 1.328125 0.640625 1.984375q0.234375 -0.734375 0.703125 -2.140625l3.203125 -9.296875l2.375 0l0 13.359375l-1.703125 0l0 -11.171875l-3.875 11.171875l-1.59375 0l-3.859375 -11.375l0 11.375l-1.703125 0zm22.009583 -3.109375l1.6875 0.203125q-0.40625 1.484375 -1.484375 2.3125q-1.078125 0.8125 -2.765625 0.8125q-2.125 0 -3.375 -1.296875q-1.234375 -1.3125 -1.234375 -3.671875q0 -2.453125 1.25 -3.796875q1.265625 -1.34375 3.265625 -1.34375q1.9375 0 3.15625 1.328125q1.234375 1.3125 1.234375 3.703125q0 0.15625 0 0.4375l-7.21875 0q0.09375 1.59375 0.90625 2.453125q0.8125 0.84375 2.015625 0.84375q0.90625 0 1.546875 -0.46875q0.640625 -0.484375 1.015625 -1.515625zm-5.390625 -2.65625l5.40625 0q-0.109375 -1.21875 -0.625 -1.828125q-0.78125 -0.953125 -2.03125 -0.953125q-1.125 0 -1.90625 0.765625q-0.765625 0.75 -0.84375 2.015625zm9.141357 5.765625l0 -9.671875l1.46875 0l0 1.359375q0.453125 -0.71875 1.203125 -1.140625q0.765625 -0.4375 1.71875 -0.4375q1.078125 0 1.765625 0.453125q0.6875 0.4375 0.96875 1.234375q1.15625 -1.6875 2.984375 -1.6875q1.453125 0 2.21875 0.796875q0.78125 0.796875 0.78125 2.453125l0 6.640625l-1.640625 0l0 -6.09375q0 -0.984375 -0.15625 -1.40625q-0.15625 -0.4375 -0.578125 -0.703125q-0.421875 -0.265625 -0.984375 -0.265625q-1.015625 0 -1.6875 0.6875q-0.671875 0.671875 -0.671875 2.15625l0 5.625l-1.640625 0l0 -6.28125q0 -1.09375 -0.40625 -1.640625q-0.40625 -0.546875 -1.3125 -0.546875q-0.6875 0 -1.28125 0.359375q-0.59375 0.359375 -0.859375 1.0625q-0.25 0.703125 -0.25 2.03125l0 5.015625l-1.640625 0zm17.040802 0l-1.515625 0l0 -13.359375l1.640625 0l0 4.765625q1.046875 -1.296875 2.65625 -1.296875q0.890625 0 1.6875 0.359375q0.796875 0.359375 1.3125 1.015625q0.515625 0.640625 0.796875 1.5625q0.296875 0.921875 0.296875 1.96875q0 2.484375 -1.234375 3.84375q-1.21875 1.359375 -2.953125 1.359375q-1.703125 0 -2.6875 -1.4375l0 1.21875zm-0.015625 -4.90625q0 1.734375 0.484375 2.515625q0.765625 1.265625 2.09375 1.265625q1.078125 0 1.859375 -0.9375q0.78125 -0.9375 0.78125 -2.78125q0 -1.890625 -0.75 -2.796875q-0.75 -0.90625 -1.828125 -0.90625q-1.0625 0 -1.859375 0.9375q-0.78125 0.9375 -0.78125 2.703125zm8.875702 4.90625l0 -9.671875l1.46875 0l0 1.46875q0.5625 -1.03125 1.03125 -1.359375q0.484375 -0.328125 1.0625 -0.328125q0.828125 0 1.6875 0.53125l-0.5625 1.515625q-0.609375 -0.359375 -1.203125 -0.359375q-0.546875 0 -0.96875 0.328125q-0.421875 0.328125 -0.609375 0.890625q-0.28125 0.875 -0.28125 1.921875l0 5.0625l-1.625 0zm5.618927 -4.84375q0 -2.6875 1.484375 -3.96875q1.25 -1.078125 3.046875 -1.078125q2.0 0 3.265625 1.3125q1.265625 1.296875 1.265625 3.609375q0 1.859375 -0.5625 2.9375q-0.5625 1.0625 -1.640625 1.65625q-1.0625 0.59375 -2.328125 0.59375q-2.03125 0 -3.28125 -1.296875q-1.25 -1.3125 -1.25 -3.765625zm1.6875 0q0 1.859375 0.796875 2.796875q0.8125 0.921875 2.046875 0.921875q1.21875 0 2.03125 -0.921875q0.8125 -0.9375 0.8125 -2.84375q0 -1.796875 -0.8125 -2.71875q-0.8125 -0.921875 -2.03125 -0.921875q-1.234375 0 -2.046875 0.921875q-0.796875 0.90625 -0.796875 2.765625zm8.641327 1.953125l1.625 -0.25q0.125 0.96875 0.75 1.5q0.625 0.515625 1.75 0.515625q1.125 0 1.671875 -0.453125q0.546875 -0.46875 0.546875 -1.09375q0 -0.546875 -0.484375 -0.875q-0.328125 -0.21875 -1.671875 -0.546875q-1.8125 -0.46875 -2.515625 -0.796875q-0.6875 -0.328125 -1.046875 -0.90625q-0.359375 -0.59375 -0.359375 -1.3125q0 -0.640625 0.296875 -1.1875q0.296875 -0.5625 0.8125 -0.921875q0.375 -0.28125 1.03125 -0.46875q0.671875 -0.203125 1.421875 -0.203125q1.140625 0 2.0 0.328125q0.859375 0.328125 1.265625 0.890625q0.421875 0.5625 0.578125 1.5l-1.609375 0.21875q-0.109375 -0.75 -0.640625 -1.171875q-0.515625 -0.421875 -1.46875 -0.421875q-1.140625 0 -1.625 0.375q-0.46875 0.375 -0.46875 0.875q0 0.3125 0.1875 0.578125q0.203125 0.265625 0.640625 0.4375q0.234375 0.09375 1.4375 0.421875q1.75 0.453125 2.4375 0.75q0.6875 0.296875 1.078125 0.859375q0.390625 0.5625 0.390625 1.40625q0 0.828125 -0.484375 1.546875q-0.46875 0.71875 -1.375 1.125q-0.90625 0.390625 -2.046875 0.390625q-1.875 0 -2.875 -0.78125q-0.984375 -0.78125 -1.25 -2.328125zm14.527039 -1.125l0 -1.640625l5.03125 0l0 1.640625l-5.03125 0zm12.270996 4.015625l0 -13.359375l5.921875 0q1.78125 0 2.703125 0.359375q0.9375 0.359375 1.484375 1.28125q0.5625 0.90625 0.5625 2.015625q0 1.40625 -0.921875 2.390625q-0.921875 0.96875 -2.84375 1.234375q0.703125 0.34375 1.078125 0.671875q0.765625 0.703125 1.453125 1.765625l2.328125 3.640625l-2.21875 0l-1.765625 -2.78125q-0.78125 -1.203125 -1.28125 -1.828125q-0.5 -0.640625 -0.90625 -0.890625q-0.390625 -0.265625 -0.796875 -0.359375q-0.296875 -0.078125 -0.984375 -0.078125l-2.046875 0l0 5.9375l-1.765625 0zm1.765625 -7.453125l3.796875 0q1.21875 0 1.890625 -0.25q0.6875 -0.265625 1.046875 -0.8125q0.359375 -0.546875 0.359375 -1.1875q0 -0.953125 -0.6875 -1.5625q-0.6875 -0.609375 -2.1875 -0.609375l-4.21875 0l0 4.421875zm18.097961 4.34375l1.6875 0.203125q-0.40625 1.484375 -1.484375 2.3125q-1.078125 0.8125 -2.765625 0.8125q-2.125 0 -3.375 -1.296875q-1.234375 -1.3125 -1.234375 -3.671875q0 -2.453125 1.25 -3.796875q1.265625 -1.34375 3.265625 -1.34375q1.9375 0 3.15625 1.328125q1.234375 1.3125 1.234375 3.703125q0 0.15625 0 0.4375l-7.21875 0q0.09375 1.59375 0.90625 2.453125q0.8125 0.84375 2.015625 0.84375q0.90625 0 1.546875 -0.46875q0.640625 -0.484375 1.015625 -1.515625zm-5.390625 -2.65625l5.40625 0q-0.109375 -1.21875 -0.625 -1.828125q-0.78125 -0.953125 -2.03125 -0.953125q-1.125 0 -1.90625 0.765625q-0.765625 0.75 -0.84375 2.015625zm8.485107 2.875l1.625 -0.25q0.125 0.96875 0.75 1.5q0.625 0.515625 1.75 0.515625q1.125 0 1.671875 -0.453125q0.546875 -0.46875 0.546875 -1.09375q0 -0.546875 -0.484375 -0.875q-0.328125 -0.21875 -1.671875 -0.546875q-1.8125 -0.46875 -2.515625 -0.796875q-0.6875 -0.328125 -1.046875 -0.90625q-0.359375 -0.59375 -0.359375 -1.3125q0 -0.640625 0.296875 -1.1875q0.296875 -0.5625 0.8125 -0.921875q0.375 -0.28125 1.03125 -0.46875q0.671875 -0.203125 1.421875 -0.203125q1.140625 0 2.0 0.328125q0.859375 0.328125 1.265625 0.890625q0.421875 0.5625 0.578125 1.5l-1.609375 0.21875q-0.109375 -0.75 -0.640625 -1.171875q-0.515625 -0.421875 -1.46875 -0.421875q-1.140625 0 -1.625 0.375q-0.46875 0.375 -0.46875 0.875q0 0.3125 0.1875 0.578125q0.203125 0.265625 0.640625 0.4375q0.234375 0.09375 1.4375 0.421875q1.75 0.453125 2.4375 0.75q0.6875 0.296875 1.078125 0.859375q0.390625 0.5625 0.390625 1.40625q0 0.828125 -0.484375 1.546875q-0.46875 0.71875 -1.375 1.125q-0.90625 0.390625 -2.046875 0.390625q-1.875 0 -2.875 -0.78125q-0.984375 -0.78125 -1.25 -2.328125zm13.5625 1.421875l0.234375 1.453125q-0.6875 0.140625 -1.234375 0.140625q-0.890625 0 -1.390625 -0.28125q-0.484375 -0.28125 -0.6875 -0.734375q-0.203125 -0.46875 -0.203125 -1.9375l0 -5.578125l-1.203125 0l0 -1.265625l1.203125 0l0 -2.390625l1.625 -0.984375l0 3.375l1.65625 0l0 1.265625l-1.65625 0l0 5.671875q0 0.6875 0.078125 0.890625q0.09375 0.203125 0.28125 0.328125q0.203125 0.109375 0.578125 0.109375q0.265625 0 0.71875 -0.0625zm1.5895386 1.46875l0 -9.671875l1.46875 0l0 1.46875q0.5625 -1.03125 1.03125 -1.359375q0.484375 -0.328125 1.0625 -0.328125q0.828125 0 1.6875 0.53125l-0.5625 1.515625q-0.609375 -0.359375 -1.203125 -0.359375q-0.546875 0 -0.96875 0.328125q-0.421875 0.328125 -0.609375 0.890625q-0.28125 0.875 -0.28125 1.921875l0 5.0625l-1.625 0zm6.228302 -11.46875l0 -1.890625l1.640625 0l0 1.890625l-1.640625 0zm0 11.46875l0 -9.671875l1.640625 0l0 9.671875l-1.640625 0zm10.457306 -3.546875l1.609375 0.21875q-0.265625 1.65625 -1.359375 2.609375q-1.078125 0.9375 -2.671875 0.9375q-1.984375 0 -3.1875 -1.296875q-1.203125 -1.296875 -1.203125 -3.71875q0 -1.578125 0.515625 -2.75q0.515625 -1.171875 1.578125 -1.75q1.0625 -0.59375 2.3125 -0.59375q1.578125 0 2.578125 0.796875q1.0 0.796875 1.28125 2.265625l-1.59375 0.234375q-0.234375 -0.96875 -0.8125 -1.453125q-0.578125 -0.5 -1.390625 -0.5q-1.234375 0 -2.015625 0.890625q-0.78125 0.890625 -0.78125 2.8125q0 1.953125 0.75 2.84375q0.75 0.875 1.953125 0.875q0.96875 0 1.609375 -0.59375q0.65625 -0.59375 0.828125 -1.828125zm-3.578125 4.953125l0.46875 -1.609375l1.21875 0l-0.296875 0.96875q0.78125 0.09375 1.171875 0.46875q0.390625 0.390625 0.390625 0.875q0 0.671875 -0.65625 1.1875q-0.65625 0.53125 -1.984375 0.53125q-0.734375 0 -1.3125 -0.109375l0.109375 -1.0625q0.578125 0.046875 0.859375 0.046875q0.84375 0 1.203125 -0.25q0.25 -0.171875 0.25 -0.4375q0 -0.171875 -0.109375 -0.296875q-0.09375 -0.125 -0.375 -0.21875q-0.28125 -0.09375 -0.9375 -0.09375zm5.984375 -6.25q0 -2.6875 1.484375 -3.96875q1.25 -1.078125 3.046875 -1.078125q2.0 0 3.265625 1.3125q1.265625 1.296875 1.265625 3.609375q0 1.859375 -0.5625 2.9375q-0.5625 1.0625 -1.640625 1.65625q-1.0625 0.59375 -2.328125 0.59375q-2.03125 0 -3.28125 -1.296875q-1.25 -1.3125 -1.25 -3.765625zm1.6875 0q0 1.859375 0.796875 2.796875q0.8125 0.921875 2.046875 0.921875q1.21875 0 2.03125 -0.921875q0.8125 -0.9375 0.8125 -2.84375q0 -1.796875 -0.8125 -2.71875q-0.8125 -0.921875 -2.03125 -0.921875q-1.234375 0 -2.046875 0.921875q-0.796875 0.90625 -0.796875 2.765625zm-0.25 -6.265625q-0.015625 -0.9375 0.515625 -1.5q0.53125 -0.578125 1.328125 -0.578125q0.578125 0 1.546875 0.5q0.53125 0.265625 0.859375 0.265625q0.28125 0 0.4375 -0.15625q0.15625 -0.15625 0.21875 -0.625l1.1875 0q-0.03125 1.03125 -0.53125 1.5625q-0.484375 0.515625 -1.25 0.515625q-0.578125 0 -1.515625 -0.515625q-0.609375 -0.328125 -0.890625 -0.328125q-0.3125 0 -0.5 0.21875q-0.203125 0.21875 -0.1875 0.640625l-1.21875 0zm16.172607 8.0l1.6875 0.203125q-0.40625 1.484375 -1.484375 2.3125q-1.078125 0.8125 -2.765625 0.8125q-2.125 0 -3.375 -1.296875q-1.234375 -1.3125 -1.234375 -3.671875q0 -2.453125 1.25 -3.796875q1.265625 -1.34375 3.265625 -1.34375q1.9375 0 3.15625 1.328125q1.234375 1.3125 1.234375 3.703125q0 0.15625 0 0.4375l-7.21875 0q0.09375 1.59375 0.90625 2.453125q0.8125 0.84375 2.015625 0.84375q0.90625 0 1.546875 -0.46875q0.640625 -0.484375 1.015625 -1.515625zm-5.390625 -2.65625l5.40625 0q-0.109375 -1.21875 -0.625 -1.828125q-0.78125 -0.953125 -2.03125 -0.953125q-1.125 0 -1.90625 0.765625q-0.765625 0.75 -0.84375 2.015625zm8.485107 2.875l1.625 -0.25q0.125 0.96875 0.75 1.5q0.625 0.515625 1.75 0.515625q1.125 0 1.671875 -0.453125q0.546875 -0.46875 0.546875 -1.09375q0 -0.546875 -0.484375 -0.875q-0.328125 -0.21875 -1.671875 -0.546875q-1.8125 -0.46875 -2.515625 -0.796875q-0.6875 -0.328125 -1.046875 -0.90625q-0.359375 -0.59375 -0.359375 -1.3125q0 -0.640625 0.296875 -1.1875q0.296875 -0.5625 0.8125 -0.921875q0.375 -0.28125 1.03125 -0.46875q0.671875 -0.203125 1.421875 -0.203125q1.140625 0 2.0 0.328125q0.859375 0.328125 1.265625 0.890625q0.421875 0.5625 0.578125 1.5l-1.609375 0.21875q-0.109375 -0.75 -0.640625 -1.171875q-0.515625 -0.421875 -1.46875 -0.421875q-1.140625 0 -1.625 0.375q-0.46875 0.375 -0.46875 0.875q0 0.3125 0.1875 0.578125q0.203125 0.265625 0.640625 0.4375q0.234375 0.09375 1.4375 0.421875q1.75 0.453125 2.4375 0.75q0.6875 0.296875 1.078125 0.859375q0.390625 0.5625 0.390625 1.40625q0 0.828125 -0.484375 1.546875q-0.46875 0.71875 -1.375 1.125q-0.90625 0.390625 -2.046875 0.390625q-1.875 0 -2.875 -0.78125q-0.984375 -0.78125 -1.25 -2.328125z" fill-rule="nonzero"/><path fill="#00bbcc" d="m48.427826 85.9895l0 0c0 -5.131462 4.159874 -9.291336 9.291336 -9.291336l0 0c2.4642181 0 4.827507 0.9789047 6.569969 2.721367c1.7424622 1.7424698 2.7213745 4.1057587 2.7213745 6.569969l0 0c0 5.1314697 -4.159878 9.291344 -9.291344 9.291344l0 0c-5.131462 0 -9.291336 -4.159874 -9.291336 -9.291344z" fill-rule="evenodd"/><path stroke="#334455" stroke-width="4.0" stroke-linejoin="round" stroke-linecap="butt" d="m48.427826 85.9895l0 0c0 -5.131462 4.159874 -9.291336 9.291336 -9.291336l0 0c2.4642181 0 4.827507 0.9789047 6.569969 2.721367c1.7424622 1.7424698 2.7213745 4.1057587 2.7213745 6.569969l0 0c0 5.1314697 -4.159878 9.291344 -9.291344 9.291344l0 0c-5.131462 0 -9.291336 -4.159874 -9.291336 -9.291344z" fill-rule="evenodd"/><path fill="#00bbcc" d="m66.07087 85.9895l0 0c0 -5.131462 4.159874 -9.291336 9.291336 -9.291336l0 0c2.4642181 0 4.827507 0.9789047 6.569969 2.721367c1.7424622 1.7424698 2.7213745 4.1057587 2.7213745 6.569969l0 0c0 5.1314697 -4.159874 9.291344 -9.291344 9.291344l0 0c-5.131462 0 -9.291336 -4.159874 -9.291336 -9.291344z" fill-rule="evenodd"/><path stroke="#334455" stroke-width="4.0" stroke-linejoin="round" stroke-linecap="butt" d="m66.07087 85.9895l0 0c0 -5.131462 4.159874 -9.291336 9.291336 -9.291336l0 0c2.4642181 0 4.827507 0.9789047 6.569969 2.721367c1.7424622 1.7424698 2.7213745 4.1057587 2.7213745 6.569969l0 0c0 5.1314697 -4.159874 9.291344 -9.291344 9.291344l0 0c-5.131462 0 -9.291336 -4.159874 -9.291336 -9.291344z" fill-rule="evenodd"/><path fill="#00bbcc" d="m84.062996 85.9895l0 0c0 -5.131462 4.159874 -9.291336 9.291336 -9.291336l0 0c2.4642181 0 4.827507 0.9789047 6.569969 2.721367c1.7424622 1.7424698 2.7213745 4.1057587 2.7213745 6.569969l0 0c0 5.1314697 -4.159874 9.291344 -9.291344 9.291344l0 0c-5.131462 0 -9.291336 -4.159874 -9.291336 -9.291344z" fill-rule="evenodd"/><path stroke="#334455" stroke-width="4.0" stroke-linejoin="round" stroke-linecap="butt" d="m84.062996 85.9895l0 0c0 -5.131462 4.159874 -9.291336 9.291336 -9.291336l0 0c2.4642181 0 4.827507 0.9789047 6.569969 2.721367c1.7424622 1.7424698 2.7213745 4.1057587 2.7213745 6.569969l0 0c0 5.1314697 -4.159874 9.291344 -9.291344 9.291344l0 0c-5.131462 0 -9.291336 -4.159874 -9.291336 -9.291344z" fill-rule="evenodd"/><path fill="#00bbcc" d="m56.427826 68.66142l0 0c0 -5.131466 4.159874 -9.29134 9.291336 -9.29134l0 0c2.4642181 0 4.827507 0.9789047 6.569969 2.7213707c1.7424622 1.7424622 2.7213745 4.105751 2.7213745 6.569969l0 0c0 5.131462 -4.159874 9.291336 -9.291344 9.291336l0 0c-5.131462 0 -9.291336 -4.159874 -9.291336 -9.291336z" fill-rule="evenodd"/><path stroke="#334455" stroke-width="4.0" stroke-linejoin="round" stroke-linecap="butt" d="m56.427826 68.66142l0 0c0 -5.131466 4.159874 -9.29134 9.291336 -9.29134l0 0c2.4642181 0 4.827507 0.9789047 6.569969 2.7213707c1.7424622 1.7424622 2.7213745 4.105751 2.7213745 6.569969l0 0c0 5.131462 -4.159874 9.291336 -9.291344 9.291336l0 0c-5.131462 0 -9.291336 -4.159874 -9.291336 -9.291336z" fill-rule="evenodd"/><path fill="#00bbcc" d="m74.07087 68.66142l0 0c0 -5.131466 4.159874 -9.29134 9.291336 -9.29134l0 0c2.4642181 0 4.827507 0.9789047 6.569969 2.7213707c1.7424622 1.7424622 2.7213745 4.105751 2.7213745 6.569969l0 0c0 5.131462 -4.159874 9.291336 -9.291344 9.291336l0 0c-5.131462 0 -9.291336 -4.159874 -9.291336 -9.291336z" fill-rule="evenodd"/><path stroke="#334455" stroke-width="4.0" stroke-linejoin="round" stroke-linecap="butt" d="m74.07087 68.66142l0 0c0 -5.131466 4.159874 -9.29134 9.291336 -9.29134l0 0c2.4642181 0 4.827507 0.9789047 6.569969 2.7213707c1.7424622 1.7424622 2.7213745 4.105751 2.7213745 6.569969l0 0c0 5.131462 -4.159874 9.291336 -9.291344 9.291336l0 0c-5.131462 0 -9.291336 -4.159874 -9.291336 -9.291336z" fill-rule="evenodd"/><path fill="#00bbcc" d="m92.062996 68.66142l0 0c0 -5.131466 4.159874 -9.29134 9.291336 -9.29134l0 0c2.4642181 0 4.827507 0.9789047 6.569969 2.7213707c1.7424622 1.7424622 2.7213745 4.105751 2.7213745 6.569969l0 0c0 5.131462 -4.159874 9.291336 -9.291344 9.291336l0 0c-5.131462 0 -9.291336 -4.159874 -9.291336 -9.291336z" fill-rule="evenodd"/><path stroke="#334455" stroke-width="4.0" stroke-linejoin="round" stroke-linecap="butt" d="m92.062996 68.66142l0 0c0 -5.131466 4.159874 -9.29134 9.291336 -9.29134l0 0c2.4642181 0 4.827507 0.9789047 6.569969 2.7213707c1.7424622 1.7424622 2.7213745 4.105751 2.7213745 6.569969l0 0c0 5.131462 -4.159874 9.291336 -9.291344 9.291336l0 0c-5.131462 0 -9.291336 -4.159874 -9.291336 -9.291336z" fill-rule="evenodd"/><path fill="#ffffff" d="m177.63799 75.59023l0 0c0 -29.405907 23.69014 -53.2441 52.91339 -53.2441l0 0c14.033508 0 27.492233 5.6096306 37.41542 15.594833c9.923187 9.985207 15.497955 23.52805 15.497955 37.649265l0 0c0 29.4059 -23.690125 53.244087 -52.913376 53.244087l0 0c-29.223251 0 -52.91339 -23.838188 -52.91339 -53.244087z" fill-rule="evenodd"/><path stroke="#334455" stroke-width="4.0" stroke-linejoin="round" stroke-linecap="butt" d="m177.63799 75.59023l0 0c0 -29.405907 23.69014 -53.2441 52.91339 -53.2441l0 0c14.033508 0 27.492233 5.6096306 37.41542 15.594833c9.923187 9.985207 15.497955 23.52805 15.497955 37.649265l0 0c0 29.4059 -23.690125 53.244087 -52.913376 53.244087l0 0c-29.223251 0 -52.91339 -23.838188 -52.91339 -53.244087z" fill-rule="evenodd"/><path fill="#ffffff" d="m236.79904 53.526413l0 0c0 -8.349503 6.726303 -15.118111 15.023621 -15.118111l0 0c3.9845123 0 7.8058167 1.5927963 10.623291 4.42799c2.8174744 2.8351974 4.4003296 6.680546 4.4003296 10.690121l0 0c0 8.349499 -6.7263184 15.118111 -15.023621 15.118111l0 0c-8.2973175 0 -15.023621 -6.768612 -15.023621 -15.118111z" fill-rule="evenodd"/><path stroke="#334455" stroke-width="4.0" stroke-linejoin="round" stroke-linecap="butt" d="m236.79904 53.526413l0 0c0 -8.349503 6.726303 -15.118111 15.023621 -15.118111l0 0c3.9845123 0 7.8058167 1.5927963 10.623291 4.42799c2.8174744 2.8351974 4.4003296 6.680546 4.4003296 10.690121l0 0c0 8.349499 -6.7263184 15.118111 -15.023621 15.118111l0 0c-8.2973175 0 -15.023621 -6.768612 -15.023621 -15.118111z" fill-rule="evenodd"/><path fill="#ffffff" d="m239.37854 95.386635l0 0c0 -8.349503 6.726303 -15.118111 15.023621 -15.118111l0 0c3.9845276 0 7.805847 1.5927963 10.623322 4.427994c2.8174744 2.8351974 4.400299 6.6805496 4.400299 10.690117l0 0c0 8.349503 -6.726288 15.118111 -15.023621 15.118111l0 0c-8.2973175 0 -15.023621 -6.768608 -15.023621 -15.118111z" fill-rule="evenodd"/><path stroke="#334455" stroke-width="4.0" stroke-linejoin="round" stroke-linecap="butt" d="m239.37854 95.386635l0 0c0 -8.349503 6.726303 -15.118111 15.023621 -15.118111l0 0c3.9845276 0 7.805847 1.5927963 10.623322 4.427994c2.8174744 2.8351974 4.400299 6.6805496 4.400299 10.690117l0 0c0 8.349503 -6.726288 15.118111 -15.023621 15.118111l0 0c-8.2973175 0 -15.023621 -6.768608 -15.023621 -15.118111z" fill-rule="evenodd"/><path fill="#ffffff" d="m185.08385 76.97896l0 0c0 -14.411587 11.612396 -26.09449 25.937012 -26.09449l0 0c6.8789215 0 13.476105 2.7492332 18.340225 7.6428986c4.8641357 4.893669 7.5967865 11.530899 7.5967865 18.451591l0 0c0 14.411591 -11.612396 26.09449 -25.937012 26.09449l0 0c-14.3246155 0 -25.937012 -11.682899 -25.937012 -26.09449z" fill-rule="evenodd"/><path stroke="#334455" stroke-width="4.0" stroke-linejoin="round" stroke-linecap="butt" d="m185.08385 76.97896l0 0c0 -14.411587 11.612396 -26.09449 25.937012 -26.09449l0 0c6.8789215 0 13.476105 2.7492332 18.340225 7.6428986c4.8641357 4.893669 7.5967865 11.530899 7.5967865 18.451591l0 0c0 14.411591 -11.612396 26.09449 -25.937012 26.09449l0 0c-14.3246155 0 -25.937012 -11.682899 -25.937012 -26.09449z" fill-rule="evenodd"/><path fill="#ffffff" d="m200.93895 77.32617l0 0c0 -8.349503 6.726303 -15.118111 15.023621 -15.118111l0 0c3.9845123 0 7.805832 1.5927963 10.623306 4.427994c2.8174744 2.8351898 4.4003296 6.680542 4.4003296 10.690117l0 0c0 8.349503 -6.7263184 15.118111 -15.023636 15.118111l0 0c-8.2973175 0 -15.023621 -6.768608 -15.023621 -15.118111z" fill-rule="evenodd"/><path stroke="#334455" stroke-width="4.0" stroke-linejoin="round" stroke-linecap="butt" d="m200.93895 77.32617l0 0c0 -8.349503 6.726303 -15.118111 15.023621 -15.118111l0 0c3.9845123 0 7.805832 1.5927963 10.623306 4.427994c2.8174744 2.8351898 4.4003296 6.680542 4.4003296 10.690117l0 0c0 8.349503 -6.7263184 15.118111 -15.023636 15.118111l0 0c-8.2973175 0 -15.023621 -6.768608 -15.023621 -15.118111z" fill-rule="evenodd"/><path fill="#334455" d="m156.85039 117.32284l48.881897 0l0 24.409447l-48.881897 0z" fill-rule="evenodd"/><path stroke="#334455" stroke-width="4.0" stroke-linejoin="round" stroke-linecap="butt" d="m156.85039 117.32284l48.881897 0l0 24.409447l-48.881897 0z" fill-rule="evenodd"/><path fill="#ffffff" d="m173.9645 134.32756l0 -1.140625l2.578125 -3.671875q0.046875 -0.0625 0.1875 -0.265625q0.15625 -0.21875 0.21875 -0.3125q0.078125 -0.09375 0.1875 -0.265625q0.109375 -0.1875 0.171875 -0.28125q0.0625 -0.109375 0.125 -0.25q0.09375 -0.21875 0.09375 -0.40625l0 -0.71875q0 -0.359375 -0.234375 -0.546875q-0.21875 -0.203125 -0.75 -0.203125q-0.53125 0 -0.765625 0.203125q-0.21875 0.1875 -0.21875 0.546875l0 1.453125l-1.46875 0l0 -1.40625q0 -2.125 2.421875 -2.125q1.203125 0 1.84375 0.5625q0.640625 0.546875 0.640625 1.5625l0 0.671875q0 0.515625 -0.3125 1.09375q-0.296875 0.578125 -0.984375 1.5625l-1.828125 2.609375l3.109375 0l0 1.328125l-5.015625 0zm8.4535675 0l-1.71875 0l0 -2.0l1.71875 0l0 2.0zm1.8090515 0l0 -1.140625l2.578125 -3.671875q0.046875 -0.0625 0.1875 -0.265625q0.15625 -0.21875 0.21875 -0.3125q0.078125 -0.09375 0.1875 -0.265625q0.109375 -0.1875 0.171875 -0.28125q0.0625 -0.109375 0.125 -0.25q0.09375 -0.21875 0.09375 -0.40625l0 -0.71875q0 -0.359375 -0.234375 -0.546875q-0.21875 -0.203125 -0.75 -0.203125q-0.53125 0 -0.765625 0.203125q-0.21875 0.1875 -0.21875 0.546875l0 1.453125l-1.46875 0l0 -1.40625q0 -2.125 2.421875 -2.125q1.203125 0 1.84375 0.5625q0.640625 0.546875 0.640625 1.5625l0 0.671875q0 0.515625 -0.3125 1.09375q-0.296875 0.578125 -0.984375 1.5625l-1.828125 2.609375l3.109375 0l0 1.328125l-5.015625 0z" fill-rule="nonzero"/><path fill="#ee3333" d="m354.21237 89.33441l15.417328 -26.677162l15.417328 26.677162z" fill-rule="evenodd"/><path stroke="#334455" stroke-width="4.0" stroke-linejoin="round" stroke-linecap="butt" d="m354.21237 89.33441l15.417328 -26.677162l15.417328 26.677162z" fill-rule="evenodd"/><path fill="#ee3333" d="m370.86072 78.74939l15.417328 -26.677162l15.417328 26.677162z" fill-rule="evenodd"/><path stroke="#334455" stroke-width="4.0" stroke-linejoin="round" stroke-linecap="butt" d="m370.86072 78.74939l15.417328 -26.677162l15.417328 26.677162z" fill-rule="evenodd"/><path fill="#ee3333" d="m368.00156 99.106705l15.417328 -26.67717l15.417297 26.67717z" fill-rule="evenodd"/><path stroke="#334455" stroke-width="4.0" stroke-linejoin="round" stroke-linecap="butt" d="m368.00156 99.106705l15.417328 -26.67717l15.417297 26.67717z" fill-rule="evenodd"/><path fill="#ffffff" d="m624.11304 75.59023l0 0c0 -29.405907 23.690125 -53.2441 52.91339 -53.2441l0 0c14.033508 0 27.492249 5.6096306 37.415405 15.594833c9.923218 9.985207 15.497986 23.52805 15.497986 37.649265l0 0c0 29.4059 -23.690125 53.244087 -52.91339 53.244087l0 0c-29.223267 0 -52.91339 -23.838188 -52.91339 -53.244087z" fill-rule="evenodd"/><path stroke="#334455" stroke-width="4.0" stroke-linejoin="round" stroke-linecap="butt" d="m624.11304 75.59023l0 0c0 -29.405907 23.690125 -53.2441 52.91339 -53.2441l0 0c14.033508 0 27.492249 5.6096306 37.415405 15.594833c9.923218 9.985207 15.497986 23.52805 15.497986 37.649265l0 0c0 29.4059 -23.690125 53.244087 -52.91339 53.244087l0 0c-29.223267 0 -52.91339 -23.838188 -52.91339 -53.244087z" fill-rule="evenodd"/><path fill="#000000" fill-opacity="0.0" d="m645.2598 62.034122l12.204712 -12.204727l12.204773 12.204727l-12.204773 12.204723z" fill-rule="evenodd"/><path stroke="#ee8800" stroke-width="4.0" stroke-linejoin="round" stroke-linecap="butt" d="m645.2598 62.034122l12.204712 -12.204727l12.204773 12.204727l-12.204773 12.204723z" fill-rule="evenodd"/><path fill="#000000" fill-opacity="0.0" d="m658.5136 62.034122l12.204712 -12.204727l12.204712 12.204727l-12.204712 12.204723z" fill-rule="evenodd"/><path stroke="#ee8800" stroke-width="4.0" stroke-linejoin="round" stroke-linecap="butt" d="m658.5136 62.034122l12.204712 -12.204727l12.204712 12.204727l-12.204712 12.204723z" fill-rule="evenodd"/><path fill="#000000" fill-opacity="0.0" d="m670.2362 88.94226l12.204712 -12.204727l12.204773 12.204727l-12.204773 12.20472z" fill-rule="evenodd"/><path stroke="#ee8800" stroke-width="4.0" stroke-linejoin="round" stroke-linecap="butt" d="m670.2362 88.94226l12.204712 -12.204727l12.204773 12.204727l-12.204773 12.20472z" fill-rule="evenodd"/><path fill="#000000" fill-opacity="0.0" d="m683.49 88.94226l12.204712 -12.204727l12.204712 12.204727l-12.204712 12.20472z" fill-rule="evenodd"/><path stroke="#ee8800" stroke-width="4.0" stroke-linejoin="round" stroke-linecap="butt" d="m683.49 88.94226l12.204712 -12.204727l12.204712 12.204727l-12.204712 12.20472z" fill-rule="evenodd"/><path fill="#ffffff" d="m491.15762 64.38345l0 0c0 -4.3732033 3.5532227 -7.9183884 7.9363403 -7.9183884l0 0c2.1048584 0 4.1235046 0.83425903 5.611847 2.3192444c1.4883728 1.4849854 2.324524 3.4990578 2.324524 5.599144l0 0c0 4.3731995 -3.5532227 7.9183807 -7.936371 7.9183807l0 0c-4.3831177 0 -7.9363403 -3.5451813 -7.9363403 -7.9183807z" fill-rule="evenodd"/><path stroke="#334455" stroke-width="4.0" stroke-linejoin="round" stroke-linecap="butt" d="m491.15762 64.38345l0 0c0 -4.3732033 3.5532227 -7.9183884 7.9363403 -7.9183884l0 0c2.1048584 0 4.1235046 0.83425903 5.611847 2.3192444c1.4883728 1.4849854 2.324524 3.4990578 2.324524 5.599144l0 0c0 4.3731995 -3.5532227 7.9183807 -7.936371 7.9183807l0 0c-4.3831177 0 -7.9363403 -3.5451813 -7.9363403 -7.9183807z" fill-rule="evenodd"/><path fill="#ffffff" d="m496.0567 73.02797l6.0745544 0l0 0c1.5068359 0 2.9519653 0.59858704 4.017456 1.6640778c1.0654907 1.0654907 1.6640625 2.5106125 1.6640625 4.017441l0 17.347008c0 8.392334E-5 -6.1035156E-5 1.449585E-4 -1.5258789E-4 1.449585E-4l-17.437439 -1.449585E-4l0 0c-9.1552734E-5 0 -1.5258789E-4 -6.1035156E-5 -1.5258789E-4 -1.449585E-4l1.5258789E-4 -17.346863l0 0c0 -3.1378174 2.5437012 -5.6815186 5.6815186 -5.6815186z" fill-rule="evenodd"/><path stroke="#334455" stroke-width="4.0" stroke-linejoin="round" stroke-linecap="butt" d="m496.0567 73.02797l6.0745544 0l0 0c1.5068359 0 2.9519653 0.59858704 4.017456 1.6640778c1.0654907 1.0654907 1.6640625 2.5106125 1.6640625 4.017441l0 17.347008c0 8.392334E-5 -6.1035156E-5 1.449585E-4 -1.5258789E-4 1.449585E-4l-17.437439 -1.449585E-4l0 0c-9.1552734E-5 0 -1.5258789E-4 -6.1035156E-5 -1.5258789E-4 -1.449585E-4l1.5258789E-4 -17.346863l0 0c0 -3.1378174 2.5437012 -5.6815186 5.6815186 -5.6815186z" fill-rule="evenodd"/><path fill="#ffffff" d="m465.3545 64.72991l0 0c0 -4.373207 3.5532227 -7.9183884 7.9363403 -7.9183884l0 0c2.1048584 0 4.123474 0.8342552 5.611847 2.3192406c1.4883423 1.4849854 2.3244934 3.4990578 2.3244934 5.599148l0 0c0 4.3731995 -3.5532227 7.9183807 -7.9363403 7.9183807l0 0c-4.3831177 0 -7.9363403 -3.5451813 -7.9363403 -7.9183807z" fill-rule="evenodd"/><path stroke="#334455" stroke-width="4.0" stroke-linejoin="round" stroke-linecap="butt" d="m465.3545 64.72991l0 0c0 -4.373207 3.5532227 -7.9183884 7.9363403 -7.9183884l0 0c2.1048584 0 4.123474 0.8342552 5.611847 2.3192406c1.4883423 1.4849854 2.3244934 3.4990578 2.3244934 5.599148l0 0c0 4.3731995 -3.5532227 7.9183807 -7.9363403 7.9183807l0 0c-4.3831177 0 -7.9363403 -3.5451813 -7.9363403 -7.9183807z" fill-rule="evenodd"/><path fill="#ffffff" d="m470.25354 73.37443l6.0745544 0l0 0c1.5068359 0 2.9519653 0.59858704 4.017456 1.6640778c1.0654907 1.0654907 1.664093 2.5106049 1.664093 4.017441l0 17.347008c0 7.6293945E-5 -9.1552734E-5 1.449585E-4 -1.5258789E-4 1.449585E-4l-17.43747 -1.449585E-4l0 0c-9.1552734E-5 0 -1.5258789E-4 -6.866455E-5 -1.5258789E-4 -1.449585E-4l1.5258789E-4 -17.346863l0 0c0 -3.1378174 2.5437012 -5.6815186 5.6815186 -5.6815186z" fill-rule="evenodd"/><path stroke="#334455" stroke-width="4.0" stroke-linejoin="round" stroke-linecap="butt" d="m470.25354 73.37443l6.0745544 0l0 0c1.5068359 0 2.9519653 0.59858704 4.017456 1.6640778c1.0654907 1.0654907 1.664093 2.5106049 1.664093 4.017441l0 17.347008c0 7.6293945E-5 -9.1552734E-5 1.449585E-4 -1.5258789E-4 1.449585E-4l-17.43747 -1.449585E-4l0 0c-9.1552734E-5 0 -1.5258789E-4 -6.866455E-5 -1.5258789E-4 -1.449585E-4l1.5258789E-4 -17.346863l0 0c0 -3.1378174 2.5437012 -5.6815186 5.6815186 -5.6815186z" fill-rule="evenodd"/><path fill="#ffffff" d="m479.81906 73.17348l0 0c0 -4.3731995 3.5532227 -7.9183884 7.9363403 -7.9183884l0 0c2.104828 0 4.123474 0.83425903 5.611847 2.3192444c1.4883423 1.4849854 2.3244934 3.4990616 2.3244934 5.599144l0 0c0 4.373207 -3.5532227 7.9183884 -7.9363403 7.9183884l0 0c-4.3831177 0 -7.9363403 -3.5451813 -7.9363403 -7.9183884z" fill-rule="evenodd"/><path stroke="#334455" stroke-width="4.0" stroke-linejoin="round" stroke-linecap="butt" d="m479.81906 73.17348l0 0c0 -4.3731995 3.5532227 -7.9183884 7.9363403 -7.9183884l0 0c2.104828 0 4.123474 0.83425903 5.611847 2.3192444c1.4883423 1.4849854 2.3244934 3.4990616 2.3244934 5.599144l0 0c0 4.373207 -3.5532227 7.9183884 -7.9363403 7.9183884l0 0c-4.3831177 0 -7.9363403 -3.5451813 -7.9363403 -7.9183884z" fill-rule="evenodd"/><path fill="#ffffff" d="m484.7181 81.81799l6.0745544 0l0 0c1.5068359 0 2.9519653 0.59858704 4.017456 1.6640778c1.0654907 1.0654907 1.6640625 2.5106125 1.6640625 4.017441l0 17.347015c0 7.6293945E-5 -6.1035156E-5 1.449585E-4 -1.2207031E-4 1.449585E-4l-17.43747 -1.449585E-4l0 0c-9.1552734E-5 0 -1.5258789E-4 -6.866455E-5 -1.5258789E-4 -1.5258789E-4l1.5258789E-4 -17.346863l0 0c0 -3.1378174 2.5437012 -5.6815186 5.6815186 -5.6815186z" fill-rule="evenodd"/><path stroke="#334455" stroke-width="4.0" stroke-linejoin="round" stroke-linecap="butt" d="m484.7181 81.81799l6.0745544 0l0 0c1.5068359 0 2.9519653 0.59858704 4.017456 1.6640778c1.0654907 1.0654907 1.6640625 2.5106125 1.6640625 4.017441l0 17.347015c0 7.6293945E-5 -6.1035156E-5 1.449585E-4 -1.2207031E-4 1.449585E-4l-17.43747 -1.449585E-4l0 0c-9.1552734E-5 0 -1.5258789E-4 -6.866455E-5 -1.5258789E-4 -1.5258789E-4l1.5258789E-4 -17.346863l0 0c0 -3.1378174 2.5437012 -5.6815186 5.6815186 -5.6815186z" fill-rule="evenodd"/><path fill="#334455" d="m599.0551 117.32284l48.881897 0l0 24.409447l-48.881897 0z" fill-rule="evenodd"/><path stroke="#334455" stroke-width="4.0" stroke-linejoin="round" stroke-linecap="butt" d="m599.0551 117.32284l48.881897 0l0 24.409447l-48.881897 0z" fill-rule="evenodd"/><path fill="#ffffff" d="m616.1692 134.32756l0 -1.140625l2.578125 -3.671875q0.046875 -0.0625 0.1875 -0.265625q0.15625 -0.21875 0.21875 -0.3125q0.078125 -0.09375 0.1875 -0.265625q0.109375 -0.1875 0.171875 -0.28125q0.0625 -0.109375 0.125 -0.25q0.09375 -0.21875 0.09375 -0.40625l0 -0.71875q0 -0.359375 -0.234375 -0.546875q-0.21875 -0.203125 -0.75 -0.203125q-0.53125 0 -0.765625 0.203125q-0.21875 0.1875 -0.21875 0.546875l0 1.453125l-1.46875 0l0 -1.40625q0 -2.125 2.421875 -2.125q1.203125 0 1.84375 0.5625q0.640625 0.546875 0.640625 1.5625l0 0.671875q0 0.515625 -0.3125 1.09375q-0.296875 0.578125 -0.984375 1.5625l-1.828125 2.609375l3.109375 0l0 1.328125l-5.015625 0zm8.453613 0l-1.71875 0l0 -2.0l1.71875 0l0 2.0zm3.355896 -7.859375l0 2.125l1.0625 0q1.140625 0 1.765625 0.609375q0.625 0.59375 0.625 1.59375l0 1.59375q0 2.140625 -2.53125 2.140625q-2.515625 0 -2.515625 -2.140625l0 -1.390625l1.46875 0l0 1.453125q0 0.34375 0.25 0.546875q0.25 0.203125 0.796875 0.203125q0.5625 0 0.8125 -0.203125q0.25 -0.203125 0.25 -0.546875l0 -1.65625q0 -0.3125 -0.25 -0.578125q-0.25 -0.28125 -0.671875 -0.28125l-2.515625 0l0 -4.796875l4.765625 0l0 1.328125l-3.3125 0z" fill-rule="nonzero"/></g></svg>