<svg version="1.1" viewBox="0.0 0.0 75.59055118110236 75.59055118110236" fill="none" stroke="none" stroke-linecap="square" stroke-miterlimit="10" xmlns:xlink="http://www.w3.org/1999/xlink" xmlns="http://www.w3.org/2000/svg"><clipPath id="p.0"><path d="m0 0l75.59055 0l0 75.59055l-75.59055 0l0 -75.59055z" clip-rule="nonzero"/></clipPath><g clip-path="url(#p.0)"><path fill="#000000" fill-opacity="0.0" d="m0 0l75.59055 0l0 75.59055l-75.59055 0z" fill-rule="evenodd"/><path fill="#ee3333" d="m5.905512 24.41267l18.680386 -18.680386l26.418756 0l18.680382 18.680386l0 26.765213l-18.680382 18.680386l-26.418756 0l-18.680386 -18.680386z" fill-rule="evenodd"/><path stroke="#334455" stroke-width="4.0" stroke-linejoin="round" stroke-linecap="butt" d="m5.905512 24.41267l18.680386 -18.680386l26.418756 0l18.680382 18.680386l0 26.765213l-18.680382 18.680386l-26.418756 0l-18.680386 -18.680386z" fill-rule="evenodd"/><path fill="#ffffff" d="m21.400826 18.458006l14.740158 0l0 9.669291l-14.740158 0z" fill-rule="evenodd"/><path stroke="#334455" stroke-width="3.0" stroke-linejoin="round" stroke-linecap="butt" d="m21.400826 18.458006l14.740158 0l0 9.669291l-14.740158 0z" fill-rule="evenodd"/><path fill="#ffffff" d="m43.22834 50.188976l3.4724426 0l0 -31.732283l6.9448814 0l0 31.732283l3.4724426 0l-6.9448814 6.9448814z" fill-rule="evenodd"/><path stroke="#334455" stroke-width="3.0" stroke-linejoin="round" stroke-linecap="butt" d="m43.22834 50.188976l3.4724426 0l0 -31.732283l6.9448814 0l0 31.732283l3.4724426 0l-6.9448814 6.9448814z" fill-rule="evenodd"/><path fill="#ffffff" d="m21.400826 28.125l14.740158 0l0 9.669292l-14.740158 0z" fill-rule="evenodd"/><path stroke="#334455" stroke-width="3.0" stroke-linejoin="round" stroke-linecap="butt" d="m21.400826 28.125l14.740158 0l0 9.669292l-14.740158 0z" fill-rule="evenodd"/><path fill="#ffffff" d="m21.400826 37.79331l14.740158 0l0 9.669289l-14.740158 0z" fill-rule="evenodd"/><path stroke="#334455" stroke-width="3.0" stroke-linejoin="round" stroke-linecap="butt" d="m21.400826 37.79331l14.740158 0l0 9.669289l-14.740158 0z" fill-rule="evenodd"/><path fill="#ffffff" d="m21.400826 47.462925l14.740158 0l0 9.669292l-14.740158 0z" fill-rule="evenodd"/><path stroke="#334455" stroke-width="3.0" stroke-linejoin="round" stroke-linecap="butt" d="m21.400826 47.462925l14.740158 0l0 9.669292l-14.740158 0z" fill-rule="evenodd"/></g></svg>