<svg version="1.1" viewBox="0.0 0.0 75.59055118110236 75.59055118110236" fill="none" stroke="none" stroke-linecap="square" stroke-miterlimit="10" xmlns:xlink="http://www.w3.org/1999/xlink" xmlns="http://www.w3.org/2000/svg"><clipPath id="p.0"><path d="m0 0l75.59055 0l0 75.59055l-75.59055 0l0 -75.59055z" clip-rule="nonzero"/></clipPath><g clip-path="url(#p.0)"><path fill="#000000" fill-opacity="0.0" d="m0 0l75.59055 0l0 75.59055l-75.59055 0z" fill-rule="evenodd"/><path fill="#ee3333" d="m5.905512 24.41267l18.680386 -18.680386l26.418756 0l18.680382 18.680386l0 26.765213l-18.680382 18.680386l-26.418756 0l-18.680386 -18.680386z" fill-rule="evenodd"/><path stroke="#334455" stroke-width="4.0" stroke-linejoin="round" stroke-linecap="butt" d="m5.905512 24.41267l18.680386 -18.680386l26.418756 0l18.680382 18.680386l0 26.765213l-18.680382 18.680386l-26.418756 0l-18.680386 -18.680386z" fill-rule="evenodd"/><path fill="#334455" d="m16.466818 28.843796l0.9770107 0l0 6.074459l-0.9770107 0z" fill-rule="evenodd"/><path stroke="#334455" stroke-width="4.0" stroke-linejoin="round" stroke-linecap="butt" d="m16.466818 28.843796l0.9770107 0l0 6.074459l-0.9770107 0z" fill-rule="evenodd"/><path fill="#334455" d="m16.466818 29.505016l0 0c0 -2.96418 1.6705017 -5.6975155 4.368988 -7.148697c2.6984863 -1.4511814 6.004652 -1.3941765 8.64686 0.1490879c2.642208 1.5432644 4.2089195 4.3324165 4.097538 7.294676l-0.94799423 -0.032701492c0.0995903 -2.6196785 -1.2931728 -5.086525 -3.6425362 -6.45162c-2.3493652 -1.3650932 -5.2893543 -1.4157848 -7.689041 -0.13257217c-2.3996887 1.2832108 -3.8852596 3.70043 -3.8852596 6.321827z" fill-rule="evenodd"/><path stroke="#334455" stroke-width="4.0" stroke-linejoin="round" stroke-linecap="butt" d="m16.466818 29.505016l0 0c0 -2.96418 1.6705017 -5.6975155 4.368988 -7.148697c2.6984863 -1.4511814 6.004652 -1.3941765 8.64686 0.1490879c2.642208 1.5432644 4.2089195 4.3324165 4.097538 7.294676l-0.94799423 -0.032701492c0.0995903 -2.6196785 -1.2931728 -5.086525 -3.6425362 -6.45162c-2.3493652 -1.3650932 -5.2893543 -1.4157848 -7.689041 -0.13257217c-2.3996887 1.2832108 -3.8852596 3.70043 -3.8852596 6.321827z" fill-rule="evenodd"/><path fill="#334455" d="m17.36755 29.57484l0 0c0 -3.993456 3.4220295 -7.2333755 7.6496944 -7.242605c4.227665 -0.009227753 7.66551 3.2157173 7.685049 7.2091312l0 0c-0.01953888 -3.993414 -3.457384 -7.218359 -7.685049 -7.2091312c-4.227665 0.00922966 -7.6496944 3.2491493 -7.6496944 7.242605z" fill-rule="evenodd"/><path fill="#334455" d="m32.617844 29.72548l0.97701263 0l0 5.05497l-0.97701263 0z" fill-rule="evenodd"/><path stroke="#334455" stroke-width="4.0" stroke-linejoin="round" stroke-linecap="butt" d="m32.617844 29.72548l0.97701263 0l0 5.05497l-0.97701263 0z" fill-rule="evenodd"/><path fill="#ffffff" d="m13.5161915 32.73825l22.980997 0l0 18.605686l-22.980997 0z" fill-rule="evenodd"/><path stroke="#334455" stroke-width="3.0" stroke-linejoin="round" stroke-linecap="butt" d="m13.5161915 32.73825l22.980997 0l0 18.605686l-22.980997 0z" fill-rule="evenodd"/><path fill="#334455" d="m23.39683 41.802197l3.251152 0l0 5.0630417l-3.251152 0z" fill-rule="evenodd"/><path stroke="#334455" stroke-width="2.0" stroke-linejoin="round" stroke-linecap="butt" d="m23.39683 41.802197l3.251152 0l0 5.0630417l-3.251152 0z" fill-rule="evenodd"/><path fill="#334455" d="m22.231915 39.949997l0 0c0 -1.5099716 1.249382 -2.7340431 2.7905731 -2.7340431l0 0c0.7401066 0 1.4498997 0.2880516 1.9732323 0.80078125c0.5233345 0.51273346 0.81734085 1.208149 0.81734085 1.9332619l0 0c0 1.5099678 -1.249382 2.7340393 -2.7905731 2.7340393l0 0c-1.5411911 0 -2.7905731 -1.2240715 -2.7905731 -2.7340393z" fill-rule="evenodd"/><path stroke="#334455" stroke-width="2.0" stroke-linejoin="round" stroke-linecap="butt" d="m22.231915 39.949997l0 0c0 -1.5099716 1.249382 -2.7340431 2.7905731 -2.7340431l0 0c0.7401066 0 1.4498997 0.2880516 1.9732323 0.80078125c0.5233345 0.51273346 0.81734085 1.208149 0.81734085 1.9332619l0 0c0 1.5099678 -1.249382 2.7340393 -2.7905731 2.7340393l0 0c-1.5411911 0 -2.7905731 -1.2240715 -2.7905731 -2.7340393z" fill-rule="evenodd"/><path fill="#ffffff" d="m31.001944 38.40939l10.863329 -11.339474l10.863327 11.339474l-10.863327 11.33947z" fill-rule="evenodd"/><path stroke="#334455" stroke-width="3.0" stroke-linejoin="round" stroke-linecap="butt" d="m31.001944 38.40939l10.863329 -11.339474l10.863327 11.339474l-10.863327 11.33947z" fill-rule="evenodd"/><path fill="#ffffff" d="m42.79902 38.40939l10.863327 -11.339474l10.863327 11.339474l-10.863327 11.33947z" fill-rule="evenodd"/><path stroke="#334455" stroke-width="3.0" stroke-linejoin="round" stroke-linecap="butt" d="m42.79902 38.40939l10.863327 -11.339474l10.863327 11.339474l-10.863327 11.33947z" fill-rule="evenodd"/><path fill="#ffffff" d="m42.468414 38.397488l5.2747765 -5.503742l5.2747803 5.503742l-5.2747803 5.503742z" fill-rule="evenodd"/><path stroke="#334455" stroke-width="3.0" stroke-linejoin="round" stroke-linecap="butt" d="m42.468414 38.397488l5.2747765 -5.503742l5.2747803 5.503742l-5.2747803 5.503742z" fill-rule="evenodd"/></g></svg>