<svg version="1.1" viewBox="0.0 0.0 75.59055118110236 75.59055118110236" fill="none" stroke="none" stroke-linecap="square" stroke-miterlimit="10" xmlns:xlink="http://www.w3.org/1999/xlink" xmlns="http://www.w3.org/2000/svg"><clipPath id="p.0"><path d="m0 0l75.59055 0l0 75.59055l-75.59055 0l0 -75.59055z" clip-rule="nonzero"/></clipPath><g clip-path="url(#p.0)"><path fill="#000000" fill-opacity="0.0" d="m0 0l75.59055 0l0 75.59055l-75.59055 0z" fill-rule="evenodd"/><path fill="#ee3333" d="m5.905512 24.41267l18.680386 -18.680386l26.418756 0l18.680382 18.680386l0 26.765213l-18.680382 18.680386l-26.418756 0l-18.680386 -18.680386z" fill-rule="evenodd"/><path stroke="#334455" stroke-width="4.0" stroke-linejoin="round" stroke-linecap="butt" d="m5.905512 24.41267l18.680386 -18.680386l26.418756 0l18.680382 18.680386l0 26.765213l-18.680382 18.680386l-26.418756 0l-18.680386 -18.680386z" fill-rule="evenodd"/><path fill="#ffffff" d="m19.118048 37.795273l0 0c0 -10.315113 8.362053 -18.677164 18.677168 -18.677164l0 0c4.953491 0 9.704102 1.9677658 13.206749 5.470415c3.5026474 3.5026474 5.470413 8.253258 5.470413 13.206749l0 0c0 10.315113 -8.362049 18.677166 -18.677162 18.677166l0 0c-10.315115 0 -18.677168 -8.362053 -18.677168 -18.677166z" fill-rule="evenodd"/><path stroke="#334455" stroke-width="3.0" stroke-linejoin="round" stroke-linecap="butt" d="m19.118048 37.795273l0 0c0 -10.315113 8.362053 -18.677164 18.677168 -18.677164l0 0c4.953491 0 9.704102 1.9677658 13.206749 5.470415c3.5026474 3.5026474 5.470413 8.253258 5.470413 13.206749l0 0c0 10.315113 -8.362049 18.677166 -18.677162 18.677166l0 0c-10.315115 0 -18.677168 -8.362053 -18.677168 -18.677166z" fill-rule="evenodd"/><path fill="#ffffff" d="m17.85224 31.169113l0 0c0 -3.1408272 2.5196953 -5.6869698 5.6278954 -5.6869698l0 0c1.4926109 0 2.9240875 0.59916115 3.9795246 1.6656761c1.0554352 1.0665131 1.6483707 2.5130157 1.6483707 4.0212936l0 0c0 3.1408272 -2.5196934 5.6869698 -5.6278954 5.6869698l0 0c-3.1082 0 -5.6278954 -2.5461426 -5.6278954 -5.6869698z" fill-rule="evenodd"/><path stroke="#334455" stroke-width="3.0" stroke-linejoin="round" stroke-linecap="butt" d="m17.85224 31.169113l0 0c0 -3.1408272 2.5196953 -5.6869698 5.6278954 -5.6869698l0 0c1.4926109 0 2.9240875 0.59916115 3.9795246 1.6656761c1.0554352 1.0665131 1.6483707 2.5130157 1.6483707 4.0212936l0 0c0 3.1408272 -2.5196934 5.6869698 -5.6278954 5.6869698l0 0c-3.1082 0 -5.6278954 -2.5461426 -5.6278954 -5.6869698z" fill-rule="evenodd"/><path fill="#ffffff" d="m21.32631 37.377586l4.3076515 0l0 0c1.0685406 0 2.0933151 0.42447662 2.8488865 1.1800461c0.75557137 0.7555733 1.1800461 1.7803459 1.1800461 2.8488884l0 12.510109c0 5.722046E-5 -4.5776367E-5 1.02996826E-4 -1.02996826E-4 1.02996826E-4l-12.365414 -1.02996826E-4l0 0c-5.722046E-5 0 -1.02996826E-4 -4.5776367E-5 -1.02996826E-4 -1.02996826E-4l1.02996826E-4 -12.510006l0 0c0 -2.2251205 1.8038139 -4.0289345 4.0289326 -4.0289345z" fill-rule="evenodd"/><path stroke="#334455" stroke-width="4.0" stroke-linejoin="round" stroke-linecap="butt" d="m21.32631 37.377586l4.3076515 0l0 0c1.0685406 0 2.0933151 0.42447662 2.8488865 1.1800461c0.75557137 0.7555733 1.1800461 1.7803459 1.1800461 2.8488884l0 12.510109c0 5.722046E-5 -4.5776367E-5 1.02996826E-4 -1.02996826E-4 1.02996826E-4l-12.365414 -1.02996826E-4l0 0c-5.722046E-5 0 -1.02996826E-4 -4.5776367E-5 -1.02996826E-4 -1.02996826E-4l1.02996826E-4 -12.510006l0 0c0 -2.2251205 1.8038139 -4.0289345 4.0289326 -4.0289345z" fill-rule="evenodd"/><path fill="#ffffff" d="m47.45329 31.169113l0 0c0 -3.1408272 2.5196953 -5.6869698 5.6278954 -5.6869698l0 0c1.4926109 0 2.9240875 0.59916115 3.9795227 1.6656761c1.0554352 1.0665131 1.6483727 2.5130157 1.6483727 4.0212936l0 0c0 3.1408272 -2.5196953 5.6869698 -5.6278954 5.6869698l0 0c-3.1082 0 -5.6278954 -2.5461426 -5.6278954 -5.6869698z" fill-rule="evenodd"/><path stroke="#334455" stroke-width="3.0" stroke-linejoin="round" stroke-linecap="butt" d="m47.45329 31.169113l0 0c0 -3.1408272 2.5196953 -5.6869698 5.6278954 -5.6869698l0 0c1.4926109 0 2.9240875 0.59916115 3.9795227 1.6656761c1.0554352 1.0665131 1.6483727 2.5130157 1.6483727 4.0212936l0 0c0 3.1408272 -2.5196953 5.6869698 -5.6278954 5.6869698l0 0c-3.1082 0 -5.6278954 -2.5461426 -5.6278954 -5.6869698z" fill-rule="evenodd"/><path fill="#ffffff" d="m50.92736 37.377586l4.3076515 0l0 0c1.0685387 0 2.0933151 0.42447662 2.8488846 1.1800461c0.7555733 0.7555733 1.1800461 1.7803459 1.1800461 2.8488884l0 12.510109c0 5.722046E-5 -4.5776367E-5 1.02996826E-4 -1.02996826E-4 1.02996826E-4l-12.365414 -1.02996826E-4l0 0c-5.722046E-5 0 -1.02996826E-4 -4.5776367E-5 -1.02996826E-4 -1.02996826E-4l1.02996826E-4 -12.510006l0 0c0 -2.2251205 1.8038139 -4.0289345 4.0289345 -4.0289345z" fill-rule="evenodd"/><path stroke="#334455" stroke-width="4.0" stroke-linejoin="round" stroke-linecap="butt" d="m50.92736 37.377586l4.3076515 0l0 0c1.0685387 0 2.0933151 0.42447662 2.8488846 1.1800461c0.7555733 0.7555733 1.1800461 1.7803459 1.1800461 2.8488884l0 12.510109c0 5.722046E-5 -4.5776367E-5 1.02996826E-4 -1.02996826E-4 1.02996826E-4l-12.365414 -1.02996826E-4l0 0c-5.722046E-5 0 -1.02996826E-4 -4.5776367E-5 -1.02996826E-4 -1.02996826E-4l1.02996826E-4 -12.510006l0 0c0 -2.2251205 1.8038139 -4.0289345 4.0289345 -4.0289345z" fill-rule="evenodd"/></g></svg>