<svg version="1.1" viewBox="0.0 0.0 75.59055118110236 75.59055118110236" fill="none" stroke="none" stroke-linecap="square" stroke-miterlimit="10" xmlns:xlink="http://www.w3.org/1999/xlink" xmlns="http://www.w3.org/2000/svg"><clipPath id="p.0"><path d="m0 0l75.59055 0l0 75.59055l-75.59055 0l0 -75.59055z" clip-rule="nonzero"/></clipPath><g clip-path="url(#p.0)"><path fill="#000000" fill-opacity="0.0" d="m0 0l75.59055 0l0 75.59055l-75.59055 0z" fill-rule="evenodd"/><path fill="#ee3333" d="m5.905512 24.41267l18.680386 -18.680386l26.418756 0l18.680382 18.680386l0 26.765213l-18.680382 18.680386l-26.418756 0l-18.680386 -18.680386z" fill-rule="evenodd"/><path stroke="#334455" stroke-width="4.0" stroke-linejoin="round" stroke-linecap="butt" d="m5.905512 24.41267l18.680386 -18.680386l26.418756 0l18.680382 18.680386l0 26.765213l-18.680382 18.680386l-26.418756 0l-18.680386 -18.680386z" fill-rule="evenodd"/><path fill="#ffffff" d="m25.85262 22.895996l23.885532 0l0 29.799255l-23.885532 0z" fill-rule="evenodd"/><path stroke="#334455" stroke-width="3.0" stroke-linejoin="round" stroke-linecap="butt" d="m25.85262 22.895996l23.885532 0l0 29.799255l-23.885532 0z" fill-rule="evenodd"/><path fill="#ffffff" d="m17.001633 54.837284l8.851385 -2.2128448l0 -29.658855l-8.851385 -2.2128468z" fill-rule="evenodd"/><path stroke="#334455" stroke-width="3.0" stroke-linejoin="round" stroke-linecap="butt" d="m17.001633 54.837284l8.851385 -2.2128448l0 -29.658855l-8.851385 -2.2128468z" fill-rule="evenodd"/><path fill="#ffffff" d="m58.587925 20.75592l-8.850391 2.2125988l0 29.653543l8.850391 2.212597z" fill-rule="evenodd"/><path stroke="#334455" stroke-width="3.0" stroke-linejoin="round" stroke-linecap="butt" d="m58.587925 20.75592l-8.850391 2.2125988l0 29.653543l8.850391 2.212597z" fill-rule="evenodd"/><path fill="#000000" fill-opacity="0.0" d="m17.001633 37.79501l8.850393 0" fill-rule="evenodd"/><path stroke="#334455" stroke-width="3.0" stroke-linejoin="round" stroke-linecap="butt" d="m17.001633 37.79501l8.850393 0" fill-rule="evenodd"/><path fill="#000000" fill-opacity="0.0" d="m49.73654 37.79501l8.850391 0" fill-rule="evenodd"/><path stroke="#334455" stroke-width="3.0" stroke-linejoin="round" stroke-linecap="butt" d="m49.73654 37.79501l8.850391 0" fill-rule="evenodd"/></g></svg>