<svg version="1.1" viewBox="0.0 0.0 75.59055118110236 75.59055118110236" fill="none" stroke="none" stroke-linecap="square" stroke-miterlimit="10" xmlns:xlink="http://www.w3.org/1999/xlink" xmlns="http://www.w3.org/2000/svg"><clipPath id="p.0"><path d="m0 0l75.59055 0l0 75.59055l-75.59055 0l0 -75.59055z" clip-rule="nonzero"/></clipPath><g clip-path="url(#p.0)"><path fill="#000000" fill-opacity="0.0" d="m0 0l75.59055 0l0 75.59055l-75.59055 0z" fill-rule="evenodd"/><path fill="#ee3333" d="m5.905512 24.41267l18.680386 -18.680386l26.418756 0l18.680382 18.680386l0 26.765213l-18.680382 18.680386l-26.418756 0l-18.680386 -18.680386z" fill-rule="evenodd"/><path stroke="#334455" stroke-width="4.0" stroke-linejoin="round" stroke-linecap="butt" d="m5.905512 24.41267l18.680386 -18.680386l26.418756 0l18.680382 18.680386l0 26.765213l-18.680382 18.680386l-26.418756 0l-18.680386 -18.680386z" fill-rule="evenodd"/><path fill="#ffffff" d="m19.118048 37.795273l0 0c0 -10.315113 8.362053 -18.677164 18.677168 -18.677164l0 0c4.953491 0 9.704102 1.9677658 13.206749 5.470415c3.5026474 3.5026474 5.470413 8.253258 5.470413 13.206749l0 0c0 10.315113 -8.362049 18.677166 -18.677162 18.677166l0 0c-10.315115 0 -18.677168 -8.362053 -18.677168 -18.677166z" fill-rule="evenodd"/><path stroke="#334455" stroke-width="3.0" stroke-linejoin="round" stroke-linecap="butt" d="m19.118048 37.795273l0 0c0 -10.315113 8.362053 -18.677164 18.677168 -18.677164l0 0c4.953491 0 9.704102 1.9677658 13.206749 5.470415c3.5026474 3.5026474 5.470413 8.253258 5.470413 13.206749l0 0c0 10.315113 -8.362049 18.677166 -18.677162 18.677166l0 0c-10.315115 0 -18.677168 -8.362053 -18.677168 -18.677166z" fill-rule="evenodd"/><path fill="#ffffff" d="m39.060505 34.325428l-11.335945 28.553745l26.450542 -25.818192z" fill-rule="evenodd"/><path stroke="#334455" stroke-width="3.0" stroke-linejoin="round" stroke-linecap="butt" d="m39.060505 34.325428l-11.335945 28.553745l26.450542 -25.818192z" fill-rule="evenodd"/><path fill="#ffffff" d="m36.52986 41.265553l11.335945 -28.553745l-26.45054 25.818192z" fill-rule="evenodd"/><path stroke="#334455" stroke-width="3.0" stroke-linejoin="round" stroke-linecap="butt" d="m36.52986 41.265553l11.335945 -28.553745l-26.45054 25.818192z" fill-rule="evenodd"/><path fill="#ffffff" d="m38.736687 39.05991l4.125984 1.6692924l-1.4803123 3.937008l-4.125984 -1.6692924z" fill-rule="evenodd"/><path fill="#ffffff" d="m35.352356 35.267776l4.3779526 0.81889725l-0.75590515 4.125984l-4.3779526 -0.81889725z" fill-rule="evenodd"/><path fill="#ffffff" d="m37.04517 35.50473l4.3464546 0.7873993l-0.40944672 2.3937035l-4.3464584 -0.7874031z" fill-rule="evenodd"/></g></svg>