<svg version="1.1" viewBox="0.0 0.0 75.59055118110236 75.59055118110236" fill="none" stroke="none" stroke-linecap="square" stroke-miterlimit="10" xmlns:xlink="http://www.w3.org/1999/xlink" xmlns="http://www.w3.org/2000/svg"><clipPath id="p.0"><path d="m0 0l75.59055 0l0 75.59055l-75.59055 0l0 -75.59055z" clip-rule="nonzero"/></clipPath><g clip-path="url(#p.0)"><path fill="#000000" fill-opacity="0.0" d="m0 0l75.59055 0l0 75.59055l-75.59055 0z" fill-rule="evenodd"/><path fill="#00aa66" d="m5.905512 24.41267l18.680386 -18.680386l26.418756 0l18.680382 18.680386l0 26.765213l-18.680382 18.680386l-26.418756 0l-18.680386 -18.680386z" fill-rule="evenodd"/><path stroke="#334455" stroke-width="4.0" stroke-linejoin="round" stroke-linecap="butt" d="m5.905512 24.41267l18.680386 -18.680386l26.418756 0l18.680382 18.680386l0 26.765213l-18.680382 18.680386l-26.418756 0l-18.680386 -18.680386z" fill-rule="evenodd"/><path fill="#ffffff" d="m21.297878 19.15731l27.002014 0l0 35.44548l-27.002014 0z" fill-rule="evenodd"/><path stroke="#334455" stroke-width="3.0" stroke-linejoin="round" stroke-linecap="butt" d="m21.297878 19.15731l27.002014 0l0 35.44548l-27.002014 0z" fill-rule="evenodd"/><path fill="#ffffff" d="m35.273235 59.462444l0.04045105 -36.61715l-13.74242 -3.6883793l-0.04045105 36.61715z" fill-rule="evenodd"/><path stroke="#334455" stroke-width="3.0" stroke-linejoin="round" stroke-linecap="butt" d="m35.273235 59.462444l0.04045105 -36.61715l-13.74242 -3.6883793l-0.04045105 36.61715z" fill-rule="evenodd"/><path fill="#ffffff" d="m41.143044 32.51181l12.031498 0l0 -5.0078735l10.015747 10.015747l-10.015747 10.015751l0 -5.0078773l-12.031498 0z" fill-rule="evenodd"/><path stroke="#334455" stroke-width="3.0" stroke-linejoin="round" stroke-linecap="butt" d="m41.143044 32.51181l12.031498 0l0 -5.0078735l10.015747 10.015747l-10.015747 10.015751l0 -5.0078773l-12.031498 0z" fill-rule="evenodd"/></g></svg>