<svg version="1.1" viewBox="0.0 0.0 75.59055118110236 75.59055118110236" fill="none" stroke="none" stroke-linecap="square" stroke-miterlimit="10" xmlns:xlink="http://www.w3.org/1999/xlink" xmlns="http://www.w3.org/2000/svg"><clipPath id="p.0"><path d="m0 0l75.59055 0l0 75.59055l-75.59055 0l0 -75.59055z" clip-rule="nonzero"/></clipPath><g clip-path="url(#p.0)"><path fill="#000000" fill-opacity="0.0" d="m0 0l75.59055 0l0 75.59055l-75.59055 0z" fill-rule="evenodd"/><path fill="#00aa66" d="m5.905512 24.41267l18.680386 -18.680386l26.418756 0l18.680382 18.680386l0 26.765213l-18.680382 18.680386l-26.418756 0l-18.680386 -18.680386z" fill-rule="evenodd"/><path stroke="#334455" stroke-width="4.0" stroke-linejoin="round" stroke-linecap="butt" d="m5.905512 24.41267l18.680386 -18.680386l26.418756 0l18.680382 18.680386l0 26.765213l-18.680382 18.680386l-26.418756 0l-18.680386 -18.680386z" fill-rule="evenodd"/><path fill="#ffffff" d="m25.894611 45.60365l4.09037 4.09037l-6.1917915 4.555641l-2.4542217 -2.4542198z" fill-rule="evenodd"/><path stroke="#334455" stroke-width="2.0" stroke-linejoin="round" stroke-linecap="butt" d="m25.894611 45.60365l4.09037 4.09037l-6.1917915 4.555641l-2.4542217 -2.4542198z" fill-rule="evenodd"/><path fill="#ffffff" d="m19.23768 52.250847l0 0c1.131588 -1.131588 2.9662533 -1.131588 4.0978394 0l0 0c0.54340744 0.54340744 0.84869194 1.280426 0.84869194 2.0489197c0 0.76849365 -0.3052845 1.5055122 -0.84869194 2.0489197l0 0c-1.1315861 1.131588 -2.9662514 1.131588 -4.0978394 0l0 0c-1.1315861 -1.131588 -1.1315861 -2.9662514 0 -4.0978394z" fill-rule="evenodd"/><path stroke="#334455" stroke-width="2.0" stroke-linejoin="round" stroke-linecap="butt" d="m19.23768 52.250847l0 0c1.131588 -1.131588 2.9662533 -1.131588 4.0978394 0l0 0c0.54340744 0.54340744 0.84869194 1.280426 0.84869194 2.0489197c0 0.76849365 -0.3052845 1.5055122 -0.84869194 2.0489197l0 0c-1.1315861 1.131588 -2.9662514 1.131588 -4.0978394 0l0 0c-1.1315861 -1.131588 -1.1315861 -2.9662514 0 -4.0978394z" fill-rule="evenodd"/><path fill="#ffffff" d="m28.944899 42.2098l20.454504 -20.454504l6.9497986 -2.5178967l-2.5178986 6.9498005l-20.454502 20.4545z" fill-rule="evenodd"/><path stroke="#334455" stroke-width="2.0" stroke-linejoin="round" stroke-linecap="butt" d="m28.944899 42.2098l20.454504 -20.454504l6.9497986 -2.5178967l-2.5178986 6.9498005l-20.454502 20.4545z" fill-rule="evenodd"/><path fill="#ffffff" d="m34.086655 53.79292l-12.290136 -12.287716l2.9909859 -2.9905777l6.8928146 5.3962097l5.3973217 6.8915024z" fill-rule="evenodd"/><path stroke="#334455" stroke-width="2.0" stroke-linejoin="round" stroke-linecap="butt" d="m34.086655 53.79292l-12.290136 -12.287716l2.9909859 -2.9905777l6.8928146 5.3962097l5.3973217 6.8915024z" fill-rule="evenodd"/><path fill="#ffffff" d="m45.604046 49.69629l4.09037 -4.09037l4.555641 6.1917915l-2.4542198 2.4542236z" fill-rule="evenodd"/><path stroke="#334455" stroke-width="2.0" stroke-linejoin="round" stroke-linecap="butt" d="m45.604046 49.69629l4.09037 -4.09037l4.555641 6.1917915l-2.4542198 2.4542236z" fill-rule="evenodd"/><path fill="#ffffff" d="m52.251244 56.35322l0 0c-1.131588 -1.131588 -1.131588 -2.9662552 0 -4.0978394l0 0c0.54340744 -0.54340744 1.280426 -0.84869003 2.0489197 -0.84869003c0.76849365 0 1.5055122 0.3052826 2.0489197 0.84869003l0 0c1.131588 1.1315842 1.131588 2.9662514 0 4.0978394l0 0c-1.131588 1.1315842 -2.9662514 1.1315842 -4.0978394 0z" fill-rule="evenodd"/><path stroke="#334455" stroke-width="2.0" stroke-linejoin="round" stroke-linecap="butt" d="m52.251244 56.35322l0 0c-1.131588 -1.131588 -1.131588 -2.9662552 0 -4.0978394l0 0c0.54340744 -0.54340744 1.280426 -0.84869003 2.0489197 -0.84869003c0.76849365 0 1.5055122 0.3052826 2.0489197 0.84869003l0 0c1.131588 1.1315842 1.131588 2.9662514 0 4.0978394l0 0c-1.131588 1.1315842 -2.9662514 1.1315842 -4.0978394 0z" fill-rule="evenodd"/><path fill="#ffffff" d="m42.210197 46.646004l-20.454504 -20.454502l-2.5178967 -6.9498005l6.9498005 2.5178986l20.4545 20.4545z" fill-rule="evenodd"/><path stroke="#334455" stroke-width="2.0" stroke-linejoin="round" stroke-linecap="butt" d="m42.210197 46.646004l-20.454504 -20.454502l-2.5178967 -6.9498005l6.9498005 2.5178986l20.4545 20.4545z" fill-rule="evenodd"/><path fill="#ffffff" d="m53.793316 41.504246l-12.287712 12.290138l-2.9905815 -2.9909859l5.3962135 -6.8928146l6.8914986 -5.3973236z" fill-rule="evenodd"/><path stroke="#334455" stroke-width="2.0" stroke-linejoin="round" stroke-linecap="butt" d="m53.793316 41.504246l-12.287712 12.290138l-2.9905815 -2.9909859l5.3962135 -6.8928146l6.8914986 -5.3973236z" fill-rule="evenodd"/></g></svg>