<svg version="1.1" viewBox="0.0 0.0 75.59055118110236 75.59055118110236" fill="none" stroke="none" stroke-linecap="square" stroke-miterlimit="10" xmlns:xlink="http://www.w3.org/1999/xlink" xmlns="http://www.w3.org/2000/svg"><clipPath id="p.0"><path d="m0 0l75.59055 0l0 75.59055l-75.59055 0l0 -75.59055z" clip-rule="nonzero"/></clipPath><g clip-path="url(#p.0)"><path fill="#000000" fill-opacity="0.0" d="m0 0l75.59055 0l0 75.59055l-75.59055 0z" fill-rule="evenodd"/><path fill="#00aa66" d="m5.905512 24.41267l18.680386 -18.680386l26.418756 0l18.680382 18.680386l0 26.765213l-18.680382 18.680386l-26.418756 0l-18.680386 -18.680386z" fill-rule="evenodd"/><path stroke="#334455" stroke-width="4.0" stroke-linejoin="round" stroke-linecap="butt" d="m5.905512 24.41267l18.680386 -18.680386l26.418756 0l18.680382 18.680386l0 26.765213l-18.680382 18.680386l-26.418756 0l-18.680386 -18.680386z" fill-rule="evenodd"/><path fill="#ffffff" d="m30.286444 53.84433l12.393702 -23.244093l12.3937 23.244093z" fill-rule="evenodd"/><path stroke="#334455" stroke-width="3.0" stroke-linejoin="round" stroke-linecap="butt" d="m30.286444 53.84433l12.393702 -23.244093l12.3937 23.244093z" fill-rule="evenodd"/><path fill="#ffffff" d="m37.51959 40.57051l5.1496086 -9.700787l5.149605 9.700787z" fill-rule="evenodd"/><path stroke="#334455" stroke-width="3.0" stroke-linejoin="round" stroke-linecap="butt" d="m37.51959 40.57051l5.1496086 -9.700787l5.149605 9.700787z" fill-rule="evenodd"/><path fill="#ffffff" d="m18.028717 53.83661l14.346455 -29.858267l14.346458 29.858267z" fill-rule="evenodd"/><path stroke="#334455" stroke-width="3.0" stroke-linejoin="round" stroke-linecap="butt" d="m18.028717 53.83661l14.346455 -29.858267l14.346458 29.858267z" fill-rule="evenodd"/><path fill="#ffffff" d="m26.400257 36.765568l5.968506 -12.440945l5.968502 12.440945z" fill-rule="evenodd"/><path stroke="#334455" stroke-width="3.0" stroke-linejoin="round" stroke-linecap="butt" d="m26.400257 36.765568l5.968506 -12.440945l5.968502 12.440945z" fill-rule="evenodd"/><path fill="#ffffff" d="m43.60996 22.810932l0 0c0 -3.1484585 2.55233 -5.7007866 5.7007866 -5.7007866l0 0c1.5119438 0 2.9619637 0.60061646 4.031067 1.6697216c1.0691032 1.0691051 1.6697235 2.519123 1.6697235 4.031065l0 0c0 3.1484585 -2.55233 5.7007885 -5.7007904 5.7007885l0 0c-3.1484566 0 -5.7007866 -2.55233 -5.7007866 -5.7007885z" fill-rule="evenodd"/><path stroke="#334455" stroke-width="3.0" stroke-linejoin="round" stroke-linecap="butt" d="m43.60996 22.810932l0 0c0 -3.1484585 2.55233 -5.7007866 5.7007866 -5.7007866l0 0c1.5119438 0 2.9619637 0.60061646 4.031067 1.6697216c1.0691032 1.0691051 1.6697235 2.519123 1.6697235 4.031065l0 0c0 3.1484585 -2.55233 5.7007885 -5.7007904 5.7007885l0 0c-3.1484566 0 -5.7007866 -2.55233 -5.7007866 -5.7007885z" fill-rule="evenodd"/></g></svg>