<svg version="1.1" viewBox="0.0 0.0 75.59055118110236 75.59055118110236" fill="none" stroke="none" stroke-linecap="square" stroke-miterlimit="10" xmlns:xlink="http://www.w3.org/1999/xlink" xmlns="http://www.w3.org/2000/svg"><clipPath id="p.0"><path d="m0 0l75.59055 0l0 75.59055l-75.59055 0l0 -75.59055z" clip-rule="nonzero"/></clipPath><g clip-path="url(#p.0)"><path fill="#000000" fill-opacity="0.0" d="m0 0l75.59055 0l0 75.59055l-75.59055 0z" fill-rule="evenodd"/><path fill="#0077ff" d="m9.228347 37.795277l0 0c0 -15.777081 12.789849 -28.566929 28.566929 -28.566929l0 0c7.57642 0 14.842529 3.0097208 20.199867 8.367059c5.357338 5.35734 8.367062 12.623449 8.367062 20.199871l0 0c0 15.777077 -12.789852 28.566929 -28.566929 28.566929l0 0c-15.777081 0 -28.566929 -12.789852 -28.566929 -28.566929z" fill-rule="evenodd"/><path stroke="#334455" stroke-width="4.0" stroke-linejoin="round" stroke-linecap="butt" d="m9.228347 37.795277l0 0c0 -15.777081 12.789849 -28.566929 28.566929 -28.566929l0 0c7.57642 0 14.842529 3.0097208 20.199867 8.367059c5.357338 5.35734 8.367062 12.623449 8.367062 20.199871l0 0c0 15.777077 -12.789852 28.566929 -28.566929 28.566929l0 0c-15.777081 0 -28.566929 -12.789852 -28.566929 -28.566929z" fill-rule="evenodd"/><path fill="#000000" fill-opacity="0.0" d="m11.144357 11.149607l53.291336 0l0 53.291344l-53.291336 0z" fill-rule="evenodd"/><path fill="#ffffff" d="m37.95692 53.53527l-4.890625 0l0 -30.406248l13.906246 0l0 4.453125l-9.015621 0l0 8.296873l7.249996 0l0 4.453125l-7.249996 0l0 13.203125z" fill-rule="nonzero"/></g></svg>