<svg version="1.1" viewBox="0.0 0.0 75.59055118110236 75.59055118110236" fill="none" stroke="none" stroke-linecap="square" stroke-miterlimit="10" xmlns:xlink="http://www.w3.org/1999/xlink" xmlns="http://www.w3.org/2000/svg"><clipPath id="p.0"><path d="m0 0l75.59055 0l0 75.59055l-75.59055 0l0 -75.59055z" clip-rule="nonzero"/></clipPath><g clip-path="url(#p.0)"><path fill="#000000" fill-opacity="0.0" d="m0 0l75.59055 0l0 75.59055l-75.59055 0z" fill-rule="evenodd"/><path fill="#334455" d="m33.71458 68.29299l31.744991 -31.744984l-0.9370117 -0.9370079l6.9164276 -3.1683998l-3.168396 6.9164314l-0.9370041 -0.9370079l-31.744991 31.744984z" fill-rule="evenodd"/><path stroke="#334455" stroke-width="3.0" stroke-linejoin="round" stroke-linecap="butt" d="m33.71458 68.29299l31.744991 -31.744984l-0.9370117 -0.9370079l6.9164276 -3.1683998l-3.168396 6.9164314l-0.9370041 -0.9370079l-31.744991 31.744984z" fill-rule="evenodd"/><path fill="#334455" d="m42.008545 7.3507376l-31.744987 31.744987l0.9370079 0.9370079l-6.9164295 3.168396l3.1683984 -6.9164276l0.9370084 0.9370079l31.744987 -31.744987z" fill-rule="evenodd"/><path stroke="#334455" stroke-width="3.0" stroke-linejoin="round" stroke-linecap="butt" d="m42.008545 7.3507376l-31.744987 31.744987l0.9370079 0.9370079l-6.9164295 3.168396l3.1683984 -6.9164276l0.9370084 0.9370079l31.744987 -31.744987z" fill-rule="evenodd"/><path fill="#00aa66" d="m10.606286 51.896545l0 0c0 -7.479763 6.063546 -13.543308 13.543307 -13.543308l0 0c3.5919075 0 7.036701 1.4268799 9.576565 3.9667435c2.5398636 2.5398636 3.9667435 5.9846573 3.9667435 9.576565l0 0c0 7.479763 -6.063547 13.543304 -13.543308 13.543304l0 0c-7.479761 0 -13.543307 -6.0635414 -13.543307 -13.543304z" fill-rule="evenodd"/><path stroke="#334455" stroke-width="3.0" stroke-linejoin="round" stroke-linecap="butt" d="m10.606286 51.896545l0 0c0 -7.479763 6.063546 -13.543308 13.543307 -13.543308l0 0c3.5919075 0 7.036701 1.4268799 9.576565 3.9667435c2.5398636 2.5398636 3.9667435 5.9846573 3.9667435 9.576565l0 0c0 7.479763 -6.063547 13.543304 -13.543308 13.543304l0 0c-7.479761 0 -13.543307 -6.0635414 -13.543307 -13.543304z" fill-rule="evenodd"/><path fill="#ffffff" d="m37.69255 51.897617l0 0c0 -7.479763 6.0635414 -13.543308 13.543304 -13.543308l0 0c3.5919075 0 7.036701 1.4268799 9.576565 3.9667435c2.5398636 2.5398636 3.9667397 5.9846573 3.9667397 9.576565l0 0c0 7.479763 -6.0635414 13.543308 -13.543304 13.543308l0 0c-7.479763 0 -13.543304 -6.063545 -13.543304 -13.543308z" fill-rule="evenodd"/><path stroke="#334455" stroke-width="3.0" stroke-linejoin="round" stroke-linecap="butt" d="m37.69255 51.897617l0 0c0 -7.479763 6.0635414 -13.543308 13.543304 -13.543308l0 0c3.5919075 0 7.036701 1.4268799 9.576565 3.9667435c2.5398636 2.5398636 3.9667397 5.9846573 3.9667397 9.576565l0 0c0 7.479763 -6.0635414 13.543308 -13.543304 13.543308l0 0c-7.479763 0 -13.543304 -6.063545 -13.543304 -13.543308z" fill-rule="evenodd"/><path fill="#0077ff" d="m37.693302 23.913364l0 0c0 -7.479761 6.063545 -13.543306 13.543308 -13.543306l0 0c3.5919075 0 7.036701 1.4268799 9.576565 3.9667435c2.5398598 2.5398617 3.9667397 5.9846554 3.9667397 9.576563l0 0c0 7.479763 -6.0635414 13.543308 -13.543304 13.543308l0 0c-7.479763 0 -13.543308 -6.063545 -13.543308 -13.543308z" fill-rule="evenodd"/><path stroke="#334455" stroke-width="3.0" stroke-linejoin="round" stroke-linecap="butt" d="m37.693302 23.913364l0 0c0 -7.479761 6.063545 -13.543306 13.543308 -13.543306l0 0c3.5919075 0 7.036701 1.4268799 9.576565 3.9667435c2.5398598 2.5398617 3.9667397 5.9846554 3.9667397 9.576563l0 0c0 7.479763 -6.0635414 13.543308 -13.543304 13.543308l0 0c-7.479763 0 -13.543308 -6.063545 -13.543308 -13.543308z" fill-rule="evenodd"/><path fill="#ffffff" d="m10.605154 23.911749l0 0c0 -7.479761 6.063545 -13.543307 13.543308 -13.543307l0 0c3.5919075 0 7.036701 1.4268799 9.576563 3.9667425c2.5398636 2.5398636 3.9667435 5.9846573 3.9667435 9.576565l0 0c0 7.479761 -6.063545 13.543306 -13.543306 13.543306l0 0c-7.479763 0 -13.543308 -6.063545 -13.543308 -13.543306z" fill-rule="evenodd"/><path stroke="#334455" stroke-width="3.0" stroke-linejoin="round" stroke-linecap="butt" d="m10.605154 23.911749l0 0c0 -7.479761 6.063545 -13.543307 13.543308 -13.543307l0 0c3.5919075 0 7.036701 1.4268799 9.576563 3.9667425c2.5398636 2.5398636 3.9667435 5.9846573 3.9667435 9.576565l0 0c0 7.479761 -6.063545 13.543306 -13.543306 13.543306l0 0c-7.479763 0 -13.543308 -6.063545 -13.543308 -13.543306z" fill-rule="evenodd"/></g></svg>