<svg version="1.1" viewBox="0.0 0.0 41.574803149606296 75.59055118110236" fill="none" stroke="none" stroke-linecap="square" stroke-miterlimit="10" xmlns:xlink="http://www.w3.org/1999/xlink" xmlns="http://www.w3.org/2000/svg"><clipPath id="p.0"><path d="m0 0l41.574802 0l0 75.59055l-41.574802 0l0 -75.59055z" clip-rule="nonzero"/></clipPath><g clip-path="url(#p.0)"><path fill="#000000" fill-opacity="0.0" d="m0 0l41.574802 0l0 75.59055l-41.574802 0z" fill-rule="evenodd"/><path fill="#ffffff" d="m7.254971 18.640427l0 0c0 -7.053088 5.972299 -12.770747 13.339502 -12.770747l0 0c3.537857 0 6.930811 1.3454857 9.432453 3.7404652c2.5016422 2.3949804 3.9070492 5.6432695 3.9070492 9.030282l0 0c0 7.053091 -5.9722977 12.770748 -13.339502 12.770748l0 0c-7.3672028 0 -13.339502 -5.717657 -13.339502 -12.770748z" fill-rule="evenodd"/><path stroke="#334455" stroke-width="4.0" stroke-linejoin="round" stroke-linecap="butt" d="m7.254971 18.640427l0 0c0 -7.053088 5.972299 -12.770747 13.339502 -12.770747l0 0c3.537857 0 6.930811 1.3454857 9.432453 3.7404652c2.5016422 2.3949804 3.9070492 5.6432695 3.9070492 9.030282l0 0c0 7.053091 -5.9722977 12.770748 -13.339502 12.770748l0 0c-7.3672028 0 -13.339502 -5.717657 -13.339502 -12.770748z" fill-rule="evenodd"/><path fill="#ffffff" d="m15.489374 32.582275l10.210197 0l0 0c2.5327034 0 4.961672 1.0061111 6.7525616 2.7970047c1.7908936 1.7908897 2.7970047 4.21986 2.7970047 6.7525635l0 27.590775c0 1.296997E-4 -1.1062622E-4 2.4414062E-4 -2.4414062E-4 2.4414062E-4l-29.309086 -2.4414062E-4l0 0c-1.3494492E-4 0 -2.4414062E-4 -1.1444092E-4 -2.4414062E-4 -2.4414062E-4l2.4414062E-4 -27.59053l0 0c0 -5.274082 4.275486 -9.549568 9.549565 -9.549568z" fill-rule="evenodd"/><path stroke="#334455" stroke-width="4.0" stroke-linejoin="round" stroke-linecap="butt" d="m15.489374 32.582275l10.210197 0l0 0c2.5327034 0 4.961672 1.0061111 6.7525616 2.7970047c1.7908936 1.7908897 2.7970047 4.21986 2.7970047 6.7525635l0 27.590775c0 1.296997E-4 -1.1062622E-4 2.4414062E-4 -2.4414062E-4 2.4414062E-4l-29.309086 -2.4414062E-4l0 0c-1.3494492E-4 0 -2.4414062E-4 -1.1444092E-4 -2.4414062E-4 -2.4414062E-4l2.4414062E-4 -27.59053l0 0c0 -5.274082 4.275486 -9.549568 9.549565 -9.549568z" fill-rule="evenodd"/></g></svg>