<svg version="1.1" viewBox="0.0 0.0 105.8267716535433 75.59055118110236" fill="none" stroke="none" stroke-linecap="square" stroke-miterlimit="10" xmlns:xlink="http://www.w3.org/1999/xlink" xmlns="http://www.w3.org/2000/svg"><clipPath id="p.0"><path d="m0 0l105.826775 0l0 75.59055l-105.826775 0l0 -75.59055z" clip-rule="nonzero"/></clipPath><g clip-path="url(#p.0)"><path fill="#000000" fill-opacity="0.0" d="m0 0l105.826775 0l0 75.59055l-105.826775 0z" fill-rule="evenodd"/><path fill="#ee8800" d="m6.0290246 37.794834l30.386103 -31.712757l30.386105 31.712757l-30.386105 31.712757z" fill-rule="evenodd"/><path stroke="#334455" stroke-width="4.0" stroke-linejoin="round" stroke-linecap="butt" d="m6.0290246 37.794834l30.386103 -31.712757l30.386105 31.712757l-30.386105 31.712757z" fill-rule="evenodd"/><path fill="#ee8800" d="m39.02693 37.794834l30.3861 -31.712757l30.3861 31.712757l-30.3861 31.712757z" fill-rule="evenodd"/><path stroke="#334455" stroke-width="4.0" stroke-linejoin="round" stroke-linecap="butt" d="m39.02693 37.794834l30.3861 -31.712757l30.3861 31.712757l-30.3861 31.712757z" fill-rule="evenodd"/><path fill="#ee8800" d="m38.07171 37.79481l14.755905 -15.417322l14.755905 15.417322l-14.755905 15.417324z" fill-rule="evenodd"/><path stroke="#334455" stroke-width="4.0" stroke-linejoin="round" stroke-linecap="butt" d="m38.07171 37.79481l14.755905 -15.417322l14.755905 15.417322l-14.755905 15.417324z" fill-rule="evenodd"/></g></svg>