<svg version="1.1" viewBox="0.0 0.0 52.91338582677165 75.59055118110236" fill="none" stroke="none" stroke-linecap="square" stroke-miterlimit="10" xmlns:xlink="http://www.w3.org/1999/xlink" xmlns="http://www.w3.org/2000/svg"><clipPath id="p.0"><path d="m0 0l52.913387 0l0 75.59055l-52.913387 0l0 -75.59055z" clip-rule="nonzero"/></clipPath><g clip-path="url(#p.0)"><path fill="#000000" fill-opacity="0.0" d="m0 0l52.913387 0l0 75.59055l-52.913387 0z" fill-rule="evenodd"/><path fill="#ee8800" d="m28.1399 33.464157l-14.314877 36.060143l33.401375 -32.60545z" fill-rule="evenodd"/><path stroke="#334455" stroke-width="4.0" stroke-linejoin="round" stroke-linecap="butt" d="m28.1399 33.464157l-14.314877 36.060143l33.401375 -32.60545z" fill-rule="evenodd"/><path fill="#ee8800" d="m24.944235 42.228745l14.314875 -36.060143l-33.401375 32.60545z" fill-rule="evenodd"/><path stroke="#334455" stroke-width="4.0" stroke-linejoin="round" stroke-linecap="butt" d="m24.944235 42.228745l14.314875 -36.060143l-33.401375 32.60545z" fill-rule="evenodd"/><path fill="#ee8800" d="m27.733503 39.440094l5.228346 2.1102333l-1.8582668 4.9763794l-5.228346 -2.1102371z" fill-rule="evenodd"/><path fill="#ee8800" d="m23.459795 34.572502l5.5118103 1.0393715l-0.94488144 5.228348l-5.511812 -1.0393715z" fill-rule="evenodd"/><path fill="#ee8800" d="m25.597466 34.95065l5.4803143 1.0078735l-0.5354328 3.0551186l-5.4803143 -1.0078773z" fill-rule="evenodd"/></g></svg>