<svg version="1.1" viewBox="0.0 0.0 75.59055118110236 75.59055118110236" fill="none" stroke="none" stroke-linecap="square" stroke-miterlimit="10" xmlns:xlink="http://www.w3.org/1999/xlink" xmlns="http://www.w3.org/2000/svg"><clipPath id="p.0"><path d="m0 0l75.59055 0l0 75.59055l-75.59055 0l0 -75.59055z" clip-rule="nonzero"/></clipPath><g clip-path="url(#p.0)"><path fill="#000000" fill-opacity="0.0" d="m0 0l75.59055 0l0 75.59055l-75.59055 0z" fill-rule="evenodd"/><path fill="#00bbcc" d="m68.33064 45.003773l-30.535366 23.326939l-30.53537 -23.326939l11.663473 -37.743774l37.74379 0z" fill-rule="evenodd"/><path stroke="#00bbcc" stroke-width="4.0" stroke-linejoin="round" stroke-linecap="butt" d="m68.33064 45.003773l-30.535366 23.326939l-30.53537 -23.326939l11.663473 -37.743774l37.74379 0z" fill-rule="evenodd"/><path fill="#000000" fill-opacity="0.0" d="m20.2362 33.85565l0 0c0 -9.680204 7.847357 -17.52756 17.52756 -17.52756l0 0c4.6485977 0 9.1068 1.8466492 12.393856 5.133703c3.287056 3.287054 5.133705 7.7452583 5.133705 12.393856l0 0c0 9.6802025 -7.8473587 17.527557 -17.527561 17.527557l0 0c-9.6802025 0 -17.52756 -7.847355 -17.52756 -17.527557z" fill-rule="evenodd"/><path stroke="#ffffff" stroke-width="4.0" stroke-linejoin="round" stroke-linecap="butt" d="m20.2362 33.85565l0 0c0 -9.680204 7.847357 -17.52756 17.52756 -17.52756l0 0c4.6485977 0 9.1068 1.8466492 12.393856 5.133703c3.287056 3.287054 5.133705 7.7452583 5.133705 12.393856l0 0c0 9.6802025 -7.8473587 17.527557 -17.527561 17.527557l0 0c-9.6802025 0 -17.52756 -7.847355 -17.52756 -17.527557z" fill-rule="evenodd"/><path fill="#ffffff" d="m39.64525 30.340313l0 0c0 -2.2109642 1.7920341 -4.0033035 4.0026207 -4.0033035l0 0c1.0615578 0 2.0796394 0.4217739 2.8302765 1.1725388c0.75063705 0.75076675 1.1723404 1.769022 1.1723404 2.8307648l0 0c0 2.2109642 -1.7920341 4.0033035 -4.002617 4.0033035l0 0c-2.2105865 0 -4.0026207 -1.7923393 -4.0026207 -4.0033035z" fill-rule="evenodd"/><path stroke="#ffffff" stroke-width="2.0" stroke-linejoin="round" stroke-linecap="butt" d="m39.64525 30.340313l0 0c0 -2.2109642 1.7920341 -4.0033035 4.0026207 -4.0033035l0 0c1.0615578 0 2.0796394 0.4217739 2.8302765 1.1725388c0.75063705 0.75076675 1.1723404 1.769022 1.1723404 2.8307648l0 0c0 2.2109642 -1.7920341 4.0033035 -4.002617 4.0033035l0 0c-2.2105865 0 -4.0026207 -1.7923393 -4.0026207 -4.0033035z" fill-rule="evenodd"/><path fill="#ffffff" d="m27.940447 37.37235l0 0c0 -2.2109642 1.7920322 -4.0033073 4.002617 -4.0033073l0 0c1.0615597 0 2.0796413 0.42177582 2.8302784 1.1725426c0.75063705 0.75076294 1.1723404 1.7690201 1.1723404 2.8307648l0 0c0 2.2109604 -1.7920341 4.0033035 -4.002619 4.0033035l0 0c-2.2105846 0 -4.002617 -1.7923431 -4.002617 -4.0033035z" fill-rule="evenodd"/><path stroke="#ffffff" stroke-width="2.0" stroke-linejoin="round" stroke-linecap="butt" d="m27.940447 37.37235l0 0c0 -2.2109642 1.7920322 -4.0033073 4.002617 -4.0033073l0 0c1.0615597 0 2.0796413 0.42177582 2.8302784 1.1725426c0.75063705 0.75076294 1.1723404 1.7690201 1.1723404 2.8307648l0 0c0 2.2109604 -1.7920341 4.0033035 -4.002619 4.0033035l0 0c-2.2105846 0 -4.002617 -1.7923431 -4.002617 -4.0033035z" fill-rule="evenodd"/><path fill="#ffffff" d="m35.912506 37.372185l0 0c0 -2.2109604 1.7920341 -4.0033035 4.002617 -4.0033035l0 0c1.0615616 0 2.0796432 0.42177582 2.8302803 1.1725426c0.75063324 0.75076294 1.1723366 1.7690201 1.1723366 2.830761l0 0c0 2.2109642 -1.7920303 4.0033073 -4.002617 4.0033073l0 0c-2.2105827 0 -4.002617 -1.7923431 -4.002617 -4.0033073z" fill-rule="evenodd"/><path stroke="#ffffff" stroke-width="2.0" stroke-linejoin="round" stroke-linecap="butt" d="m35.912506 37.372185l0 0c0 -2.2109604 1.7920341 -4.0033035 4.002617 -4.0033035l0 0c1.0615616 0 2.0796432 0.42177582 2.8302803 1.1725426c0.75063324 0.75076294 1.1723366 1.7690201 1.1723366 2.830761l0 0c0 2.2109642 -1.7920303 4.0033073 -4.002617 4.0033073l0 0c-2.2105827 0 -4.002617 -1.7923431 -4.002617 -4.0033073z" fill-rule="evenodd"/><path fill="#ffffff" d="m31.673409 30.340313l0 0c0 -2.2109642 1.7920303 -4.0033035 4.002617 -4.0033035l0 0c1.0615616 0 2.0796394 0.4217739 2.8302765 1.1725388c0.75063705 0.75076675 1.1723404 1.769022 1.1723404 2.8307648l0 0c0 2.2109642 -1.7920341 4.0033035 -4.002617 4.0033035l0 0c-2.2105865 0 -4.002617 -1.7923393 -4.002617 -4.0033035z" fill-rule="evenodd"/><path stroke="#ffffff" stroke-width="2.0" stroke-linejoin="round" stroke-linecap="butt" d="m31.673409 30.340313l0 0c0 -2.2109642 1.7920303 -4.0033035 4.002617 -4.0033035l0 0c1.0615616 0 2.0796394 0.4217739 2.8302765 1.1725388c0.75063705 0.75076675 1.1723404 1.769022 1.1723404 2.8307648l0 0c0 2.2109642 -1.7920341 4.0033035 -4.002617 4.0033035l0 0c-2.2105865 0 -4.002617 -1.7923393 -4.002617 -4.0033035z" fill-rule="evenodd"/></g></svg>