<svg version="1.1" viewBox="0.0 0.0 75.59055118110236 75.59055118110236" fill="none" stroke="none" stroke-linecap="square" stroke-miterlimit="10" xmlns:xlink="http://www.w3.org/1999/xlink" xmlns="http://www.w3.org/2000/svg"><clipPath id="p.0"><path d="m0 0l75.59055 0l0 75.59055l-75.59055 0l0 -75.59055z" clip-rule="nonzero"/></clipPath><g clip-path="url(#p.0)"><path fill="#000000" fill-opacity="0.0" d="m0 0l75.59055 0l0 75.59055l-75.59055 0z" fill-rule="evenodd"/><path fill="#00bbcc" d="m68.33064 45.003773l-30.535366 23.326939l-30.53537 -23.326939l11.663473 -37.743774l37.74379 0z" fill-rule="evenodd"/><path stroke="#00bbcc" stroke-width="4.0" stroke-linejoin="round" stroke-linecap="butt" d="m68.33064 45.003773l-30.535366 23.326939l-30.53537 -23.326939l11.663473 -37.743774l37.74379 0z" fill-rule="evenodd"/><path fill="#000000" fill-opacity="0.0" d="m20.2362 33.85565l0 0c0 -9.680204 7.847357 -17.52756 17.52756 -17.52756l0 0c4.6485977 0 9.1068 1.8466492 12.393856 5.133703c3.287056 3.287054 5.133705 7.7452583 5.133705 12.393856l0 0c0 9.6802025 -7.8473587 17.527557 -17.527561 17.527557l0 0c-9.6802025 0 -17.52756 -7.847355 -17.52756 -17.527557z" fill-rule="evenodd"/><path stroke="#ffffff" stroke-width="3.0" stroke-linejoin="round" stroke-linecap="butt" d="m20.2362 33.85565l0 0c0 -9.680204 7.847357 -17.52756 17.52756 -17.52756l0 0c4.6485977 0 9.1068 1.8466492 12.393856 5.133703c3.287056 3.287054 5.133705 7.7452583 5.133705 12.393856l0 0c0 9.6802025 -7.8473587 17.527557 -17.527561 17.527557l0 0c-9.6802025 0 -17.52756 -7.847355 -17.52756 -17.527557z" fill-rule="evenodd"/><path fill="#ffffff" d="m39.815186 30.014503l0 0c0 -2.4151669 1.9577255 -4.373045 4.3727036 -4.373045l0 0c1.1597099 0 2.2719269 0.4607296 3.0919647 1.2808342c0.82004166 0.8201065 1.280735 1.9324074 1.280735 3.0922108l0 0c0 2.415165 -1.9577255 4.373047 -4.3726997 4.373047l0 0c-2.414978 0 -4.3727036 -1.9578819 -4.3727036 -4.373047z" fill-rule="evenodd"/><path stroke="#ffffff" stroke-width="1.0" stroke-linejoin="round" stroke-linecap="butt" d="m39.815186 30.014503l0 0c0 -2.4151669 1.9577255 -4.373045 4.3727036 -4.373045l0 0c1.1597099 0 2.2719269 0.4607296 3.0919647 1.2808342c0.82004166 0.8201065 1.280735 1.9324074 1.280735 3.0922108l0 0c0 2.415165 -1.9577255 4.373047 -4.3726997 4.373047l0 0c-2.414978 0 -4.3727036 -1.9578819 -4.3727036 -4.373047z" fill-rule="evenodd"/><path fill="#ffffff" d="m27.028147 37.69601l0 0c0 -2.415165 1.9577255 -4.373047 4.3727036 -4.373047l0 0c1.1597118 0 2.271925 0.4607315 3.0919666 1.280838c0.82004166 0.8201027 1.280735 1.9324036 1.280735 3.0922089l0 0c0 2.415165 -1.9577255 4.373047 -4.3727016 4.373047l0 0c-2.414978 0 -4.3727036 -1.9578819 -4.3727036 -4.373047z" fill-rule="evenodd"/><path stroke="#ffffff" stroke-width="1.0" stroke-linejoin="round" stroke-linecap="butt" d="m27.028147 37.69601l0 0c0 -2.415165 1.9577255 -4.373047 4.3727036 -4.373047l0 0c1.1597118 0 2.271925 0.4607315 3.0919666 1.280838c0.82004166 0.8201027 1.280735 1.9324036 1.280735 3.0922089l0 0c0 2.415165 -1.9577255 4.373047 -4.3727016 4.373047l0 0c-2.414978 0 -4.3727036 -1.9578819 -4.3727036 -4.373047z" fill-rule="evenodd"/><path fill="#ffffff" d="m35.73731 37.695835l0 0c0 -2.415165 1.9577255 -4.373047 4.3727036 -4.373047l0 0c1.1597137 0 2.2719269 0.4607315 3.0919685 1.280838c0.82004166 0.8201027 1.280735 1.9324036 1.280735 3.0922089l0 0c0 2.415165 -1.9577255 4.373047 -4.3727036 4.373047l0 0c-2.414978 0 -4.3727036 -1.9578819 -4.3727036 -4.373047z" fill-rule="evenodd"/><path stroke="#ffffff" stroke-width="1.0" stroke-linejoin="round" stroke-linecap="butt" d="m35.73731 37.695835l0 0c0 -2.415165 1.9577255 -4.373047 4.3727036 -4.373047l0 0c1.1597137 0 2.2719269 0.4607315 3.0919685 1.280838c0.82004166 0.8201027 1.280735 1.9324036 1.280735 3.0922089l0 0c0 2.415165 -1.9577255 4.373047 -4.3727036 4.373047l0 0c-2.414978 0 -4.3727036 -1.9578819 -4.3727036 -4.373047z" fill-rule="evenodd"/><path fill="#ffffff" d="m31.10626 30.014503l0 0c0 -2.4151669 1.9577274 -4.373045 4.3727016 -4.373045l0 0c1.1597137 0 2.2719269 0.4607296 3.0919685 1.2808342c0.82004166 0.8201065 1.280735 1.9324074 1.280735 3.0922108l0 0c0 2.415165 -1.9577255 4.373047 -4.3727036 4.373047l0 0c-2.4149742 0 -4.3727016 -1.9578819 -4.3727016 -4.373047z" fill-rule="evenodd"/><path stroke="#ffffff" stroke-width="1.0" stroke-linejoin="round" stroke-linecap="butt" d="m31.10626 30.014503l0 0c0 -2.4151669 1.9577274 -4.373045 4.3727016 -4.373045l0 0c1.1597137 0 2.2719269 0.4607296 3.0919685 1.2808342c0.82004166 0.8201065 1.280735 1.9324074 1.280735 3.0922108l0 0c0 2.415165 -1.9577255 4.373047 -4.3727036 4.373047l0 0c-2.4149742 0 -4.3727016 -1.9578819 -4.3727016 -4.373047z" fill-rule="evenodd"/></g></svg>