<svg version="1.1" viewBox="0.0 0.0 60.47244094488189 75.59055118110236" fill="none" stroke="none" stroke-linecap="square" stroke-miterlimit="10" xmlns:xlink="http://www.w3.org/1999/xlink" xmlns="http://www.w3.org/2000/svg"><clipPath id="p.0"><path d="m0 0l60.472443 0l0 75.59055l-60.472443 0l0 -75.59055z" clip-rule="nonzero"/></clipPath><g clip-path="url(#p.0)"><path fill="#000000" fill-opacity="0.0" d="m0 0l60.472443 0l0 75.59055l-60.472443 0z" fill-rule="evenodd"/><path fill="#334455" d="m12.08331 21.86806l2.0787401 0l0 12.881891l-2.0787401 0z" fill-rule="evenodd"/><path stroke="#334455" stroke-width="4.0" stroke-linejoin="round" stroke-linecap="butt" d="m12.08331 21.86806l2.0787401 0l0 12.881891l-2.0787401 0z" fill-rule="evenodd"/><path fill="#334455" d="m12.08331 23.262466l0 0c0 -6.2973576 3.549859 -12.104285 9.284205 -15.187281c5.7343445 -3.0829954 12.76001 -2.9618597 18.374733 0.31681538c5.614723 3.278675 8.943974 9.204211 8.707226 15.497487l-2.0139961 -0.06947136c0.21170044 -5.5654716 -2.7479973 -10.806278 -7.7405815 -13.706435c-4.992584 -2.900156 -11.2403145 -3.0078783 -16.33987 -0.28172874c-5.099554 2.7261486 -8.256532 7.861493 -8.256532 13.4306135z" fill-rule="evenodd"/><path stroke="#334455" stroke-width="4.0" stroke-linejoin="round" stroke-linecap="butt" d="m12.08331 23.262466l0 0c0 -6.2973576 3.549859 -12.104285 9.284205 -15.187281c5.7343445 -3.0829954 12.76001 -2.9618597 18.374733 0.31681538c5.614723 3.278675 8.943974 9.204211 8.707226 15.497487l-2.0139961 -0.06947136c0.21170044 -5.5654716 -2.7479973 -10.806278 -7.7405815 -13.706435c-4.992584 -2.900156 -11.2403145 -3.0078783 -16.33987 -0.28172874c-5.099554 2.7261486 -8.256532 7.861493 -8.256532 13.4306135z" fill-rule="evenodd"/><path fill="#334455" d="m13.998041 23.426987l0 0c0 -8.492177 7.2674694 -15.381935 16.245882 -15.401534c8.978413 -0.019599915 16.27943 6.838355 16.320873 15.330441l0 0l0 0c-0.04144287 -8.492086 -7.3424606 -15.350041 -16.320873 -15.330441c-8.978413 0.01959896 -16.245882 6.909357 -16.245882 15.401534z" fill-rule="evenodd"/><path fill="#334455" d="m46.41631 23.742384l2.0787392 0l0 10.771654l-2.0787392 0z" fill-rule="evenodd"/><path stroke="#334455" stroke-width="4.0" stroke-linejoin="round" stroke-linecap="butt" d="m46.41631 23.742384l2.0787392 0l0 10.771654l-2.0787392 0z" fill-rule="evenodd"/><path fill="#ee3333" d="m5.8110237 30.147087l48.88189 0l0 39.527557l-48.88189 0z" fill-rule="evenodd"/><path stroke="#334455" stroke-width="4.0" stroke-linejoin="round" stroke-linecap="butt" d="m5.8110237 30.147087l48.88189 0l0 39.527557l-48.88189 0z" fill-rule="evenodd"/><path fill="#334455" d="m26.813143 49.409843l6.9108677 0l0 10.762207l-6.9108677 0z" fill-rule="evenodd"/><path stroke="#334455" stroke-width="4.0" stroke-linejoin="round" stroke-linecap="butt" d="m26.813143 49.409843l6.9108677 0l0 10.762207l-6.9108677 0z" fill-rule="evenodd"/><path fill="#334455" d="m24.336924 45.47273l0 0c0 -3.209652 2.6557693 -5.811592 5.9318256 -5.811592l0 0c1.5732193 0 3.0820007 0.61229324 4.194435 1.7021751c1.1124344 1.0898857 1.7373924 2.5680847 1.7373924 4.109417l0 0c0 3.209652 -2.6557693 5.8115883 -5.9318275 5.8115883l0 0c-3.2760563 0 -5.9318256 -2.6019363 -5.9318256 -5.8115883z" fill-rule="evenodd"/><path stroke="#334455" stroke-width="4.0" stroke-linejoin="round" stroke-linecap="butt" d="m24.336924 45.47273l0 0c0 -3.209652 2.6557693 -5.811592 5.9318256 -5.811592l0 0c1.5732193 0 3.0820007 0.61229324 4.194435 1.7021751c1.1124344 1.0898857 1.7373924 2.5680847 1.7373924 4.109417l0 0c0 3.209652 -2.6557693 5.8115883 -5.9318275 5.8115883l0 0c-3.2760563 0 -5.9318256 -2.6019363 -5.9318256 -5.8115883z" fill-rule="evenodd"/></g></svg>