<svg version="1.1" viewBox="0.0 0.0 75.59055118110236 75.59055118110236" fill="none" stroke="none" stroke-linecap="square" stroke-miterlimit="10" xmlns:xlink="http://www.w3.org/1999/xlink" xmlns="http://www.w3.org/2000/svg"><clipPath id="p.0"><path d="m0 0l75.59055 0l0 75.59055l-75.59055 0l0 -75.59055z" clip-rule="nonzero"/></clipPath><g clip-path="url(#p.0)"><path fill="#000000" fill-opacity="0.0" d="m0 0l75.59055 0l0 75.59055l-75.59055 0z" fill-rule="evenodd"/><path fill="#334455" d="m22.877943 27.702698l1.6692924 0l0 11.307087l-1.6692924 0z" fill-rule="evenodd"/><path stroke="#334455" stroke-width="4.0" stroke-linejoin="round" stroke-linecap="butt" d="m22.877943 27.702698l1.6692924 0l0 11.307087l-1.6692924 0z" fill-rule="evenodd"/><path fill="#334455" d="m22.877943 28.925808l0 0c0 -5.524355 2.9060535 -10.619186 7.6019382 -13.327561c4.6958885 -2.708374 10.4513855 -2.6091347 15.055801 0.2596016c4.6044197 2.8687353 7.341755 8.060874 7.1605988 13.582107l-1.724453 -0.05948639l0 0c0.1596756 -4.898056 -2.261261 -9.503902 -6.332981 -12.048536c-4.0717163 -2.5446339 -9.161106 -2.632389 -13.313446 -0.22955894c-4.15234 2.4028282 -6.721979 6.9226246 -6.721979 11.823435z" fill-rule="evenodd"/><path stroke="#334455" stroke-width="4.0" stroke-linejoin="round" stroke-linecap="butt" d="m22.877943 28.925808l0 0c0 -5.524355 2.9060535 -10.619186 7.6019382 -13.327561c4.6958885 -2.708374 10.4513855 -2.6091347 15.055801 0.2596016c4.6044197 2.8687353 7.341755 8.060874 7.1605988 13.582107l-1.724453 -0.05948639l0 0c0.1596756 -4.898056 -2.261261 -9.503902 -6.332981 -12.048536c-4.0717163 -2.5446339 -9.161106 -2.632389 -13.313446 -0.22955894c-4.15234 2.4028282 -6.721979 6.9226246 -6.721979 11.823435z" fill-rule="evenodd"/><path fill="#334455" d="m24.44875 29.076317l0 0c0 -7.4596825 5.9614124 -13.511451 13.325554 -13.527527c7.3641396 -0.016076088 13.351246 6.009611 13.382984 13.469223l0 0c-0.03173828 -7.459612 -6.0188446 -13.485299 -13.382984 -13.469223c-7.3641415 0.016076088 -13.325554 6.0678444 -13.325554 13.527527z" fill-rule="evenodd"/><path fill="#334455" d="m51.044056 29.348368l1.6692886 0l0 9.44882l-1.6692886 0z" fill-rule="evenodd"/><path stroke="#334455" stroke-width="4.0" stroke-linejoin="round" stroke-linecap="butt" d="m51.044056 29.348368l1.6692886 0l0 9.44882l-1.6692886 0z" fill-rule="evenodd"/><path fill="#ee3333" d="m17.732283 34.97174l40.125984 0l0 34.708664l-40.125984 0z" fill-rule="evenodd"/><path stroke="#334455" stroke-width="4.0" stroke-linejoin="round" stroke-linecap="butt" d="m17.732283 34.97174l40.125984 0l0 34.708664l-40.125984 0z" fill-rule="evenodd"/><path fill="#334455" d="m34.960487 51.881992l5.6692924 0l0 9.448818l-5.6692924 0z" fill-rule="evenodd"/><path stroke="#334455" stroke-width="4.0" stroke-linejoin="round" stroke-linecap="butt" d="m34.960487 51.881992l5.6692924 0l0 9.448818l-5.6692924 0z" fill-rule="evenodd"/><path fill="#334455" d="m32.929134 48.42535l0 0c0 -2.817955 2.178646 -5.1023636 4.8661423 -5.1023636l0 0c1.2905807 0 2.5283012 0.53757095 3.4408798 1.4944496c0.9125786 0.95687866 1.4252625 2.2546844 1.4252625 3.607914l0 0c0 2.8179588 -2.178646 5.1023636 -4.8661423 5.1023636l0 0c-2.6874962 0 -4.8661423 -2.2844048 -4.8661423 -5.1023636z" fill-rule="evenodd"/><path stroke="#334455" stroke-width="4.0" stroke-linejoin="round" stroke-linecap="butt" d="m32.929134 48.42535l0 0c0 -2.817955 2.178646 -5.1023636 4.8661423 -5.1023636l0 0c1.2905807 0 2.5283012 0.53757095 3.4408798 1.4944496c0.9125786 0.95687866 1.4252625 2.2546844 1.4252625 3.607914l0 0c0 2.8179588 -2.178646 5.1023636 -4.8661423 5.1023636l0 0c-2.6874962 0 -4.8661423 -2.2844048 -4.8661423 -5.1023636z" fill-rule="evenodd"/></g></svg>