<svg version="1.1" viewBox="0.0 0.0 75.59055118110236 75.59055118110236" fill="none" stroke="none" stroke-linecap="square" stroke-miterlimit="10" xmlns:xlink="http://www.w3.org/1999/xlink" xmlns="http://www.w3.org/2000/svg"><clipPath id="p.0"><path d="m0 0l75.59055 0l0 75.59055l-75.59055 0l0 -75.59055z" clip-rule="nonzero"/></clipPath><g clip-path="url(#p.0)"><path fill="#000000" fill-opacity="0.0" d="m0 0l75.59055 0l0 75.59055l-75.59055 0z" fill-rule="evenodd"/><path fill="#ee3333" d="m17.732283 34.107613l40.125984 0l0 34.708664l-40.125984 0z" fill-rule="evenodd"/><path stroke="#334455" stroke-width="4.0" stroke-linejoin="round" stroke-linecap="butt" d="m17.732283 34.107613l40.125984 0l0 34.708664l-40.125984 0z" fill-rule="evenodd"/><path fill="#334455" d="m22.125984 22.640419l7.401575 0l0 11.307087l-7.401575 0z" fill-rule="evenodd"/><path stroke="#334455" stroke-width="4.0" stroke-linejoin="round" stroke-linecap="butt" d="m22.125984 22.640419l7.401575 0l0 11.307087l-7.401575 0z" fill-rule="evenodd"/><path fill="#334455" d="m22.125984 23.863518l0 0c0 -5.4795494 3.0044422 -10.540238 7.8756084 -13.265688c4.871168 -2.7254496 10.864344 -2.6989899 15.710043 0.06935978c4.8456955 2.7683496 7.803093 7.855359 7.752289 13.334683l-7.3218193 -0.06465149l0 0c0.027664185 -2.855791 -1.5474243 -5.5073853 -4.128746 -6.9505634c-2.581318 -1.4431791 -5.7741814 -1.4572763 -8.3693695 -0.036951065c-2.595192 1.4203243 -4.1959 4.0578976 -4.1959 6.9138107z" fill-rule="evenodd"/><path stroke="#334455" stroke-width="4.0" stroke-linejoin="round" stroke-linecap="butt" d="m22.125984 23.863518l0 0c0 -5.4795494 3.0044422 -10.540238 7.8756084 -13.265688c4.871168 -2.7254496 10.864344 -2.6989899 15.710043 0.06935978c4.8456955 2.7683496 7.803093 7.855359 7.752289 13.334683l-7.3218193 -0.06465149l0 0c0.027664185 -2.855791 -1.5474243 -5.5073853 -4.128746 -6.9505634c-2.581318 -1.4431791 -5.7741814 -1.4572763 -8.3693695 -0.036951065c-2.595192 1.4203243 -4.1959 4.0578976 -4.1959 6.9138107z" fill-rule="evenodd"/><path fill="#334455" d="m23.776073 24.014027l0 0c0 -4.9701405 2.8269958 -9.540016 7.3628464 -11.90214c4.5358505 -2.3621225 10.04998 -2.136032 14.3614235 0.58884907c4.3114433 2.7248812 6.725769 7.5096636 6.2880554 12.461856l-3.5048866 -0.28793526l0 0c0.33223724 -3.6657581 -1.4743958 -7.2096004 -4.7049065 -9.229011c-3.230507 -2.0194101 -7.3641777 -2.1888914 -10.765072 -0.44137096c-3.4008942 1.7475204 -5.520836 5.130371 -5.520836 8.8097515z" fill-rule="evenodd"/><path fill="#334455" d="m46.062992 24.286089l7.401573 0l0 9.44882l-7.401573 0z" fill-rule="evenodd"/><path stroke="#334455" stroke-width="4.0" stroke-linejoin="round" stroke-linecap="butt" d="m46.062992 24.286089l7.401573 0l0 9.44882l-7.401573 0z" fill-rule="evenodd"/><path fill="#334455" d="m34.960487 51.017864l5.6692924 0l0 9.448818l-5.6692924 0z" fill-rule="evenodd"/><path stroke="#334455" stroke-width="4.0" stroke-linejoin="round" stroke-linecap="butt" d="m34.960487 51.017864l5.6692924 0l0 9.448818l-5.6692924 0z" fill-rule="evenodd"/><path fill="#334455" d="m32.929134 47.561222l0 0c0 -2.817955 2.178646 -5.1023636 4.8661423 -5.1023636l0 0c1.2905807 0 2.5283012 0.53757095 3.4408798 1.4944496c0.9125786 0.95687866 1.4252625 2.2546844 1.4252625 3.607914l0 0c0 2.8179588 -2.178646 5.1023636 -4.8661423 5.1023636l0 0c-2.6874962 0 -4.8661423 -2.2844048 -4.8661423 -5.1023636z" fill-rule="evenodd"/><path stroke="#334455" stroke-width="4.0" stroke-linejoin="round" stroke-linecap="butt" d="m32.929134 47.561222l0 0c0 -2.817955 2.178646 -5.1023636 4.8661423 -5.1023636l0 0c1.2905807 0 2.5283012 0.53757095 3.4408798 1.4944496c0.9125786 0.95687866 1.4252625 2.2546844 1.4252625 3.607914l0 0c0 2.8179588 -2.178646 5.1023636 -4.8661423 5.1023636l0 0c-2.6874962 0 -4.8661423 -2.2844048 -4.8661423 -5.1023636z" fill-rule="evenodd"/></g></svg>