<svg version="1.1" viewBox="0.0 0.0 75.59055118110236 75.59055118110236" fill="none" stroke="none" stroke-linecap="square" stroke-miterlimit="10" xmlns:xlink="http://www.w3.org/1999/xlink" xmlns="http://www.w3.org/2000/svg"><clipPath id="p.0"><path d="m0 0l75.59055 0l0 75.59055l-75.59055 0l0 -75.59055z" clip-rule="nonzero"/></clipPath><g clip-path="url(#p.0)"><path fill="#000000" fill-opacity="0.0" d="m0 0l75.59055 0l0 75.59055l-75.59055 0z" fill-rule="evenodd"/><path fill="#ee3333" d="m19.921259 20.844929l7.244095 0l0 16.503937l-7.244095 0z" fill-rule="evenodd"/><path stroke="#334455" stroke-width="4.0" stroke-linejoin="round" stroke-linecap="butt" d="m19.921259 20.844929l7.244095 0l0 16.503937l-7.244095 0z" fill-rule="evenodd"/><path fill="#ee3333" d="m49.181103 20.844929l7.244095 0l0 16.503937l-7.244095 0z" fill-rule="evenodd"/><path stroke="#334455" stroke-width="4.0" stroke-linejoin="round" stroke-linecap="butt" d="m49.181103 20.844929l7.244095 0l0 16.503937l-7.244095 0z" fill-rule="evenodd"/><path fill="#ee3333" d="m15.716536 34.107235l44.15748 0l0 34.70866l-44.15748 0z" fill-rule="evenodd"/><path stroke="#334455" stroke-width="4.0" stroke-linejoin="round" stroke-linecap="butt" d="m15.716536 34.107235l44.15748 0l0 34.70866l-44.15748 0z" fill-rule="evenodd"/><path fill="#334455" d="m34.970985 52.525738l5.6692924 0l0 9.448822l-5.6692924 0z" fill-rule="evenodd"/><path stroke="#334455" stroke-width="1.0" stroke-linejoin="round" stroke-linecap="butt" d="m34.970985 52.525738l5.6692924 0l0 9.448822l-5.6692924 0z" fill-rule="evenodd"/><path fill="#334455" d="m31.590551 47.443394l0 0c0 -3.5920258 2.7779484 -6.503937 6.2047253 -6.503937l0 0c1.6455956 0 3.2237892 0.68523407 4.3874016 1.9049606c1.1636124 1.2197227 1.8173218 2.8740234 1.8173218 4.598976l0 0c0 3.5920258 -2.7779503 6.503937 -6.2047234 6.503937l0 0c-3.426777 0 -6.2047253 -2.911911 -6.2047253 -6.503937z" fill-rule="evenodd"/><path fill="#ee3333" d="m19.921259 22.066929l0 0c0 -5.4822655 3.50309 -10.54503 9.181572 -13.269465c5.678484 -2.7244372 12.663324 -2.6935992 18.307219 0.08082485c5.643894 2.7744246 9.083099 7.867838 9.014133 13.3498l-7.321892 -0.0646534c0.047477722 -2.8584194 -2.008461 -5.5164165 -5.38789 -6.9656715c-3.3794289 -1.449254 -7.564598 -1.4677315 -10.96785 -0.04842186c-3.4032536 1.4193096 -5.503187 4.058958 -5.503187 6.9175873z" fill-rule="evenodd"/><path stroke="#334455" stroke-width="4.0" stroke-linejoin="round" stroke-linecap="butt" d="m19.921259 22.066929l0 0c0 -5.4822655 3.50309 -10.54503 9.181572 -13.269465c5.678484 -2.7244372 12.663324 -2.6935992 18.307219 0.08082485c5.643894 2.7744246 9.083099 7.867838 9.014133 13.3498l-7.321892 -0.0646534c0.047477722 -2.8584194 -2.008461 -5.5164165 -5.38789 -6.9656715c-3.3794289 -1.449254 -7.564598 -1.4677315 -10.96785 -0.04842186c-3.4032536 1.4193096 -5.503187 4.058958 -5.503187 6.9175873z" fill-rule="evenodd"/><path fill="#ee3333" d="m21.84252 21.263594l3.401575 0l0 10.677164l-3.401575 0z" fill-rule="evenodd"/><path fill="#ee3333" d="m51.102364 21.263594l3.4015732 0l0 10.677164l-3.4015732 0z" fill-rule="evenodd"/><path fill="#ee3333" d="m21.84252 22.21744l0 0c0 -4.9925385 3.3196716 -9.579214 8.635723 -11.9316845c5.3160534 -2.35247 11.764162 -2.088253 16.773981 0.6873293c5.009819 2.7755823 7.7668114 7.6112547 7.1719856 12.579419l-3.507164 -0.28812408l0 0c0.49552917 -3.681467 -1.6497765 -7.276082 -5.5779076 -9.3461895c-3.928131 -2.0701065 -8.99786 -2.2777805 -13.181564 -0.53996277c-4.1837006 1.7378178 -6.7984295 5.1374454 -6.7984295 8.839212z" fill-rule="evenodd"/></g></svg>