<svg version="1.1" viewBox="0.0 0.0 75.59055118110236 75.59055118110236" fill="none" stroke="none" stroke-linecap="square" stroke-miterlimit="10" xmlns:xlink="http://www.w3.org/1999/xlink" xmlns="http://www.w3.org/2000/svg"><clipPath id="p.0"><path d="m0 0l75.59055 0l0 75.59055l-75.59055 0l0 -75.59055z" clip-rule="nonzero"/></clipPath><g clip-path="url(#p.0)"><path fill="#000000" fill-opacity="0.0" d="m0 0l75.59055 0l0 75.59055l-75.59055 0z" fill-rule="evenodd"/><path fill="#334455" d="m3.7795277 37.795277l0 0c0 -18.78638 15.229368 -34.015747 34.015747 -34.015747l0 0c9.021538 0 17.673576 3.5837917 24.052765 9.962982c6.3791924 6.3791904 9.962978 15.031229 9.962978 24.052767l0 0c0 18.786377 -15.229366 34.015743 -34.015743 34.015743l0 0c-18.78638 0 -34.015747 -15.229366 -34.015747 -34.015743z" fill-rule="evenodd"/><path fill="#ffffff" d="m8.141732 37.795277l0 0c0 -16.377201 13.276343 -29.653545 29.653545 -29.653545l0 0c7.864609 0 15.407101 3.1242037 20.96822 8.685323c5.561119 5.561117 8.685326 13.103611 8.685326 20.968222l0 0c0 16.377197 -13.276348 29.653545 -29.653545 29.653545l0 0c-16.377201 0 -29.653545 -13.276348 -29.653545 -29.653545z" fill-rule="evenodd"/></g></svg>