<svg version="1.1" viewBox="0.0 0.0 75.59055118110236 75.59055118110236" fill="none" stroke="none" stroke-linecap="square" stroke-miterlimit="10" xmlns:xlink="http://www.w3.org/1999/xlink" xmlns="http://www.w3.org/2000/svg"><clipPath id="p.0"><path d="m0 0l75.59055 0l0 75.59055l-75.59055 0l0 -75.59055z" clip-rule="nonzero"/></clipPath><g clip-path="url(#p.0)"><path fill="#000000" fill-opacity="0.0" d="m0 0l75.59055 0l0 75.59055l-75.59055 0z" fill-rule="evenodd"/><path fill="#334455" d="m3.7795277 37.795277l0 0c0 -18.78638 15.229368 -34.015747 34.015747 -34.015747l0 0c9.021538 0 17.673576 3.5837917 24.052765 9.962982c6.3791924 6.3791904 9.962978 15.031229 9.962978 24.052767l0 0c0 18.786377 -15.229366 34.015743 -34.015743 34.015743l0 0c-18.78638 0 -34.015747 -15.229366 -34.015747 -34.015743z" fill-rule="evenodd"/><path fill="#ffffff" d="m12.125984 37.795277l0 0c0 -14.17676 11.492533 -25.669292 25.669292 -25.669292l0 0c6.8079185 0 13.337002 2.7044353 18.150928 7.518362c4.8139267 4.813925 7.51836 11.34301 7.51836 18.15093l0 0c0 14.176758 -11.492531 25.669289 -25.669289 25.669289l0 0c-14.17676 0 -25.669292 -11.492531 -25.669292 -25.669289z" fill-rule="evenodd"/></g></svg>