<svg version="1.1" viewBox="0.0 0.0 75.59055118110236 75.59055118110236" fill="none" stroke="none" stroke-linecap="square" stroke-miterlimit="10" xmlns:xlink="http://www.w3.org/1999/xlink" xmlns="http://www.w3.org/2000/svg"><clipPath id="p.0"><path d="m0 0l75.59055 0l0 75.59055l-75.59055 0l0 -75.59055z" clip-rule="nonzero"/></clipPath><g clip-path="url(#p.0)"><path fill="#000000" fill-opacity="0.0" d="m0 0l75.59055 0l0 75.59055l-75.59055 0z" fill-rule="evenodd"/><path fill="#ffffff" d="m6.2992125 37.795277l0 0c0 -17.394796 14.101268 -31.496063 31.496063 -31.496063l0 0c8.353275 0 16.364422 3.318326 22.27108 9.224983c5.906658 5.906657 9.224979 13.917804 9.224979 22.27108l0 0c0 17.394794 -14.101265 31.49606 -31.49606 31.49606l0 0c-17.394796 0 -31.496063 -14.101265 -31.496063 -31.49606z" fill-rule="evenodd"/><path stroke="#334455" stroke-width="4.0" stroke-linejoin="round" stroke-linecap="butt" d="m6.2992125 37.795277l0 0c0 -17.394796 14.101268 -31.496063 31.496063 -31.496063l0 0c8.353275 0 16.364422 3.318326 22.27108 9.224983c5.906658 5.906657 9.224979 13.917804 9.224979 22.27108l0 0c0 17.394794 -14.101265 31.49606 -31.49606 31.49606l0 0c-17.394796 0 -31.496063 -14.101265 -31.496063 -31.49606z" fill-rule="evenodd"/></g></svg>