<svg version="1.1" viewBox="0.0 0.0 75.59055118110236 75.59055118110236" fill="none" stroke="none" stroke-linecap="square" stroke-miterlimit="10" xmlns:xlink="http://www.w3.org/1999/xlink" xmlns="http://www.w3.org/2000/svg"><clipPath id="p.0"><path d="m0 0l75.59055 0l0 75.59055l-75.59055 0l0 -75.59055z" clip-rule="nonzero"/></clipPath><g clip-path="url(#p.0)"><path fill="#000000" fill-opacity="0.0" d="m0 0l75.59055 0l0 75.59055l-75.59055 0z" fill-rule="evenodd"/><path fill="#cc0044" d="m69.74796 45.33836l-31.952686 24.409672l-31.95269 -24.409672l12.204841 -39.495678l39.495693 0z" fill-rule="evenodd"/><path stroke="#334455" stroke-width="4.0" stroke-linejoin="round" stroke-linecap="butt" d="m69.74796 45.33836l-31.952686 24.409672l-31.95269 -24.409672l12.204841 -39.495678l39.495693 0z" fill-rule="evenodd"/><path fill="#ffffff" d="m37.795277 29.411407c6.896324 -19.08924 33.791996 0 0 24.543308c-33.791996 -24.543308 -6.896326 -43.632545 0 -24.543308z" fill-rule="evenodd"/><path stroke="#334455" stroke-width="4.0" stroke-linejoin="round" stroke-linecap="butt" d="m37.795277 29.411407c6.896324 -19.08924 33.791996 0 0 24.543308c-33.791996 -24.543308 -6.896326 -43.632545 0 -24.543308z" fill-rule="evenodd"/></g></svg>