<svg version="1.1" viewBox="0.0 0.0 75.59055118110236 75.59055118110236" fill="none" stroke="none" stroke-linecap="square" stroke-miterlimit="10" xmlns:xlink="http://www.w3.org/1999/xlink" xmlns="http://www.w3.org/2000/svg"><clipPath id="p.0"><path d="m0 0l75.59055 0l0 75.59055l-75.59055 0l0 -75.59055z" clip-rule="nonzero"/></clipPath><g clip-path="url(#p.0)"><path fill="#000000" fill-opacity="0.0" d="m0 0l75.59055 0l0 75.59055l-75.59055 0z" fill-rule="evenodd"/><path fill="#cc0044" d="m68.33064 45.003773l-30.535366 23.326939l-30.53537 -23.326939l11.663473 -37.743774l37.74379 0z" fill-rule="evenodd"/><path stroke="#cc0044" stroke-width="4.0" stroke-linejoin="round" stroke-linecap="butt" d="m68.33064 45.003773l-30.535366 23.326939l-30.53537 -23.326939l11.663473 -37.743774l37.74379 0z" fill-rule="evenodd"/><path fill="#000000" fill-opacity="0.0" d="m7.4330707 12.272965l60.724407 0l0 44.755905l-60.724407 0z" fill-rule="evenodd"/><path fill="#ffffff" d="m37.795277 28.797901c7.4081345 -20.485565 36.29987 0 0 26.338581c-36.29987 -26.338581 -7.4081383 -46.824146 0 -26.338581z" fill-rule="evenodd"/><path stroke="#ffffff" stroke-width="1.0" stroke-linejoin="round" stroke-linecap="butt" d="m37.795277 28.797901c7.4081345 -20.485565 36.29987 0 0 26.338581c-36.29987 -26.338581 -7.4081383 -46.824146 0 -26.338581z" fill-rule="evenodd"/></g></svg>