<svg version="1.1" viewBox="0.0 0.0 75.59055118110236 75.59055118110236" fill="none" stroke="none" stroke-linecap="square" stroke-miterlimit="10" xmlns:xlink="http://www.w3.org/1999/xlink" xmlns="http://www.w3.org/2000/svg"><clipPath id="p.0"><path d="m0 0l75.59055 0l0 75.59055l-75.59055 0l0 -75.59055z" clip-rule="nonzero"/></clipPath><g clip-path="url(#p.0)"><path fill="#000000" fill-opacity="0.0" d="m0 0l75.59055 0l0 75.59055l-75.59055 0z" fill-rule="evenodd"/><path fill="#00aa66" d="m6.1062994 15.231684l9.2802305 -9.2802305l13.124577 0l9.280233 9.2802305l0 13.282059l-9.280233 9.28023l-13.124577 0l-9.2802305 -9.28023z" fill-rule="evenodd"/><path stroke="#334455" stroke-width="4.0" stroke-linejoin="round" stroke-linecap="butt" d="m6.1062994 15.231684l9.2802305 -9.2802305l13.124577 0l9.280233 9.2802305l0 13.282059l-9.280233 9.28023l-13.124577 0l-9.2802305 -9.28023z" fill-rule="evenodd"/><path fill="#00aa66" d="m37.79857 15.231684l9.280231 -9.2802305l13.124577 0l9.280235 9.2802305l0 13.282059l-9.280235 9.28023l-13.124577 0l-9.280231 -9.28023z" fill-rule="evenodd"/><path stroke="#334455" stroke-width="4.0" stroke-linejoin="round" stroke-linecap="butt" d="m37.79857 15.231684l9.280231 -9.2802305l13.124577 0l9.280235 9.2802305l0 13.282059l-9.280235 9.28023l-13.124577 0l-9.280231 -9.28023z" fill-rule="evenodd"/><path fill="#00aa66" d="m6.1062994 47.07748l9.2802305 -9.280231l13.124577 0l9.280233 9.280231l0 13.282059l-9.280233 9.280231l-13.124577 0l-9.2802305 -9.280231z" fill-rule="evenodd"/><path stroke="#334455" stroke-width="4.0" stroke-linejoin="round" stroke-linecap="butt" d="m6.1062994 47.07748l9.2802305 -9.280231l13.124577 0l9.280233 9.280231l0 13.282059l-9.280233 9.280231l-13.124577 0l-9.2802305 -9.280231z" fill-rule="evenodd"/><path fill="#00aa66" d="m37.79857 47.07748l9.280231 -9.280231l13.124577 0l9.280235 9.280231l0 13.282059l-9.280235 9.280231l-13.124577 0l-9.280231 -9.280231z" fill-rule="evenodd"/><path stroke="#334455" stroke-width="4.0" stroke-linejoin="round" stroke-linecap="butt" d="m37.79857 47.07748l9.280231 -9.280231l13.124577 0l9.280235 9.280231l0 13.282059l-9.280235 9.280231l-13.124577 0l-9.280231 -9.280231z" fill-rule="evenodd"/></g></svg>