<svg version="1.1" viewBox="0.0 0.0 75.59055118110236 75.59055118110236" fill="none" stroke="none" stroke-linecap="square" stroke-miterlimit="10" xmlns:xlink="http://www.w3.org/1999/xlink" xmlns="http://www.w3.org/2000/svg"><clipPath id="p.0"><path d="m0 0l75.59055 0l0 75.59055l-75.59055 0l0 -75.59055z" clip-rule="nonzero"/></clipPath><g clip-path="url(#p.0)"><path fill="#000000" fill-opacity="0.0" d="m0 0l75.59055 0l0 75.59055l-75.59055 0z" fill-rule="evenodd"/><path fill="#00aa66" d="m5.905512 24.41267l18.680386 -18.680386l26.418756 0l18.680382 18.680386l0 26.765213l-18.680382 18.680386l-26.418756 0l-18.680386 -18.680386z" fill-rule="evenodd"/><path stroke="#334455" stroke-width="4.0" stroke-linejoin="round" stroke-linecap="butt" d="m5.905512 24.41267l18.680386 -18.680386l26.418756 0l18.680382 18.680386l0 26.765213l-18.680382 18.680386l-26.418756 0l-18.680386 -18.680386z" fill-rule="evenodd"/><path fill="#000000" fill-opacity="0.0" d="m5.905512 8.740157l63.779526 0l0 58.110237l-63.779526 0z" fill-rule="evenodd"/><path fill="#ffffff" d="m36.3115 54.875275l-5.359373 0l0 -33.203125l8.249998 0q4.140625 0 6.390625 2.0625q2.25 2.0625 2.25 5.65625l0 6.71875q0 5.640625 -3.8125 6.84375l6.125 11.921875l-5.953125 0l-5.609375 -11.046875l-2.28125 0l0 11.046875zm6.15625 -18.765625l0 -6.71875q0 -1.375 -0.796875 -2.09375q-0.796875 -0.734375 -2.46875 -0.734375l-2.890625 0l0 12.390625l2.890625 0q3.265625 0 3.265625 -2.84375z" fill-rule="nonzero"/></g></svg>