<svg version="1.1" viewBox="0.0 0.0 75.59055118110236 75.59055118110236" fill="none" stroke="none" stroke-linecap="square" stroke-miterlimit="10" xmlns:xlink="http://www.w3.org/1999/xlink" xmlns="http://www.w3.org/2000/svg"><clipPath id="p.0"><path d="m0 0l75.59055 0l0 75.59055l-75.59055 0l0 -75.59055z" clip-rule="nonzero"/></clipPath><g clip-path="url(#p.0)"><path fill="#000000" fill-opacity="0.0" d="m0 0l75.59055 0l0 75.59055l-75.59055 0z" fill-rule="evenodd"/><path fill="#334455" d="m69.70541 9.3246355l-55.13539 55.135387l1.6062994 1.6063004l-11.856737 5.4315414l5.4315405 -11.856735l1.6062994 1.6062965l55.135387 -55.135387z" fill-rule="evenodd"/><path stroke="#334455" stroke-width="1.0" stroke-linejoin="round" stroke-linecap="butt" d="m69.70541 9.3246355l-55.13539 55.135387l1.6062994 1.6063004l-11.856737 5.4315414l5.4315405 -11.856735l1.6062994 1.6062965l55.135387 -55.135387z" fill-rule="evenodd"/><path fill="#334455" d="m7.2283463 36.582676l0 0c0 -16.881647 13.685282 -30.566929 30.56693 -30.566929l0 0c8.1068535 0 15.881672 3.2204351 21.614082 8.952847c5.7324104 5.7324114 8.952847 13.50723 8.952847 21.614082l0 0c0 16.881649 -13.68528 30.566929 -30.566929 30.566929l0 0c-16.881649 0 -30.56693 -13.68528 -30.56693 -30.566929z" fill-rule="evenodd"/><path fill="#ffffff" d="m11.147767 36.580837l0 0c0 -14.715996 11.929673 -26.645668 26.645672 -26.645668l0 0c7.066868 0 13.844299 2.8073034 18.841331 7.8043346c4.997032 4.997032 7.8043327 11.774464 7.8043327 18.841333l0 0c0 14.715996 -11.929668 26.645672 -26.645664 26.645672l0 0c-14.715998 0 -26.645672 -11.929676 -26.645672 -26.645672z" fill-rule="evenodd"/><path fill="#000000" fill-opacity="0.0" d="m5.97605 5.014764l61.133858 0l0 61.133858l-61.133858 0z" fill-rule="evenodd"/><path fill="#334455" d="m39.696117 49.98169l-13.453127 0l0 -27.65625l13.062502 0l0 4.0625l-8.609377 0l0 7.53125l7.000002 0l0 4.0625l-7.000002 0l0 7.9375l9.000002 0l0 4.0625zm8.799988 0l-4.453125 0l0 -27.65625l4.453125 0l0 27.65625z" fill-rule="nonzero"/></g></svg>