<svg version="1.1" viewBox="0.0 0.0 75.59055118110236 75.59055118110236" fill="none" stroke="none" stroke-linecap="square" stroke-miterlimit="10" xmlns:xlink="http://www.w3.org/1999/xlink" xmlns="http://www.w3.org/2000/svg"><clipPath id="p.0"><path d="m0 0l75.59055 0l0 75.59055l-75.59055 0l0 -75.59055z" clip-rule="nonzero"/></clipPath><g clip-path="url(#p.0)"><path fill="#000000" fill-opacity="0.0" d="m0 0l75.59055 0l0 75.59055l-75.59055 0z" fill-rule="evenodd"/><path fill="#334455" d="m5.636185 66.67074l54.15901 -54.15901l-1.6063004 -1.6062994l11.856735 -5.43154l-5.431534 11.856737l-1.6063042 -1.6062994l-54.15901 54.159008z" fill-rule="evenodd"/><path stroke="#334455" stroke-width="4.0" stroke-linejoin="round" stroke-linecap="butt" d="m5.636185 66.67074l54.15901 -54.15901l-1.6063004 -1.6062994l11.856735 -5.43154l-5.431534 11.856737l-1.6063042 -1.6062994l-54.15901 54.159008z" fill-rule="evenodd"/><path fill="#ffffff" d="m9.228347 37.795277l0 0c0 -15.777081 12.789849 -28.566929 28.566929 -28.566929l0 0c7.57642 0 14.842529 3.0097208 20.199867 8.367059c5.357338 5.35734 8.367062 12.623449 8.367062 20.199871l0 0c0 15.777077 -12.789852 28.566929 -28.566929 28.566929l0 0c-15.777081 0 -28.566929 -12.789852 -28.566929 -28.566929z" fill-rule="evenodd"/><path stroke="#334455" stroke-width="4.0" stroke-linejoin="round" stroke-linecap="butt" d="m9.228347 37.795277l0 0c0 -15.777081 12.789849 -28.566929 28.566929 -28.566929l0 0c7.57642 0 14.842529 3.0097208 20.199867 8.367059c5.357338 5.35734 8.367062 12.623449 8.367062 20.199871l0 0c0 15.777077 -12.789852 28.566929 -28.566929 28.566929l0 0c-15.777081 0 -28.566929 -12.789852 -28.566929 -28.566929z" fill-rule="evenodd"/><path fill="#000000" fill-opacity="0.0" d="m7.2280183 7.227362l61.133858 0l0 61.133858l-61.133858 0z" fill-rule="evenodd"/><path fill="#334455" d="m37.448086 52.19429l-13.453127 0l0 -27.656252l13.062502 0l0 4.0625l-8.609377 0l0 7.531252l7.000002 0l0 4.0625l-7.000002 0l0 7.9375l9.000002 0l0 4.0625zm17.799988 0l-13.453125 0l0 -27.656252l13.0625 0l0 4.0625l-8.609375 0l0 7.531252l7.0 0l0 4.0625l-7.0 0l0 7.9375l9.0 0l0 4.0625z" fill-rule="nonzero"/></g></svg>