<svg version="1.1" viewBox="0.0 0.0 75.59055118110236 75.59055118110236" fill="none" stroke="none" stroke-linecap="square" stroke-miterlimit="10" xmlns:xlink="http://www.w3.org/1999/xlink" xmlns="http://www.w3.org/2000/svg"><clipPath id="p.0"><path d="m0 0l75.59055 0l0 75.59055l-75.59055 0l0 -75.59055z" clip-rule="nonzero"/></clipPath><g clip-path="url(#p.0)"><path fill="#000000" fill-opacity="0.0" d="m0 0l75.59055 0l0 75.59055l-75.59055 0z" fill-rule="evenodd"/><path fill="#0077ff" d="m7.225722 36.58005l0 0c0 -16.881647 13.68528 -30.566929 30.56693 -30.566929l0 0c8.1068535 0 15.881672 3.2204351 21.614082 8.952847c5.7324104 5.7324114 8.952847 13.507228 8.952847 21.614082l0 0c0 16.881649 -13.68528 30.566929 -30.566929 30.566929l0 0c-16.88165 0 -30.56693 -13.68528 -30.56693 -30.566929z" fill-rule="evenodd"/><path fill="#0077ff" d="m11.145647 36.57872l0 0c0 -14.715998 11.929672 -26.645672 26.64567 -26.645672l0 0c7.0668716 0 13.844299 2.8073034 18.841331 7.8043356c4.997036 4.997032 7.8043404 11.774462 7.8043404 18.841335l0 0c0 14.715996 -11.929676 26.645668 -26.645672 26.645668l0 0c-14.715998 0 -26.64567 -11.929672 -26.64567 -26.645668z" fill-rule="evenodd"/><path fill="#000000" fill-opacity="0.0" d="m11.144357 9.362205l53.291336 0l0 53.291336l-53.291336 0z" fill-rule="evenodd"/><path fill="#ffffff" d="m37.95692 51.74787l-4.890625 0l0 -30.40625l13.906246 0l0 4.453125l-9.015621 0l0 8.296875l7.249996 0l0 4.453125l-7.249996 0l0 13.203125z" fill-rule="nonzero"/></g></svg>