<svg version="1.1" viewBox="0.0 0.0 75.59055118110236 75.59055118110236" fill="none" stroke="none" stroke-linecap="square" stroke-miterlimit="10" xmlns:xlink="http://www.w3.org/1999/xlink" xmlns="http://www.w3.org/2000/svg"><clipPath id="p.0"><path d="m0 0l75.59055 0l0 75.59055l-75.59055 0l0 -75.59055z" clip-rule="nonzero"/></clipPath><g clip-path="url(#p.0)"><path fill="#000000" fill-opacity="0.0" d="m0 0l75.59055 0l0 75.59055l-75.59055 0z" fill-rule="evenodd"/><path fill="#334455" d="m68.33064 45.003773l-30.535366 23.326939l-30.53537 -23.326939l11.663473 -37.743774l37.74379 0z" fill-rule="evenodd"/><path stroke="#334455" stroke-width="4.0" stroke-linejoin="round" stroke-linecap="butt" d="m68.33064 45.003773l-30.535366 23.326939l-30.53537 -23.326939l11.663473 -37.743774l37.74379 0z" fill-rule="evenodd"/><path fill="#000000" fill-opacity="0.0" d="m7.4330707 12.272965l60.724407 0l0 44.755905l-60.724407 0z" fill-rule="evenodd"/><path fill="#ffffff" d="m35.570873 23.418417l0 7.59375l3.75 0q4.109375 0 6.375 2.171873q2.265625 2.15625 2.265625 5.78125l0 5.765625q0 7.71875 -9.125 7.71875q-9.109375 0 -9.109375 -7.71875l0 -5.078125l5.359375 0l0 5.265625q0 1.25 0.875 1.953125q0.875 0.703125 2.875 0.703125q2.015625 0 2.890625 -0.703125q0.875 -0.703125 0.875 -1.953125l0 -5.953125q0 -1.140625 -0.875 -2.109375q-0.875 -0.96875 -2.40625 -0.96875l-9.109375 0l0 -17.359373l17.265625 0l0 4.890625l-11.90625 0z" fill-rule="nonzero"/></g></svg>