<svg version="1.1" viewBox="0.0 0.0 75.59055118110236 75.59055118110236" fill="none" stroke="none" stroke-linecap="square" stroke-miterlimit="10" xmlns:xlink="http://www.w3.org/1999/xlink" xmlns="http://www.w3.org/2000/svg"><clipPath id="p.0"><path d="m0 0l75.59055 0l0 75.59055l-75.59055 0l0 -75.59055z" clip-rule="nonzero"/></clipPath><g clip-path="url(#p.0)"><path fill="#000000" fill-opacity="0.0" d="m0 0l75.59055 0l0 75.59055l-75.59055 0z" fill-rule="evenodd"/><path fill="#334455" d="m6.2992125 37.795277l0 0c0 -17.394796 14.101268 -31.496063 31.496063 -31.496063l0 0c8.353275 0 16.364422 3.318326 22.27108 9.224983c5.906658 5.906657 9.224979 13.917804 9.224979 22.27108l0 0c0 17.394794 -14.101265 31.49606 -31.49606 31.49606l0 0c-17.394796 0 -31.496063 -14.101265 -31.496063 -31.49606z" fill-rule="evenodd"/><path stroke="#334455" stroke-width="4.0" stroke-linejoin="round" stroke-linecap="butt" d="m6.2992125 37.795277l0 0c0 -17.394796 14.101268 -31.496063 31.496063 -31.496063l0 0c8.353275 0 16.364422 3.318326 22.27108 9.224983c5.906658 5.906657 9.224979 13.917804 9.224979 22.27108l0 0c0 17.394794 -14.101265 31.49606 -31.49606 31.49606l0 0c-17.394796 0 -31.496063 -14.101265 -31.496063 -31.49606z" fill-rule="evenodd"/><path fill="#000000" fill-opacity="0.0" d="m3.7795277 15.590551l68.031494 0l0 44.409447l-68.031494 0z" fill-rule="evenodd"/><path fill="#ffffff" d="m29.160915 32.01652l0 12.265625q0 2.328125 -1.5 3.625q-1.5 1.28125 -4.328125 1.28125q-2.8125 0 -4.328125 -1.28125q-1.515625 -1.28125 -1.515625 -3.625l0 -12.265625q0 -2.343748 1.5 -3.624998q1.5 -1.296875 4.3125 -1.296875q2.828125 0 4.34375 1.28125q1.515625 1.28125 1.515625 3.640623zm-3.390625 12.265625l0 -12.265625q0 -1.8281231 -2.453125 -1.8281231q-2.4375 0 -2.4375 1.8281231l0 12.265625q0 1.828125 2.4375 1.828125q2.453125 0 2.453125 -1.828125zm11.212856 4.453125l-3.4062462 0l0 -21.171873l5.249996 0q2.640625 0 4.0625 1.3125q1.4375 1.296875 1.4375 3.593748l0 4.296875q0 3.578125 -2.421875 4.359375l3.890625 7.609375l-3.765625 0l-3.59375 -7.046875l-1.453125 0l0 7.046875zm3.953125 -11.96875l0 -4.296875q0 -0.8749981 -0.515625 -1.3437481q-0.515625 -0.484375 -1.59375 -0.484375l-1.84375 0l0 7.953123l1.84375 0q2.109375 0 2.109375 -1.828125zm11.587067 3.6875l0 -3.078125l6.828125 0l0 11.359375l-1.96875 0l-0.46875 -1.171875q-0.078125 0.140625 -1.265625 0.890625q-1.171875 0.734375 -2.59375 0.734375q-5.0625 0 -5.0625 -4.90625l0 -12.265625q0 -2.343748 1.453125 -3.624998q1.453125 -1.296875 4.1875 -1.296875q2.75 0 4.234375 1.296875q1.484375 1.28125 1.484375 3.624998l0 2.3125l-3.390625 0l0 -2.3125q0 -1.8281231 -2.296875 -1.8281231q-2.28125 0 -2.28125 1.8281231l0 12.265625q0 0.953125 0.328125 1.390625q0.34375 0.4375 1.359375 0.4375q1.03125 0 1.953125 -0.859375q0.9375 -0.875 0.9375 -1.578125l0 -3.21875l-3.4375 0z" fill-rule="nonzero"/></g></svg>