<svg version="1.1" viewBox="0.0 0.0 75.59055118110236 75.59055118110236" fill="none" stroke="none" stroke-linecap="square" stroke-miterlimit="10" xmlns:xlink="http://www.w3.org/1999/xlink" xmlns="http://www.w3.org/2000/svg"><clipPath id="p.0"><path d="m0 0l75.59055 0l0 75.59055l-75.59055 0l0 -75.59055z" clip-rule="nonzero"/></clipPath><g clip-path="url(#p.0)"><path fill="#000000" fill-opacity="0.0" d="m0 0l75.59055 0l0 75.59055l-75.59055 0z" fill-rule="evenodd"/><path fill="#334455" d="m3.7795277 37.795277l0 0c0 -18.78638 15.229368 -34.015747 34.015747 -34.015747l0 0c9.021538 0 17.673576 3.5837917 24.052765 9.962982c6.3791924 6.3791904 9.962978 15.031229 9.962978 24.052767l0 0c0 18.786377 -15.229366 34.015743 -34.015743 34.015743l0 0c-18.78638 0 -34.015747 -15.229366 -34.015747 -34.015743z" fill-rule="evenodd"/><path fill="#ffffff" d="m11.070867 37.795277l0 0c0 -14.759485 11.964925 -26.724411 26.724411 -26.724411l0 0c7.0877533 0 13.885212 2.8155985 18.89701 7.8273973c5.011799 5.011799 7.8273964 11.8092575 7.8273964 18.897013l0 0c0 14.759483 -11.964924 26.724407 -26.724407 26.724407l0 0c-14.759485 0 -26.724411 -11.964924 -26.724411 -26.724407z" fill-rule="evenodd"/><path fill="#000000" fill-opacity="0.0" d="m3.7795277 15.590551l68.031494 0l0 44.409447l-68.031494 0z" fill-rule="evenodd"/><path fill="#334455" d="m29.160915 32.01652l0 12.265625q0 2.328125 -1.5 3.625q-1.5 1.28125 -4.328125 1.28125q-2.8125 0 -4.328125 -1.28125q-1.515625 -1.28125 -1.515625 -3.625l0 -12.265625q0 -2.343748 1.5 -3.624998q1.5 -1.296875 4.3125 -1.296875q2.828125 0 4.34375 1.28125q1.515625 1.28125 1.515625 3.640623zm-3.390625 12.265625l0 -12.265625q0 -1.8281231 -2.453125 -1.8281231q-2.4375 0 -2.4375 1.8281231l0 12.265625q0 1.828125 2.4375 1.828125q2.453125 0 2.453125 -1.828125zm11.212856 4.453125l-3.4062462 0l0 -21.171873l5.249996 0q2.640625 0 4.0625 1.3125q1.4375 1.296875 1.4375 3.593748l0 4.296875q0 3.578125 -2.421875 4.359375l3.890625 7.609375l-3.765625 0l-3.59375 -7.046875l-1.453125 0l0 7.046875zm3.953125 -11.96875l0 -4.296875q0 -0.8749981 -0.515625 -1.3437481q-0.515625 -0.484375 -1.59375 -0.484375l-1.84375 0l0 7.953123l1.84375 0q2.109375 0 2.109375 -1.828125zm11.587067 3.6875l0 -3.078125l6.828125 0l0 11.359375l-1.96875 0l-0.46875 -1.171875q-0.078125 0.140625 -1.265625 0.890625q-1.171875 0.734375 -2.59375 0.734375q-5.0625 0 -5.0625 -4.90625l0 -12.265625q0 -2.343748 1.453125 -3.624998q1.453125 -1.296875 4.1875 -1.296875q2.75 0 4.234375 1.296875q1.484375 1.28125 1.484375 3.624998l0 2.3125l-3.390625 0l0 -2.3125q0 -1.8281231 -2.296875 -1.8281231q-2.28125 0 -2.28125 1.8281231l0 12.265625q0 0.953125 0.328125 1.390625q0.34375 0.4375 1.359375 0.4375q1.03125 0 1.953125 -0.859375q0.9375 -0.875 0.9375 -1.578125l0 -3.21875l-3.4375 0z" fill-rule="nonzero"/></g></svg>