<svg version="1.1" viewBox="0.0 0.0 75.59055118110236 75.59055118110236" fill="none" stroke="none" stroke-linecap="square" stroke-miterlimit="10" xmlns:xlink="http://www.w3.org/1999/xlink" xmlns="http://www.w3.org/2000/svg"><clipPath id="p.0"><path d="m0 0l75.59055 0l0 75.59055l-75.59055 0l0 -75.59055z" clip-rule="nonzero"/></clipPath><g clip-path="url(#p.0)"><path fill="#000000" fill-opacity="0.0" d="m0 0l75.59055 0l0 75.59055l-75.59055 0z" fill-rule="evenodd"/><path fill="#00aa66" d="m5.2217546 49.249435l0 0c0 -8.993107 7.290355 -16.283463 16.283464 -16.283463l0 0c4.3186436 0 8.460407 1.7155724 11.514149 4.7693176c3.0537415 3.0537415 4.7693176 7.195503 4.7693176 11.514145l0 0c0 8.993111 -7.2903557 16.283463 -16.283466 16.283463l0 0c-8.993109 0 -16.283464 -7.290352 -16.283464 -16.283463z" fill-rule="evenodd"/><path stroke="#334455" stroke-width="3.0" stroke-linejoin="round" stroke-linecap="butt" d="m5.2217546 49.249435l0 0c0 -8.993107 7.290355 -16.283463 16.283464 -16.283463l0 0c4.3186436 0 8.460407 1.7155724 11.514149 4.7693176c3.0537415 3.0537415 4.7693176 7.195503 4.7693176 11.514145l0 0c0 8.993111 -7.2903557 16.283463 -16.283466 16.283463l0 0c-8.993109 0 -16.283464 -7.290352 -16.283464 -16.283463z" fill-rule="evenodd"/><path fill="#334455" d="m59.338108 10.085317l-36.165512 36.165512l0.93745995 0.93745804l-6.9197655 3.1699257l3.1699276 -6.9197655l0.93745995 0.93746185l36.16551 -36.165512z" fill-rule="evenodd"/><path stroke="#334455" stroke-width="3.0" stroke-linejoin="round" stroke-linecap="butt" d="m59.338108 10.085317l-36.165512 36.165512l0.93745995 0.93745804l-6.9197655 3.1699257l3.1699276 -6.9197655l0.93745995 0.93746185l36.16551 -36.165512z" fill-rule="evenodd"/><path fill="#ffffff" d="m21.71813 29.532986l0 0c0 -9.235731 7.4870377 -16.722769 16.722769 -16.722769l0 0c4.435154 0 8.688656 1.761858 11.824783 4.8979855c3.1361275 3.1361275 4.8979836 7.3896294 4.8979836 11.824783l0 0c0 9.235729 -7.4870377 16.722767 -16.722767 16.722767l0 0c-9.235731 0 -16.722769 -7.4870377 -16.722769 -16.722767z" fill-rule="evenodd"/><path stroke="#334455" stroke-width="3.0" stroke-linejoin="round" stroke-linecap="butt" d="m21.71813 29.532986l0 0c0 -9.235731 7.4870377 -16.722769 16.722769 -16.722769l0 0c4.435154 0 8.688656 1.761858 11.824783 4.8979855c3.1361275 3.1361275 4.8979836 7.3896294 4.8979836 11.824783l0 0c0 9.235729 -7.4870377 16.722767 -16.722767 16.722767l0 0c-9.235731 0 -16.722769 -7.4870377 -16.722769 -16.722767z" fill-rule="evenodd"/><path fill="#0077ff" d="m37.802418 49.248783l0 0c0 -8.993111 7.2903557 -16.283466 16.283466 -16.283466l0 0c4.3186417 0 8.460403 1.7155762 11.514145 4.7693176c3.0537415 3.0537415 4.7693176 7.195503 4.7693176 11.514149l0 0c0 8.993107 -7.2903557 16.283466 -16.283463 16.283466l0 0c-8.993111 0 -16.283466 -7.2903595 -16.283466 -16.283466z" fill-rule="evenodd"/><path stroke="#334455" stroke-width="3.0" stroke-linejoin="round" stroke-linecap="butt" d="m37.802418 49.248783l0 0c0 -8.993111 7.2903557 -16.283466 16.283466 -16.283466l0 0c4.3186417 0 8.460403 1.7155762 11.514145 4.7693176c3.0537415 3.0537415 4.7693176 7.195503 4.7693176 11.514149l0 0c0 8.993107 -7.2903557 16.283466 -16.283463 16.283466l0 0c-8.993111 0 -16.283466 -7.2903595 -16.283466 -16.283466z" fill-rule="evenodd"/></g></svg>