<svg version="1.1" viewBox="0.0 0.0 75.59055118110236 75.59055118110236" fill="none" stroke="none" stroke-linecap="square" stroke-miterlimit="10" xmlns:xlink="http://www.w3.org/1999/xlink" xmlns="http://www.w3.org/2000/svg"><clipPath id="p.0"><path d="m0 0l75.59055 0l0 75.59055l-75.59055 0l0 -75.59055z" clip-rule="nonzero"/></clipPath><g clip-path="url(#p.0)"><path fill="#000000" fill-opacity="0.0" d="m0 0l75.59055 0l0 75.59055l-75.59055 0z" fill-rule="evenodd"/><path fill="#00aa66" d="m10.706024 50.538277l0 0c0 -7.479759 6.063545 -13.543304 13.543306 -13.543304l0 0c3.5919094 0 7.036701 1.4268799 9.576563 3.9667397c2.5398636 2.5398636 3.9667435 5.9846573 3.9667435 9.576565l0 0c0 7.479763 -6.0635433 13.543304 -13.543306 13.543304l0 0c-7.479761 0 -13.543306 -6.0635414 -13.543306 -13.543304z" fill-rule="evenodd"/><path stroke="#00aa66" stroke-width="4.0" stroke-linejoin="round" stroke-linecap="butt" d="m10.706024 50.538277l0 0c0 -7.479759 6.063545 -13.543304 13.543306 -13.543304l0 0c3.5919094 0 7.036701 1.4268799 9.576563 3.9667397c2.5398636 2.5398636 3.9667435 5.9846573 3.9667435 9.576565l0 0c0 7.479763 -6.0635433 13.543304 -13.543306 13.543304l0 0c-7.479761 0 -13.543306 -6.0635414 -13.543306 -13.543304z" fill-rule="evenodd"/><path fill="#334455" d="m24.439268 26.646961l0 0c0 -7.479761 6.063545 -13.543307 13.543306 -13.543307l0 0c3.5919075 0 7.036701 1.4268799 9.576565 3.9667425c2.5398636 2.5398636 3.9667435 5.9846573 3.9667435 9.576565l0 0c0 7.479763 -6.063545 13.543308 -13.543308 13.543308l0 0c-7.479761 0 -13.543306 -6.063545 -13.543306 -13.543308z" fill-rule="evenodd"/><path stroke="#334455" stroke-width="4.0" stroke-linejoin="round" stroke-linecap="butt" d="m24.439268 26.646961l0 0c0 -7.479761 6.063545 -13.543307 13.543306 -13.543307l0 0c3.5919075 0 7.036701 1.4268799 9.576565 3.9667425c2.5398636 2.5398636 3.9667435 5.9846573 3.9667435 9.576565l0 0c0 7.479763 -6.063545 13.543308 -13.543308 13.543308l0 0c-7.479761 0 -13.543306 -6.063545 -13.543306 -13.543308z" fill-rule="evenodd"/><path fill="#334455" d="m54.444954 11.840065l-28.178644 28.178642l1.307087 1.307087l-9.6481285 4.4197807l4.4197826 -9.6481285l1.307087 1.307087l28.178642 -28.178642z" fill-rule="evenodd"/><path stroke="#334455" stroke-width="1.0" stroke-linejoin="round" stroke-linecap="butt" d="m54.444954 11.840065l-28.178644 28.178642l1.307087 1.307087l-9.6481285 4.4197807l4.4197826 -9.6481285l1.307087 1.307087l28.178642 -28.178642z" fill-rule="evenodd"/><path fill="#0077ff" d="m37.79807 50.53773l0 0c0 -7.479759 6.063545 -13.543304 13.543304 -13.543304l0 0c3.5919113 0 7.036701 1.4268799 9.576565 3.9667435c2.5398636 2.5398598 3.9667435 5.9846535 3.9667435 9.576561l0 0c0 7.479763 -6.063545 13.543308 -13.543308 13.543308l0 0c-7.479759 0 -13.543304 -6.063545 -13.543304 -13.543308z" fill-rule="evenodd"/><path stroke="#0077ff" stroke-width="4.0" stroke-linejoin="round" stroke-linecap="butt" d="m37.79807 50.53773l0 0c0 -7.479759 6.063545 -13.543304 13.543304 -13.543304l0 0c3.5919113 0 7.036701 1.4268799 9.576565 3.9667435c2.5398636 2.5398598 3.9667435 5.9846535 3.9667435 9.576561l0 0c0 7.479763 -6.063545 13.543308 -13.543308 13.543308l0 0c-7.479759 0 -13.543304 -6.063545 -13.543304 -13.543308z" fill-rule="evenodd"/></g></svg>