<svg version="1.1" viewBox="0.0 0.0 75.59055118110236 75.59055118110236" fill="none" stroke="none" stroke-linecap="square" stroke-miterlimit="10" xmlns:xlink="http://www.w3.org/1999/xlink" xmlns="http://www.w3.org/2000/svg"><clipPath id="p.0"><path d="m0 0l75.59055 0l0 75.59055l-75.59055 0l0 -75.59055z" clip-rule="nonzero"/></clipPath><g clip-path="url(#p.0)"><path fill="#000000" fill-opacity="0.0" d="m0 0l75.59055 0l0 75.59055l-75.59055 0z" fill-rule="evenodd"/><path fill="#00bbcc" d="m5.569431 56.785954l0 0c0 -7.2014465 5.8379245 -13.039368 13.03937 -13.039368l0 0c3.4582558 0 6.77487 1.3737831 9.220226 3.8191414c2.4453564 2.4453545 3.8191433 5.7619705 3.8191433 9.220226l0 0c0 7.2014465 -5.837925 13.0393715 -13.03937 13.0393715l0 0c-7.2014456 0 -13.03937 -5.837925 -13.03937 -13.0393715z" fill-rule="evenodd"/><path stroke="#334455" stroke-width="4.0" stroke-linejoin="round" stroke-linecap="butt" d="m5.569431 56.785954l0 0c0 -7.2014465 5.8379245 -13.039368 13.03937 -13.039368l0 0c3.4582558 0 6.77487 1.3737831 9.220226 3.8191414c2.4453564 2.4453545 3.8191433 5.7619705 3.8191433 9.220226l0 0c0 7.2014465 -5.837925 13.0393715 -13.03937 13.0393715l0 0c-7.2014456 0 -13.03937 -5.837925 -13.03937 -13.0393715z" fill-rule="evenodd"/><path fill="#00bbcc" d="m31.63425 56.78543l0 0c0 -7.2014465 5.837925 -13.0393715 13.039368 -13.0393715l0 0c3.4582558 0 6.774872 1.3737869 9.22023 3.8191452c2.4453545 2.4453545 3.8191414 5.7619705 3.8191414 9.220226l0 0c0 7.2014427 -5.837925 13.039368 -13.0393715 13.039368l0 0c-7.2014427 0 -13.039368 -5.837925 -13.039368 -13.039368z" fill-rule="evenodd"/><path stroke="#334455" stroke-width="4.0" stroke-linejoin="round" stroke-linecap="butt" d="m31.63425 56.78543l0 0c0 -7.2014465 5.837925 -13.0393715 13.039368 -13.0393715l0 0c3.4582558 0 6.774872 1.3737869 9.22023 3.8191452c2.4453545 2.4453545 3.8191414 5.7619705 3.8191414 9.220226l0 0c0 7.2014427 -5.837925 13.039368 -13.0393715 13.039368l0 0c-7.2014427 0 -13.039368 -5.837925 -13.039368 -13.039368z" fill-rule="evenodd"/><path fill="#00bbcc" d="m17.774427 33.800518l0 0c0 -7.2014446 5.837925 -13.03937 13.03937 -13.03937l0 0c3.4582558 0 6.774872 1.3737869 9.220226 3.8191433c2.4453583 2.4453545 3.8191452 5.7619705 3.8191452 9.220226l0 0c0 7.2014465 -5.837925 13.0393715 -13.0393715 13.0393715l0 0c-7.2014446 0 -13.03937 -5.837925 -13.03937 -13.0393715z" fill-rule="evenodd"/><path stroke="#334455" stroke-width="4.0" stroke-linejoin="round" stroke-linecap="butt" d="m17.774427 33.800518l0 0c0 -7.2014446 5.837925 -13.03937 13.03937 -13.03937l0 0c3.4582558 0 6.774872 1.3737869 9.220226 3.8191433c2.4453583 2.4453545 3.8191452 5.7619705 3.8191452 9.220226l0 0c0 7.2014465 -5.837925 13.0393715 -13.0393715 13.0393715l0 0c-7.2014446 0 -13.03937 -5.837925 -13.03937 -13.0393715z" fill-rule="evenodd"/><path fill="#00bbcc" d="m43.838535 33.800518l0 0c0 -7.2014446 5.837925 -13.03937 13.0393715 -13.03937l0 0c3.4582558 0 6.774868 1.3737869 9.220222 3.8191433c2.4453583 2.4453545 3.8191452 5.7619705 3.8191452 9.220226l0 0c0 7.2014465 -5.837921 13.0393715 -13.039368 13.0393715l0 0c-7.2014465 0 -13.0393715 -5.837925 -13.0393715 -13.0393715z" fill-rule="evenodd"/><path stroke="#334455" stroke-width="4.0" stroke-linejoin="round" stroke-linecap="butt" d="m43.838535 33.800518l0 0c0 -7.2014446 5.837925 -13.03937 13.0393715 -13.03937l0 0c3.4582558 0 6.774868 1.3737869 9.220222 3.8191433c2.4453583 2.4453545 3.8191452 5.7619705 3.8191452 9.220226l0 0c0 7.2014465 -5.837921 13.0393715 -13.039368 13.0393715l0 0c-7.2014465 0 -13.0393715 -5.837925 -13.0393715 -13.0393715z" fill-rule="evenodd"/></g></svg>