<svg version="1.1" viewBox="0.0 0.0 75.59055118110236 75.59055118110236" fill="none" stroke="none" stroke-linecap="square" stroke-miterlimit="10" xmlns:xlink="http://www.w3.org/1999/xlink" xmlns="http://www.w3.org/2000/svg"><clipPath id="p.0"><path d="m0 0l75.59055 0l0 75.59055l-75.59055 0l0 -75.59055z" clip-rule="nonzero"/></clipPath><g clip-path="url(#p.0)"><path fill="#000000" fill-opacity="0.0" d="m0 0l75.59055 0l0 75.59055l-75.59055 0z" fill-rule="evenodd"/><path fill="#00aa66" d="m4.3635044 49.74038l0 0c0 -7.479763 6.063545 -13.543308 13.543306 -13.543308l0 0c3.5919094 0 7.036701 1.4268799 9.576565 3.9667435c2.5398636 2.5398598 3.9667435 5.9846535 3.9667435 9.576565l0 0c0 7.479759 -6.063545 13.543304 -13.543308 13.543304l0 0c-7.479761 0 -13.543306 -6.063545 -13.543306 -13.543304z" fill-rule="evenodd"/><path stroke="#00aa66" stroke-width="4.0" stroke-linejoin="round" stroke-linecap="butt" d="m4.3635044 49.74038l0 0c0 -7.479763 6.063545 -13.543308 13.543306 -13.543308l0 0c3.5919094 0 7.036701 1.4268799 9.576565 3.9667435c2.5398636 2.5398598 3.9667435 5.9846535 3.9667435 9.576565l0 0c0 7.479759 -6.063545 13.543304 -13.543308 13.543304l0 0c-7.479761 0 -13.543306 -6.063545 -13.543306 -13.543304z" fill-rule="evenodd"/><path fill="#334455" d="m17.049503 25.84906l0 0c0 -7.479761 6.063545 -13.543306 13.543308 -13.543306l0 0c3.5919075 0 7.036701 1.4268799 9.576565 3.9667435c2.5398636 2.5398617 3.9667435 5.9846554 3.9667435 9.576563l0 0c0 7.479763 -6.063545 13.543308 -13.543308 13.543308l0 0c-7.479763 0 -13.543308 -6.063545 -13.543308 -13.543308z" fill-rule="evenodd"/><path stroke="#334455" stroke-width="4.0" stroke-linejoin="round" stroke-linecap="butt" d="m17.049503 25.84906l0 0c0 -7.479761 6.063545 -13.543306 13.543308 -13.543306l0 0c3.5919075 0 7.036701 1.4268799 9.576565 3.9667435c2.5398636 2.5398617 3.9667435 5.9846554 3.9667435 9.576563l0 0c0 7.479763 -6.063545 13.543308 -13.543308 13.543308l0 0c-7.479763 0 -13.543308 -6.063545 -13.543308 -13.543308z" fill-rule="evenodd"/><path fill="#0077ff" d="m44.14081 25.84906l0 0c0 -7.479761 6.063545 -13.543306 13.543308 -13.543306l0 0c3.5919075 0 7.036701 1.4268799 9.576565 3.9667435c2.5398636 2.5398617 3.9667435 5.9846554 3.9667435 9.576563l0 0c0 7.479763 -6.063545 13.543308 -13.543308 13.543308l0 0c-7.479763 0 -13.543308 -6.063545 -13.543308 -13.543308z" fill-rule="evenodd"/><path stroke="#0077ff" stroke-width="4.0" stroke-linejoin="round" stroke-linecap="butt" d="m44.14081 25.84906l0 0c0 -7.479761 6.063545 -13.543306 13.543308 -13.543306l0 0c3.5919075 0 7.036701 1.4268799 9.576565 3.9667435c2.5398636 2.5398617 3.9667435 5.9846554 3.9667435 9.576563l0 0c0 7.479763 -6.063545 13.543308 -13.543308 13.543308l0 0c-7.479763 0 -13.543308 -6.063545 -13.543308 -13.543308z" fill-rule="evenodd"/><path fill="#334455" d="m12.837341 39.18127l28.178642 -28.178642l-1.307087 -1.307087l9.6481285 -4.419782l-4.4197807 9.6481285l-1.307087 -1.307087l-28.178642 28.178642z" fill-rule="evenodd"/><path stroke="#334455" stroke-width="1.0" stroke-linejoin="round" stroke-linecap="butt" d="m12.837341 39.18127l28.178642 -28.178642l-1.307087 -1.307087l9.6481285 -4.419782l-4.4197807 9.6481285l-1.307087 -1.307087l-28.178642 28.178642z" fill-rule="evenodd"/><path fill="#334455" d="m61.27566 35.291508l-28.178642 28.178642l1.307087 1.307087l-9.64813 4.4197845l4.4197826 -9.648132l1.307087 1.307087l28.178642 -28.178642z" fill-rule="evenodd"/><path stroke="#334455" stroke-width="1.0" stroke-linejoin="round" stroke-linecap="butt" d="m61.27566 35.291508l-28.178642 28.178642l1.307087 1.307087l-9.64813 4.4197845l4.4197826 -9.648132l1.307087 1.307087l28.178642 -28.178642z" fill-rule="evenodd"/><path fill="#334455" d="m31.455547 49.739834l0 0c0 -7.479763 6.063545 -13.543308 13.543308 -13.543308l0 0c3.5919075 0 7.036701 1.4268799 9.576565 3.9667435c2.5398636 2.5398636 3.9667435 5.9846573 3.9667435 9.576565l0 0c0 7.479759 -6.063545 13.543304 -13.543308 13.543304l0 0c-7.479763 0 -13.543308 -6.063545 -13.543308 -13.543304z" fill-rule="evenodd"/><path stroke="#334455" stroke-width="4.0" stroke-linejoin="round" stroke-linecap="butt" d="m31.455547 49.739834l0 0c0 -7.479763 6.063545 -13.543308 13.543308 -13.543308l0 0c3.5919075 0 7.036701 1.4268799 9.576565 3.9667435c2.5398636 2.5398636 3.9667435 5.9846573 3.9667435 9.576565l0 0c0 7.479759 -6.063545 13.543304 -13.543308 13.543304l0 0c-7.479763 0 -13.543308 -6.063545 -13.543308 -13.543304z" fill-rule="evenodd"/></g></svg>