<svg version="1.1" viewBox="0.0 0.0 79.37007874015748 75.59055118110236" fill="none" stroke="none" stroke-linecap="square" stroke-miterlimit="10" xmlns:xlink="http://www.w3.org/1999/xlink" xmlns="http://www.w3.org/2000/svg"><clipPath id="p.0"><path d="m0 0l79.37008 0l0 75.59055l-79.37008 0l0 -75.59055z" clip-rule="nonzero"/></clipPath><g clip-path="url(#p.0)"><path fill="#000000" fill-opacity="0.0" d="m0 0l79.37008 0l0 75.59055l-79.37008 0z" fill-rule="evenodd"/><path fill="#00bbcc" d="m5.6509185 52.854576l0 0c0 -9.367096 7.593533 -16.960629 16.96063 -16.960629l0 0c4.4982376 0 8.812241 1.7869186 11.992977 4.9676514c3.1807327 3.1807365 4.9676514 7.4947395 4.9676514 11.992977l0 0c0 9.367096 -7.5935326 16.960632 -16.960629 16.960632l0 0c-9.367098 0 -16.96063 -7.5935364 -16.96063 -16.960632z" fill-rule="evenodd"/><path stroke="#334455" stroke-width="4.0" stroke-linejoin="round" stroke-linecap="butt" d="m5.6509185 52.854576l0 0c0 -9.367096 7.593533 -16.960629 16.96063 -16.960629l0 0c4.4982376 0 8.812241 1.7869186 11.992977 4.9676514c3.1807327 3.1807365 4.9676514 7.4947395 4.9676514 11.992977l0 0c0 9.367096 -7.5935326 16.960632 -16.960629 16.960632l0 0c-9.367098 0 -16.96063 -7.5935364 -16.96063 -16.960632z" fill-rule="evenodd"/><path fill="#00bbcc" d="m39.560764 52.853893l0 0c0 -9.367096 7.5935326 -16.960629 16.960629 -16.960629l0 0c4.4982414 0 8.812241 1.7869186 11.992981 4.967655c3.1807327 3.1807327 4.9676514 7.4947357 4.9676514 11.992973l0 0c0 9.3671 -7.5935364 16.960629 -16.960632 16.960629l0 0c-9.367096 0 -16.960629 -7.5935287 -16.960629 -16.960629z" fill-rule="evenodd"/><path stroke="#334455" stroke-width="4.0" stroke-linejoin="round" stroke-linecap="butt" d="m39.560764 52.853893l0 0c0 -9.367096 7.5935326 -16.960629 16.960629 -16.960629l0 0c4.4982414 0 8.812241 1.7869186 11.992981 4.967655c3.1807327 3.1807327 4.9676514 7.4947357 4.9676514 11.992973l0 0c0 9.3671 -7.5935364 16.960629 -16.960632 16.960629l0 0c-9.367096 0 -16.960629 -7.5935287 -16.960629 -16.960629z" fill-rule="evenodd"/><path fill="#00bbcc" d="m21.529392 22.950119l0 0c0 -9.367097 7.5935326 -16.96063 16.960629 -16.96063l0 0c4.4982414 0 8.812244 1.7869186 11.992977 4.9676538c3.1807365 3.1807346 4.967655 7.4947367 4.967655 11.992976l0 0c0 9.367096 -7.5935326 16.960629 -16.960632 16.960629l0 0c-9.367096 0 -16.960629 -7.5935326 -16.960629 -16.960629z" fill-rule="evenodd"/><path stroke="#334455" stroke-width="4.0" stroke-linejoin="round" stroke-linecap="butt" d="m21.529392 22.950119l0 0c0 -9.367097 7.5935326 -16.96063 16.960629 -16.96063l0 0c4.4982414 0 8.812244 1.7869186 11.992977 4.9676538c3.1807365 3.1807346 4.967655 7.4947367 4.967655 11.992976l0 0c0 9.367096 -7.5935326 16.960629 -16.960632 16.960629l0 0c-9.367096 0 -16.960629 -7.5935326 -16.960629 -16.960629z" fill-rule="evenodd"/></g></svg>