<svg version="1.1" viewBox="0.0 0.0 75.59055118110236 75.59055118110236" fill="none" stroke="none" stroke-linecap="square" stroke-miterlimit="10" xmlns:xlink="http://www.w3.org/1999/xlink" xmlns="http://www.w3.org/2000/svg"><clipPath id="p.0"><path d="m0 0l75.59055 0l0 75.59055l-75.59055 0l0 -75.59055z" clip-rule="nonzero"/></clipPath><g clip-path="url(#p.0)"><path fill="#000000" fill-opacity="0.0" d="m0 0l75.59055 0l0 75.59055l-75.59055 0z" fill-rule="evenodd"/><path fill="#334455" d="m2.406824 49.74199l0 0c0 -8.11467 6.5782413 -14.692913 14.692913 -14.692913l0 0c3.896803 0 7.6340027 1.5480003 10.38946 4.3034554c2.755455 2.755455 4.3034534 6.4926567 4.3034534 10.389458l0 0c0 8.114674 -6.5782413 14.692917 -14.692913 14.692917l0 0c-8.114672 0 -14.692913 -6.5782433 -14.692913 -14.692917z" fill-rule="evenodd"/><path fill="#334455" d="m29.890682 49.73594l0 0c0 -8.114674 6.5782433 -14.692913 14.692913 -14.692913l0 0c3.8968048 0 7.6340027 1.5479965 10.389458 4.3034515c2.7554588 2.7554588 4.3034554 6.4926567 4.3034554 10.3894615l0 0c0 8.11467 -6.5782394 14.692909 -14.692913 14.692909l0 0c-8.11467 0 -14.692913 -6.5782394 -14.692913 -14.692909z" fill-rule="evenodd"/><path fill="#334455" d="m16.168695 25.84843l0 0c0 -8.114672 6.5782413 -14.692913 14.692913 -14.692913l0 0c3.896803 0 7.634001 1.5479994 10.38946 4.3034554c2.755455 2.755455 4.3034515 6.492655 4.3034515 10.389458l0 0c0 8.114674 -6.5782394 14.692913 -14.692911 14.692913l0 0c-8.114672 0 -14.692913 -6.5782394 -14.692913 -14.692913z" fill-rule="evenodd"/><path fill="#00bbcc" d="m23.191566 25.84773l0 0c0 -4.235632 3.4336586 -7.6692905 7.6692905 -7.6692905l0 0c2.0340214 0 3.9847355 0.808012 5.42301 2.2462826c1.4382706 1.4382725 2.2462807 3.3889866 2.2462807 5.423008l0 0c0 4.235634 -3.4336586 7.6692905 -7.6692905 7.6692905l0 0c-4.235632 0 -7.6692905 -3.4336567 -7.6692905 -7.6692905z" fill-rule="evenodd"/><path fill="#334455" d="m43.79919 25.84843l0 0c0 -8.114672 6.5782433 -14.692913 14.692913 -14.692913l0 0c3.8968048 0 7.6340027 1.5479994 10.389458 4.3034554c2.755455 2.755455 4.303459 6.492655 4.303459 10.389458l0 0c0 8.114674 -6.578247 14.692913 -14.692917 14.692913l0 0c-8.11467 0 -14.692913 -6.5782394 -14.692913 -14.692913z" fill-rule="evenodd"/><path fill="#00bbcc" d="m50.821487 25.84773l0 0c0 -4.235632 3.4336586 -7.6692905 7.6692924 -7.6692905l0 0c2.0340195 0 3.9847336 0.808012 5.423008 2.2462826c1.4382706 1.4382725 2.2462845 3.3889866 2.2462845 5.423008l0 0c0 4.235634 -3.4336624 7.6692905 -7.6692924 7.6692905l0 0c-4.235634 0 -7.6692924 -3.4336567 -7.6692924 -7.6692905z" fill-rule="evenodd"/><path fill="#00bbcc" d="m36.91335 50.530148l0 0c0 -4.235634 3.4336586 -7.6692924 7.6692924 -7.6692924l0 0c2.0340233 0 3.9847374 0.8080101 5.423008 2.2462845c1.4382706 1.4382706 2.2462845 3.3889847 2.2462845 5.423008l0 0c0 4.23563 -3.4336586 7.6692886 -7.6692924 7.6692886l0 0c-4.235634 0 -7.6692924 -3.4336586 -7.6692924 -7.6692886z" fill-rule="evenodd"/><path fill="#00bbcc" d="m9.430411 49.73487l0 0c0 -4.235634 3.4336586 -7.6692924 7.6692915 -7.6692924l0 0c2.0340214 0 3.9847355 0.8080139 5.423008 2.2462845c1.4382706 1.4382706 2.2462826 3.3889847 2.2462826 5.423008l0 0c0 4.235634 -3.4336586 7.6692924 -7.6692905 7.6692924l0 0c-4.235633 0 -7.6692915 -3.4336586 -7.6692915 -7.6692924z" fill-rule="evenodd"/></g></svg>