<svg version="1.1" viewBox="0.0 0.0 75.59055118110236 75.59055118110236" fill="none" stroke="none" stroke-linecap="square" stroke-miterlimit="10" xmlns:xlink="http://www.w3.org/1999/xlink" xmlns="http://www.w3.org/2000/svg"><clipPath id="p.0"><path d="m0 0l75.59055 0l0 75.59055l-75.59055 0l0 -75.59055z" clip-rule="nonzero"/></clipPath><g clip-path="url(#p.0)"><path fill="#000000" fill-opacity="0.0" d="m0 0l75.59055 0l0 75.59055l-75.59055 0z" fill-rule="evenodd"/><path fill="#334455" d="m2.406824 49.74199l0 0c0 -8.11467 6.5782413 -14.692913 14.692913 -14.692913l0 0c3.896803 0 7.6340027 1.5480003 10.38946 4.3034554c2.755455 2.755455 4.3034534 6.4926567 4.3034534 10.389458l0 0c0 8.114674 -6.5782413 14.692917 -14.692913 14.692917l0 0c-8.114672 0 -14.692913 -6.5782433 -14.692913 -14.692917z" fill-rule="evenodd"/><path fill="#334455" d="m29.890682 49.73594l0 0c0 -8.114674 6.5782433 -14.692913 14.692913 -14.692913l0 0c3.8968048 0 7.6340027 1.5479965 10.389458 4.3034515c2.7554588 2.7554588 4.3034554 6.4926567 4.3034554 10.3894615l0 0c0 8.11467 -6.5782394 14.692909 -14.692913 14.692909l0 0c-8.11467 0 -14.692913 -6.5782394 -14.692913 -14.692909z" fill-rule="evenodd"/><path fill="#334455" d="m16.168695 25.84843l0 0c0 -8.114672 6.5782413 -14.692913 14.692913 -14.692913l0 0c3.896803 0 7.634001 1.5479994 10.38946 4.3034554c2.755455 2.755455 4.3034515 6.492655 4.3034515 10.389458l0 0c0 8.114674 -6.5782394 14.692913 -14.692911 14.692913l0 0c-8.114672 0 -14.692913 -6.5782394 -14.692913 -14.692913z" fill-rule="evenodd"/><path fill="#00bbcc" d="m19.23874 25.847658l0 0c0 -6.41868 5.203369 -11.622048 11.622047 -11.622048l0 0c3.0823574 0 6.038473 1.2244625 8.218031 3.4040194c2.179554 2.179556 3.4040184 5.1356697 3.4040184 8.218029l0 0c0 6.41868 -5.203369 11.6220455 -11.622049 11.6220455l0 0c-6.4186783 0 -11.622047 -5.2033653 -11.622047 -11.6220455z" fill-rule="evenodd"/><path fill="#334455" d="m43.79919 25.84843l0 0c0 -8.114672 6.5782433 -14.692913 14.692913 -14.692913l0 0c3.8968048 0 7.6340027 1.5479994 10.389458 4.3034554c2.755455 2.755455 4.303459 6.492655 4.303459 10.389458l0 0c0 8.114674 -6.578247 14.692913 -14.692917 14.692913l0 0c-8.11467 0 -14.692913 -6.5782394 -14.692913 -14.692913z" fill-rule="evenodd"/><path fill="#00bbcc" d="m46.868664 25.847658l0 0c0 -6.41868 5.2033653 -11.622048 11.622047 -11.622048l0 0c3.0823593 0 6.038471 1.2244625 8.218029 3.4040194c2.1795578 2.179556 3.4040146 5.1356697 3.4040146 8.218029l0 0c0 6.41868 -5.2033615 11.6220455 -11.622044 11.6220455l0 0c-6.418682 0 -11.622047 -5.2033653 -11.622047 -11.6220455z" fill-rule="evenodd"/><path fill="#00bbcc" d="m32.960526 49.742672l0 0c0 -6.418682 5.203369 -11.622047 11.622047 -11.622047l0 0c3.0823593 0 6.038471 1.2244606 8.218029 3.4040184c2.1795578 2.179554 3.4040184 5.1356697 3.4040184 8.218029l0 0c0 6.4186783 -5.2033653 11.622047 -11.622047 11.622047l0 0c-6.4186783 0 -11.622047 -5.203369 -11.622047 -11.622047z" fill-rule="evenodd"/><path fill="#00bbcc" d="m5.4775867 49.742672l0 0c0 -6.418682 5.203368 -11.622047 11.622047 -11.622047l0 0c3.0823593 0 6.038471 1.2244606 8.218029 3.4040184c2.179556 2.179554 3.4040184 5.1356697 3.4040184 8.218029l0 0c0 6.4186783 -5.203367 11.622047 -11.622047 11.622047l0 0c-6.418679 0 -11.622047 -5.203369 -11.622047 -11.622047z" fill-rule="evenodd"/></g></svg>