<svg version="1.1" viewBox="0.0 0.0 75.59055118110236 75.59055118110236" fill="none" stroke="none" stroke-linecap="square" stroke-miterlimit="10" xmlns:xlink="http://www.w3.org/1999/xlink" xmlns="http://www.w3.org/2000/svg"><clipPath id="p.0"><path d="m0 0l75.59055 0l0 75.59055l-75.59055 0l0 -75.59055z" clip-rule="nonzero"/></clipPath><g clip-path="url(#p.0)"><path fill="#000000" fill-opacity="0.0" d="m0 0l75.59055 0l0 75.59055l-75.59055 0z" fill-rule="evenodd"/><path fill="#ffffff" d="m25.155504 18.881668l0 0c0 -6.9643764 5.659027 -12.610119 12.639788 -12.610119l0 0c3.3522835 0 6.5672607 1.3285623 8.937683 3.6934185c2.3704185 2.3648558 3.7021065 5.5722885 3.7021065 8.9167l0 0c0 6.9643745 -5.659027 12.610117 -12.63979 12.610117l0 0c-6.9807606 0 -12.639788 -5.6457424 -12.639788 -12.610117z" fill-rule="evenodd"/><path stroke="#334455" stroke-width="4.0" stroke-linejoin="round" stroke-linecap="butt" d="m25.155504 18.881668l0 0c0 -6.9643764 5.659027 -12.610119 12.639788 -12.610119l0 0c3.3522835 0 6.5672607 1.3285623 8.937683 3.6934185c2.3704185 2.3648558 3.7021065 5.5722885 3.7021065 8.9167l0 0c0 6.9643745 -5.659027 12.610117 -12.63979 12.610117l0 0c-6.9807606 0 -12.639788 -5.6457424 -12.639788 -12.610117z" fill-rule="evenodd"/><path fill="#ffffff" d="m32.957977 32.648155l9.674629 0l0 0c2.3998528 0 4.701412 0.9533386 6.398365 2.6502876c1.696949 1.6969528 2.6502876 3.9985123 2.6502876 6.398365l0 27.624542c0 1.2207031E-4 -1.02996826E-4 2.2888184E-4 -2.3269653E-4 2.2888184E-4l-27.771698 -2.2888184E-4l0 0c-1.2779236E-4 0 -2.3269653E-4 -1.0681152E-4 -2.3269653E-4 -2.3651123E-4l2.3269653E-4 -27.624306l0 0c0 -4.9974327 4.051218 -9.048653 9.048649 -9.048653z" fill-rule="evenodd"/><path stroke="#334455" stroke-width="4.0" stroke-linejoin="round" stroke-linecap="butt" d="m32.957977 32.648155l9.674629 0l0 0c2.3998528 0 4.701412 0.9533386 6.398365 2.6502876c1.696949 1.6969528 2.6502876 3.9985123 2.6502876 6.398365l0 27.624542c0 1.2207031E-4 -1.02996826E-4 2.2888184E-4 -2.3269653E-4 2.2888184E-4l-27.771698 -2.2888184E-4l0 0c-1.2779236E-4 0 -2.3269653E-4 -1.0681152E-4 -2.3269653E-4 -2.3651123E-4l2.3269653E-4 -27.624306l0 0c0 -4.9974327 4.051218 -9.048653 9.048649 -9.048653z" fill-rule="evenodd"/></g></svg>