<svg version="1.1" viewBox="0.0 0.0 75.59055118110236 75.59055118110236" fill="none" stroke="none" stroke-linecap="square" stroke-miterlimit="10" xmlns:xlink="http://www.w3.org/1999/xlink" xmlns="http://www.w3.org/2000/svg"><clipPath id="p.0"><path d="m0 0l75.59055 0l0 75.59055l-75.59055 0l0 -75.59055z" clip-rule="nonzero"/></clipPath><g clip-path="url(#p.0)"><path fill="#000000" fill-opacity="0.0" d="m0 0l75.59055 0l0 75.59055l-75.59055 0z" fill-rule="evenodd"/><path fill="#00bbcc" d="m26.567719 69.81527l21.574802 -40.44094l21.574802 40.44094z" fill-rule="evenodd"/><path stroke="#334455" stroke-width="4.0" stroke-linejoin="round" stroke-linecap="butt" d="m26.567719 69.81527l21.574802 -40.44094l21.574802 40.44094z" fill-rule="evenodd"/><path fill="#ffffff" d="m39.15172 46.69355l8.976379 -16.850393l8.976376 16.850393z" fill-rule="evenodd"/><path stroke="#334455" stroke-width="4.0" stroke-linejoin="round" stroke-linecap="butt" d="m39.15172 46.69355l8.976379 -16.850393l8.976376 16.850393z" fill-rule="evenodd"/><path fill="#00bbcc" d="m5.242116 69.791176l24.960629 -51.93701l24.96063 51.93701z" fill-rule="evenodd"/><path stroke="#334455" stroke-width="4.0" stroke-linejoin="round" stroke-linecap="butt" d="m5.242116 69.791176l24.960629 -51.93701l24.96063 51.93701z" fill-rule="evenodd"/><path fill="#ffffff" d="m19.806658 40.09439l10.393702 -21.637794l10.3937 21.637794z" fill-rule="evenodd"/><path stroke="#334455" stroke-width="4.0" stroke-linejoin="round" stroke-linecap="butt" d="m19.806658 40.09439l10.393702 -21.637794l10.3937 21.637794z" fill-rule="evenodd"/><path fill="#ee8800" d="m49.74755 15.826772l0 0c0 -5.4793606 4.4418983 -9.92126 9.921261 -9.92126l0 0c2.631279 0 5.154789 1.0452724 7.0153923 2.9058695c1.8605957 1.8605976 2.9058685 4.3841085 2.9058685 7.0153904l0 0c0 5.4793596 -4.441902 9.92126 -9.921261 9.92126l0 0c-5.4793625 0 -9.921261 -4.4419003 -9.921261 -9.92126z" fill-rule="evenodd"/><path stroke="#334455" stroke-width="4.0" stroke-linejoin="round" stroke-linecap="butt" d="m49.74755 15.826772l0 0c0 -5.4793606 4.4418983 -9.92126 9.921261 -9.92126l0 0c2.631279 0 5.154789 1.0452724 7.0153923 2.9058695c1.8605957 1.8605976 2.9058685 4.3841085 2.9058685 7.0153904l0 0c0 5.4793596 -4.441902 9.92126 -9.921261 9.92126l0 0c-5.4793625 0 -9.921261 -4.4419003 -9.921261 -9.92126z" fill-rule="evenodd"/></g></svg>