<svg version="1.1" viewBox="0.0 0.0 75.59055118110236 75.59055118110236" fill="none" stroke="none" stroke-linecap="square" stroke-miterlimit="10" xmlns:xlink="http://www.w3.org/1999/xlink" xmlns="http://www.w3.org/2000/svg"><clipPath id="p.0"><path d="m0 0l75.59055 0l0 75.59055l-75.59055 0l0 -75.59055z" clip-rule="nonzero"/></clipPath><g clip-path="url(#p.0)"><path fill="#000000" fill-opacity="0.0" d="m0 0l75.59055 0l0 75.59055l-75.59055 0z" fill-rule="evenodd"/><path fill="#00bbcc" d="m25.103817 71.8115l21.574802 -40.44095l21.574806 40.44095z" fill-rule="evenodd"/><path stroke="#334455" stroke-width="4.0" stroke-linejoin="round" stroke-linecap="butt" d="m25.103817 71.8115l21.574802 -40.44095l21.574806 40.44095z" fill-rule="evenodd"/><path fill="#ffffff" d="m37.687817 48.68978l8.976379 -16.850395l8.976376 16.850395z" fill-rule="evenodd"/><path stroke="#334455" stroke-width="4.0" stroke-linejoin="round" stroke-linecap="butt" d="m37.687817 48.68978l8.976379 -16.850395l8.976376 16.850395z" fill-rule="evenodd"/><path fill="#00bbcc" d="m3.7782152 71.7874l24.96063 -51.937004l24.960629 51.937004z" fill-rule="evenodd"/><path stroke="#334455" stroke-width="4.0" stroke-linejoin="round" stroke-linecap="butt" d="m3.7782152 71.7874l24.96063 -51.937004l24.960629 51.937004z" fill-rule="evenodd"/><path fill="#ffffff" d="m18.342756 42.09062l10.393702 -21.637794l10.3937 21.637794z" fill-rule="evenodd"/><path stroke="#334455" stroke-width="4.0" stroke-linejoin="round" stroke-linecap="butt" d="m18.342756 42.09062l10.393702 -21.637794l10.3937 21.637794z" fill-rule="evenodd"/><path fill="#ee8800" d="m50.14698 17.291338l0 0c0 -5.4793596 4.441902 -9.921259 9.921261 -9.921259l0 0c2.6312828 0 5.1547966 1.0452724 7.0153923 2.90587c1.8605957 1.8605967 2.9058685 4.3841085 2.9058685 7.0153894l0 0c0 5.4793606 -4.441902 9.921261 -9.921261 9.921261l0 0c-5.4793587 0 -9.921261 -4.4419003 -9.921261 -9.921261z" fill-rule="evenodd"/><path stroke="#334455" stroke-width="4.0" stroke-linejoin="round" stroke-linecap="butt" d="m50.14698 17.291338l0 0c0 -5.4793596 4.441902 -9.921259 9.921261 -9.921259l0 0c2.6312828 0 5.1547966 1.0452724 7.0153923 2.90587c1.8605957 1.8605967 2.9058685 4.3841085 2.9058685 7.0153894l0 0c0 5.4793606 -4.441902 9.921261 -9.921261 9.921261l0 0c-5.4793587 0 -9.921261 -4.4419003 -9.921261 -9.921261z" fill-rule="evenodd"/></g></svg>