<svg version="1.1" viewBox="0.0 0.0 75.59055118110236 75.59055118110236" fill="none" stroke="none" stroke-linecap="square" stroke-miterlimit="10" xmlns:xlink="http://www.w3.org/1999/xlink" xmlns="http://www.w3.org/2000/svg"><clipPath id="p.0"><path d="m0 0l75.59055 0l0 75.59055l-75.59055 0l0 -75.59055z" clip-rule="nonzero"/></clipPath><g clip-path="url(#p.0)"><path fill="#000000" fill-opacity="0.0" d="m0 0l75.59055 0l0 75.59055l-75.59055 0z" fill-rule="evenodd"/><path fill="#00bbcc" d="m5.5433073 5.5433073l64.50394 0l0 64.50394l-64.50394 0z" fill-rule="evenodd"/><path stroke="#334455" stroke-width="4.0" stroke-linejoin="round" stroke-linecap="butt" d="m5.5433073 5.5433073l64.50394 0l0 64.50394l-64.50394 0z" fill-rule="evenodd"/><path fill="#000000" fill-opacity="0.0" d="m3.7795277 -3.3359587l68.031494 0l0 62.17323l-68.031494 0z" fill-rule="evenodd"/><path fill="#ffffff" d="m31.644352 19.856901q1.5 -2.21875 8.437496 -2.21875q6.25 0 10.15625 4.375q3.859375 4.265625 3.859375 10.499998q0 6.234375 -3.859375 10.5q-3.90625 4.359375 -10.46875 4.359375q-6.562496 0 -8.124996 -2.265625l0 12.40625l-6.21875 0l0 -39.4375l6.21875 0l0 1.78125zm7.906246 3.625q-3.8124962 0 -5.984371 2.59375q-2.140625 2.515625 -2.140625 6.437498q0 3.90625 2.140625 6.421875q2.171875 2.59375 5.984371 2.59375q3.765625 0 6.09375 -2.609375q2.234375 -2.515625 2.234375 -6.40625q0 -3.906248 -2.234375 -6.421873q-2.328125 -2.609375 -6.09375 -2.609375z" fill-rule="nonzero"/></g></svg>