<svg version="1.1" viewBox="0.0 0.0 75.59055118110236 75.59055118110236" fill="none" stroke="none" stroke-linecap="square" stroke-miterlimit="10" xmlns:xlink="http://www.w3.org/1999/xlink" xmlns="http://www.w3.org/2000/svg"><clipPath id="p.0"><path d="m0 0l75.59055 0l0 75.59055l-75.59055 0l0 -75.59055z" clip-rule="nonzero"/></clipPath><g clip-path="url(#p.0)"><path fill="#000000" fill-opacity="0.0" d="m0 0l75.59055 0l0 75.59055l-75.59055 0z" fill-rule="evenodd"/><path fill="#00bbcc" d="m3.6062992 37.795277l9.420965 -6.63657l-4.8405113 -10.45792l11.47708 -1.036953l1.036953 -11.47708l10.45792 4.8405113l6.63657 -9.420965l6.636566 9.420965l10.45792 -4.8405113l1.0369568 11.47708l11.477081 1.036953l-4.840515 10.45792l9.420967 6.63657l-9.420967 6.636566l4.840515 10.45792l-11.477081 1.0369568l-1.0369568 11.477081l-10.45792 -4.840515l-6.636566 9.420967l-6.63657 -9.420967l-10.45792 4.840515l-1.036953 -11.477081l-11.47708 -1.0369568l4.8405113 -10.45792z" fill-rule="evenodd"/><path stroke="#334455" stroke-width="3.0" stroke-linejoin="round" stroke-linecap="butt" d="m3.6062992 37.795277l9.420965 -6.63657l-4.8405113 -10.45792l11.47708 -1.036953l1.036953 -11.47708l10.45792 4.8405113l6.63657 -9.420965l6.636566 9.420965l10.45792 -4.8405113l1.0369568 11.47708l11.477081 1.036953l-4.840515 10.45792l9.420967 6.63657l-9.420967 6.636566l4.840515 10.45792l-11.477081 1.0369568l-1.0369568 11.477081l-10.45792 -4.840515l-6.636566 9.420967l-6.63657 -9.420967l-10.45792 4.840515l-1.036953 -11.477081l-11.47708 -1.0369568l4.8405113 -10.45792z" fill-rule="evenodd"/><path fill="#000000" fill-opacity="0.0" d="m3.7795277 3.7662249l68.031494 0l0 56.220474l-68.031494 0z" fill-rule="evenodd"/><path fill="#ffffff" d="m33.45879 26.294584q1.078125 -1.578125 5.921871 -1.578125q4.375 0 7.09375 3.0625q2.703125 2.96875 2.703125 7.343748q0 4.359375 -2.703125 7.34375q-2.71875 3.046875 -7.3125 3.046875q-4.593746 0 -5.703121 -1.625l0 8.71875l-4.328125 0l0 -27.593748l4.328125 0l0 1.28125zm5.546871 2.5q-2.65625 0 -4.203121 1.828125q-1.484375 1.7499981 -1.484375 4.499998q0 2.734375 1.484375 4.5q1.5468712 1.828125 4.203121 1.828125q2.640625 0 4.28125 -1.84375q1.5625 -1.765625 1.5625 -4.484375q0 -2.734375 -1.5625 -4.484373q-1.640625 -1.84375 -4.28125 -1.84375z" fill-rule="nonzero"/></g></svg>