<svg version="1.1" viewBox="0.0 0.0 75.59055118110236 75.59055118110236" fill="none" stroke="none" stroke-linecap="square" stroke-miterlimit="10" xmlns:xlink="http://www.w3.org/1999/xlink" xmlns="http://www.w3.org/2000/svg"><clipPath id="p.0"><path d="m0 0l75.59055 0l0 75.59055l-75.59055 0l0 -75.59055z" clip-rule="nonzero"/></clipPath><g clip-path="url(#p.0)"><path fill="#000000" fill-opacity="0.0" d="m0 0l75.59055 0l0 75.59055l-75.59055 0z" fill-rule="evenodd"/><path fill="#00bbcc" d="m3.7795277 3.7795277l68.031494 0l0 68.031494l-68.031494 0z" fill-rule="evenodd"/><path fill="#000000" fill-opacity="0.0" d="m3.7795277 -3.3356695l68.031494 0l0 56.220474l-68.031494 0z" fill-rule="evenodd"/><path fill="#ffffff" d="m29.92738 14.523316q1.921875 -2.828125 10.765621 -2.828125q7.96875 0 12.953125 5.578124q4.90625 5.421875 4.90625 13.375q0 7.953125 -4.90625 13.375q-4.984375 5.578125 -13.34375 5.578125q-8.359371 0 -10.374996 -2.9375l0 15.859375l-7.90625 0l0 -50.28125l7.90625 0l0 2.28125zm10.093746 4.609374q-4.859371 0 -7.624996 3.3125q-2.734375 3.203125 -2.734375 8.203125q0 5.0 2.734375 8.203125q2.765625 3.3125 7.624996 3.3125q4.8125 0 7.796875 -3.34375q2.828125 -3.1875 2.828125 -8.171875q0 -4.984375 -2.828125 -8.171875q-2.984375 -3.34375 -7.796875 -3.34375z" fill-rule="nonzero"/></g></svg>