<svg version="1.1" viewBox="0.0 0.0 75.59055118110236 75.59055118110236" fill="none" stroke="none" stroke-linecap="square" stroke-miterlimit="10" xmlns:xlink="http://www.w3.org/1999/xlink" xmlns="http://www.w3.org/2000/svg"><clipPath id="p.0"><path d="m0 0l75.59055 0l0 75.59055l-75.59055 0l0 -75.59055z" clip-rule="nonzero"/></clipPath><g clip-path="url(#p.0)"><path fill="#000000" fill-opacity="0.0" d="m0 0l75.59055 0l0 75.59055l-75.59055 0z" fill-rule="evenodd"/><path fill="#000000" fill-opacity="0.0" d="m-4.3412075 3.7795277l28.31496 0l0 26.582678l-28.31496 0z" fill-rule="evenodd"/><path fill="#334455" d="m6.5181675 26.390865l0 -18.125l7.703125 0q2.90625 0 4.21875 0.484375q1.3125 0.484375 2.109375 1.734375q0.796875 1.25 0.796875 2.859375q0 2.046875 -1.203125 3.375q-1.203125 1.328125 -3.59375 1.671875q1.1875 0.6875 1.953125 1.515625q0.78125 0.828125 2.09375 2.953125l2.21875 3.53125l-4.375 0l-2.65625 -3.9375q-1.40625 -2.125 -1.921875 -2.671875q-0.515625 -0.546875 -1.109375 -0.75q-0.578125 -0.203125 -1.828125 -0.203125l-0.75 0l0 7.5625l-3.65625 0zm3.65625 -10.46875l2.703125 0q2.640625 0 3.296875 -0.21875q0.65625 -0.21875 1.015625 -0.765625q0.375 -0.546875 0.375 -1.359375q0 -0.921875 -0.484375 -1.484375q-0.484375 -0.5625 -1.375 -0.703125q-0.453125 -0.0625 -2.671875 -0.0625l-2.859375 0l0 4.59375z" fill-rule="nonzero"/><path fill="#334455" d="m27.41465 8.244706l40.913383 0l0 4.3464565l-40.913383 0z" fill-rule="evenodd"/><path fill="#334455" d="m27.41465 23.052382l40.913383 0l0 4.3464565l-40.913383 0z" fill-rule="evenodd"/><path fill="#334455" d="m6.45137 37.860054l61.889763 0l0 4.3464584l-61.889763 0z" fill-rule="evenodd"/><path fill="#334455" d="m6.45137 52.66773l61.889763 0l0 4.3464584l-61.889763 0z" fill-rule="evenodd"/><path fill="#334455" d="m6.45137 67.4754l61.889763 0l0 4.3464584l-61.889763 0z" fill-rule="evenodd"/></g></svg>