<svg version="1.1" viewBox="0.0 0.0 75.59055118110236 75.59055118110236" fill="none" stroke="none" stroke-linecap="square" stroke-miterlimit="10" xmlns:xlink="http://www.w3.org/1999/xlink" xmlns="http://www.w3.org/2000/svg"><clipPath id="p.0"><path d="m0 0l75.59055 0l0 75.59055l-75.59055 0l0 -75.59055z" clip-rule="nonzero"/></clipPath><g clip-path="url(#p.0)"><path fill="#000000" fill-opacity="0.0" d="m0 0l75.59055 0l0 75.59055l-75.59055 0z" fill-rule="evenodd"/><path fill="#334455" d="m3.7795277 3.7795644l68.031494 0l0 4.5984254l-68.031494 0z" fill-rule="evenodd"/><path fill="#334455" d="m3.7795277 16.47005l68.031494 0l0 4.598425l-68.031494 0z" fill-rule="evenodd"/><path fill="#334455" d="m3.7795277 29.160536l68.031494 0l0 4.598425l-68.031494 0z" fill-rule="evenodd"/><path fill="#334455" d="m3.7795277 41.85102l68.031494 0l0 4.598427l-68.031494 0z" fill-rule="evenodd"/><path fill="#334455" d="m3.7795277 54.541508l68.031494 0l0 4.598423l-68.031494 0z" fill-rule="evenodd"/><path fill="#334455" d="m3.7795277 67.231995l68.031494 0l0 4.598427l-68.031494 0z" fill-rule="evenodd"/></g></svg>