<svg version="1.1" viewBox="0.0 0.0 75.59055118110236 75.59055118110236" fill="none" stroke="none" stroke-linecap="square" stroke-miterlimit="10" xmlns:xlink="http://www.w3.org/1999/xlink" xmlns="http://www.w3.org/2000/svg"><clipPath id="p.0"><path d="m0 0l75.59055 0l0 75.59055l-75.59055 0l0 -75.59055z" clip-rule="nonzero"/></clipPath><g clip-path="url(#p.0)"><path fill="#000000" fill-opacity="0.0" d="m0 0l75.59055 0l0 75.59055l-75.59055 0z" fill-rule="evenodd"/><path fill="#ffffff" d="m3.7795277 3.8582678l68.031494 0l0 67.968506l-68.031494 0z" fill-rule="evenodd"/><path fill="#000000" fill-opacity="0.0" d="m-3.9421706 4.352911l28.31496 0l0 24.535433l-28.31496 0z" fill-rule="evenodd"/><path fill="#334455" d="m6.9172044 25.940628l0 -18.125l7.7031255 0q2.906249 0 4.218749 0.484375q1.3125 0.484375 2.109375 1.734375q0.796875 1.25 0.796875 2.859375q0 2.046875 -1.203125 3.375q-1.203125 1.328125 -3.59375 1.671875q1.1875 0.6875 1.953125 1.515625q0.78125 0.828125 2.09375 2.953125l2.21875 3.53125l-4.375 0l-2.65625 -3.9375q-1.406249 -2.125 -1.921874 -2.671875q-0.515625 -0.546875 -1.109375 -0.75q-0.578125 -0.203125 -1.828125 -0.203125l-0.75 0l0 7.5625l-3.6562505 0zm3.6562505 -10.46875l2.703125 0q2.640625 0 3.296874 -0.21875q0.65625 -0.21875 1.015625 -0.765625q0.375 -0.546875 0.375 -1.359375q0 -0.921875 -0.484375 -1.484375q-0.484375 -0.5625 -1.375 -0.703125q-0.45312405 -0.0625 -2.671874 -0.0625l-2.859375 0l0 4.59375z" fill-rule="nonzero"/><path fill="#334455" d="m27.813648 8.472441l40.913387 0l0 4.0l-40.913387 0z" fill-rule="evenodd"/><path fill="#334455" d="m27.813648 22.133858l40.913387 0l0 4.0l-40.913387 0z" fill-rule="evenodd"/><path fill="#334455" d="m6.850394 35.795277l61.889763 0l0 4.0l-61.889763 0z" fill-rule="evenodd"/><path fill="#334455" d="m6.850394 49.45669l61.889763 0l0 4.0l-61.889763 0z" fill-rule="evenodd"/><path fill="#334455" d="m6.850394 63.11811l61.889763 0l0 4.0l-61.889763 0z" fill-rule="evenodd"/></g></svg>