<svg version="1.1" viewBox="0.0 0.0 75.59055118110236 75.59055118110236" fill="none" stroke="none" stroke-linecap="square" stroke-miterlimit="10" xmlns:xlink="http://www.w3.org/1999/xlink" xmlns="http://www.w3.org/2000/svg"><clipPath id="p.0"><path d="m0 0l75.59055 0l0 75.59055l-75.59055 0l0 -75.59055z" clip-rule="nonzero"/></clipPath><g clip-path="url(#p.0)"><path fill="#000000" fill-opacity="0.0" d="m0 0l75.59055 0l0 75.59055l-75.59055 0z" fill-rule="evenodd"/><path fill="#000000" fill-opacity="0.0" d="m-8.506654 4.024554l28.31496 0l0 26.582678l-28.31496 0z" fill-rule="evenodd"/><path fill="#334455" d="m3.2277215 30.65589l0 -26.71875l11.359375 0q4.281251 0 6.218751 0.71875q1.9375 0.71875 3.109375 2.5625q1.171875 1.8437505 1.171875 4.2031255q0 3.015625 -1.78125 4.984374q-1.765625 1.953125 -5.28125 2.453125q1.75 1.03125 2.890625 2.25q1.140625 1.21875 3.078125 4.328125l3.25 5.21875l-6.453125 0l-3.890625 -5.8125q-2.078126 -3.125 -2.843751 -3.921875q-0.765625 -0.8125 -1.625 -1.109375q-0.859375 -0.3125 -2.71875 -0.3125l-1.09375 0l0 11.15625l-5.390625 0zm5.390625 -15.421874l4.0 0q3.875001 0 4.843751 -0.328125q0.96875 -0.328125 1.515625 -1.125q0.546875 -0.8125 0.546875 -2.0q0 -1.359375 -0.71875 -2.1875q-0.71875 -0.828125 -2.03125 -1.046875q-0.65625 -0.09375 -3.937501 -0.09375l-4.21875 0l0 6.78125z" fill-rule="nonzero"/><path fill="#334455" d="m31.60893 3.7795277l40.188972 0l0 6.07874l-40.188972 0z" fill-rule="evenodd"/><path fill="#334455" d="m31.60893 24.458298l40.188972 0l0 6.078739l-40.188972 0z" fill-rule="evenodd"/><path fill="#334455" d="m3.7795277 45.09064l68.031494 0l0 6.078739l-68.031494 0z" fill-rule="evenodd"/><path fill="#334455" d="m3.7795277 65.74619l68.031494 0l0 6.078743l-68.031494 0z" fill-rule="evenodd"/><path fill="#334455" d="m31.60893 14.118899l40.188972 0l0 6.07874l-40.188972 0z" fill-rule="evenodd"/><path fill="#334455" d="m3.7795277 34.8098l68.031494 0l0 6.078739l-68.031494 0z" fill-rule="evenodd"/><path fill="#334455" d="m3.7795277 55.418724l68.031494 0l0 6.078739l-68.031494 0z" fill-rule="evenodd"/></g></svg>