<svg version="1.1" viewBox="0.0 0.0 75.59055118110236 75.59055118110236" fill="none" stroke="none" stroke-linecap="square" stroke-miterlimit="10" xmlns:xlink="http://www.w3.org/1999/xlink" xmlns="http://www.w3.org/2000/svg"><clipPath id="p.0"><path d="m0 0l75.59055 0l0 75.59055l-75.59055 0l0 -75.59055z" clip-rule="nonzero"/></clipPath><g clip-path="url(#p.0)"><path fill="#000000" fill-opacity="0.0" d="m0 0l75.59055 0l0 75.59055l-75.59055 0z" fill-rule="evenodd"/><path fill="#ee8800" d="m6.523791 37.795097l20.267166 -20.268387l20.267164 20.268387l-20.267164 20.268387z" fill-rule="evenodd"/><path stroke="#334455" stroke-width="4.0" stroke-linejoin="round" stroke-linecap="butt" d="m6.523791 37.795097l20.267166 -20.268387l20.267164 20.268387l-20.267164 20.268387z" fill-rule="evenodd"/><path fill="#ee8800" d="m28.532997 37.795097l20.267166 -20.268387l20.267166 20.268387l-20.267166 20.268387z" fill-rule="evenodd"/><path stroke="#334455" stroke-width="4.0" stroke-linejoin="round" stroke-linecap="butt" d="m28.532997 37.795097l20.267166 -20.268387l20.267166 20.268387l-20.267166 20.268387z" fill-rule="evenodd"/><path fill="#ee8800" d="m27.41733 37.795277l10.3779545 -10.3779545l10.377953 10.3779545l-10.377953 10.377953z" fill-rule="evenodd"/><path stroke="#334455" stroke-width="4.0" stroke-linejoin="round" stroke-linecap="butt" d="m27.41733 37.795277l10.3779545 -10.3779545l10.377953 10.3779545l-10.377953 10.377953z" fill-rule="evenodd"/></g></svg>