<svg version="1.1" viewBox="0.0 0.0 75.59055118110236 75.59055118110236" fill="none" stroke="none" stroke-linecap="square" stroke-miterlimit="10" xmlns:xlink="http://www.w3.org/1999/xlink" xmlns="http://www.w3.org/2000/svg"><clipPath id="p.0"><path d="m0 0l75.59055 0l0 75.59055l-75.59055 0l0 -75.59055z" clip-rule="nonzero"/></clipPath><g clip-path="url(#p.0)"><path fill="#000000" fill-opacity="0.0" d="m0 0l75.59055 0l0 75.59055l-75.59055 0z" fill-rule="evenodd"/><path fill="#00aa66" d="m69.74796 45.33836l-31.952686 24.409672l-31.95269 -24.409672l12.204841 -39.495678l39.495693 0z" fill-rule="evenodd"/><path stroke="#334455" stroke-width="4.0" stroke-linejoin="round" stroke-linecap="butt" d="m69.74796 45.33836l-31.952686 24.409672l-31.95269 -24.409672l12.204841 -39.495678l39.495693 0z" fill-rule="evenodd"/><path fill="#ffffff" d="m15.072743 35.222878l0 0c0 -5.783827 10.17319 -10.472546 22.722458 -10.472546l0 0c12.549267 0 22.722458 4.688719 22.722458 10.472546l0 0c0 5.783825 -10.173191 10.472542 -22.722458 10.472542l0 0c-12.549267 0 -22.722458 -4.688717 -22.722458 -10.472542z" fill-rule="evenodd"/><path stroke="#334455" stroke-width="3.0" stroke-linejoin="round" stroke-linecap="butt" d="m15.072743 35.222878l0 0c0 -5.783827 10.17319 -10.472546 22.722458 -10.472546l0 0c12.549267 0 22.722458 4.688719 22.722458 10.472546l0 0c0 5.783825 -10.173191 10.472542 -22.722458 10.472542l0 0c-12.549267 0 -22.722458 -4.688717 -22.722458 -10.472542z" fill-rule="evenodd"/><path fill="#ffffff" d="m27.322657 35.222878l0 0c0 -5.783827 4.688719 -10.472546 10.472544 -10.472546l0 0c2.7774925 0 5.441223 1.1033554 7.405205 3.067337c1.9639854 1.9639835 3.067337 4.627716 3.067337 7.4052086l0 0c0 5.783825 -4.688717 10.472542 -10.472542 10.472542l0 0c-5.783825 0 -10.472544 -4.688717 -10.472544 -10.472542z" fill-rule="evenodd"/><path stroke="#334455" stroke-width="3.0" stroke-linejoin="round" stroke-linecap="butt" d="m27.322657 35.222878l0 0c0 -5.783827 4.688719 -10.472546 10.472544 -10.472546l0 0c2.7774925 0 5.441223 1.1033554 7.405205 3.067337c1.9639854 1.9639835 3.067337 4.627716 3.067337 7.4052086l0 0c0 5.783825 -4.688717 10.472542 -10.472542 10.472542l0 0c-5.783825 0 -10.472544 -4.688717 -10.472544 -10.472542z" fill-rule="evenodd"/><path fill="#334455" d="m33.316925 35.222878l0 0c0 -2.4732857 2.0049934 -4.478277 4.4782753 -4.478277l0 0c1.1877136 0 2.3267784 0.47181702 3.1666183 1.311655c0.83983994 0.83983994 1.311657 1.9789085 1.311657 3.1666222l0 0c0 2.4732819 -2.0049934 4.4782753 -4.4782753 4.4782753l0 0c-2.4732819 0 -4.4782753 -2.0049934 -4.4782753 -4.4782753z" fill-rule="evenodd"/><path stroke="#334455" stroke-width="3.0" stroke-linejoin="round" stroke-linecap="butt" d="m33.316925 35.222878l0 0c0 -2.4732857 2.0049934 -4.478277 4.4782753 -4.478277l0 0c1.1877136 0 2.3267784 0.47181702 3.1666183 1.311655c0.83983994 0.83983994 1.311657 1.9789085 1.311657 3.1666222l0 0c0 2.4732819 -2.0049934 4.4782753 -4.4782753 4.4782753l0 0c-2.4732819 0 -4.4782753 -2.0049934 -4.4782753 -4.4782753z" fill-rule="evenodd"/></g></svg>