<svg version="1.1" viewBox="0.0 0.0 75.59055118110236 75.59055118110236" fill="none" stroke="none" stroke-linecap="square" stroke-miterlimit="10" xmlns:xlink="http://www.w3.org/1999/xlink" xmlns="http://www.w3.org/2000/svg"><clipPath id="p.0"><path d="m0 0l75.59055 0l0 75.59055l-75.59055 0l0 -75.59055z" clip-rule="nonzero"/></clipPath><g clip-path="url(#p.0)"><path fill="#000000" fill-opacity="0.0" d="m0 0l75.59055 0l0 75.59055l-75.59055 0z" fill-rule="evenodd"/><path fill="#334455" d="m7.225722 36.58005l0 0c0 -16.881647 13.68528 -30.566929 30.56693 -30.566929l0 0c8.1068535 0 15.881672 3.2204351 21.614082 8.952847c5.7324104 5.7324114 8.952847 13.507228 8.952847 21.614082l0 0c0 16.881649 -13.68528 30.566929 -30.566929 30.566929l0 0c-16.88165 0 -30.56693 -13.68528 -30.56693 -30.566929z" fill-rule="evenodd"/><path fill="#00aa66" d="m11.145647 36.57872l0 0c0 -14.715998 11.929672 -26.645672 26.64567 -26.645672l0 0c7.0668716 0 13.844299 2.8073034 18.841331 7.8043356c4.997036 4.997032 7.8043404 11.774462 7.8043404 18.841335l0 0c0 14.715996 -11.929676 26.645668 -26.645672 26.645668l0 0c-14.715998 0 -26.64567 -11.929672 -26.64567 -26.645668z" fill-rule="evenodd"/><path fill="#000000" fill-opacity="0.0" d="m11.144357 9.362205l53.291336 0l0 53.291336l-53.291336 0z" fill-rule="evenodd"/><path fill="#ffffff" d="m47.03717 45.34162q0 7.0625 -8.343746 7.0625q-8.34375 0 -8.34375 -7.0625l0 -4.640625l4.890625 0l0 4.8125q0 1.15625 0.796875 1.796875q0.8125 0.640625 2.65625 0.640625q1.84375 0 2.640625 -0.640625q0.8125 -0.640625 0.8125 -1.859375q0 -1.234375 -0.265625 -1.953125q-0.265625 -0.734375 -1.140625 -1.609375l-7.75 -7.5625q-1.5 -1.515625 -2.078125 -2.96875q-0.5625 -1.46875 -0.5625 -3.609375q0 -3.359375 2.109375 -5.21875q2.109375 -1.859375 6.15625 -1.859375q7.984371 0 7.984371 7.078125l0 4.640625l-4.890621 0l0 -4.828125q0 -1.15625 -0.75 -1.796875q-0.75 -0.640625 -2.484375 -0.640625q-1.734375 0 -2.484375 0.640625q-0.75 0.640625 -0.75 1.890625q0 1.25 0.25 1.953125q0.25 0.703125 1.140625 1.53125l7.906246 7.59375q1.40625 1.546875 1.953125 3.015625q0.546875 1.453125 0.546875 3.59375z" fill-rule="nonzero"/></g></svg>