<svg version="1.1" viewBox="0.0 0.0 75.59055118110236 75.59055118110236" fill="none" stroke="none" stroke-linecap="square" stroke-miterlimit="10" xmlns:xlink="http://www.w3.org/1999/xlink" xmlns="http://www.w3.org/2000/svg"><clipPath id="p.0"><path d="m0 0l75.59055 0l0 75.59055l-75.59055 0l0 -75.59055z" clip-rule="nonzero"/></clipPath><g clip-path="url(#p.0)"><path fill="#000000" fill-opacity="0.0" d="m0 0l75.59055 0l0 75.59055l-75.59055 0z" fill-rule="evenodd"/><path fill="#00aa66" d="m9.228347 37.795277l0 0c0 -15.777081 12.789849 -28.566929 28.566929 -28.566929l0 0c7.57642 0 14.842529 3.0097208 20.199867 8.367059c5.357338 5.35734 8.367062 12.623449 8.367062 20.199871l0 0c0 15.777077 -12.789852 28.566929 -28.566929 28.566929l0 0c-15.777081 0 -28.566929 -12.789852 -28.566929 -28.566929z" fill-rule="evenodd"/><path stroke="#334455" stroke-width="4.0" stroke-linejoin="round" stroke-linecap="butt" d="m9.228347 37.795277l0 0c0 -15.777081 12.789849 -28.566929 28.566929 -28.566929l0 0c7.57642 0 14.842529 3.0097208 20.199867 8.367059c5.357338 5.35734 8.367062 12.623449 8.367062 20.199871l0 0c0 15.777077 -12.789852 28.566929 -28.566929 28.566929l0 0c-15.777081 0 -28.566929 -12.789852 -28.566929 -28.566929z" fill-rule="evenodd"/><path fill="#00aa66" d="m11.145647 36.57872l0 0c0 -14.715998 11.929672 -26.645672 26.64567 -26.645672l0 0c7.0668716 0 13.844299 2.8073034 18.841331 7.8043356c4.997036 4.997032 7.8043404 11.774462 7.8043404 18.841335l0 0c0 14.715996 -11.929676 26.645668 -26.645672 26.645668l0 0c-14.715998 0 -26.64567 -11.929672 -26.64567 -26.645668z" fill-rule="evenodd"/><path fill="#000000" fill-opacity="0.0" d="m11.144357 11.149607l53.291336 0l0 53.291344l-53.291336 0z" fill-rule="evenodd"/><path fill="#ffffff" d="m47.03717 47.12902q0 7.0625 -8.343746 7.0625q-8.34375 0 -8.34375 -7.0625l0 -4.640625l4.890625 0l0 4.8125q0 1.15625 0.796875 1.796875q0.8125 0.640625 2.65625 0.640625q1.84375 0 2.640625 -0.640625q0.8125 -0.640625 0.8125 -1.859375q0 -1.234375 -0.265625 -1.953125q-0.265625 -0.734375 -1.140625 -1.609375l-7.75 -7.5625q-1.5 -1.515625 -2.078125 -2.96875q-0.5625 -1.4687481 -0.5625 -3.609373q0 -3.359375 2.109375 -5.21875q2.109375 -1.859375 6.15625 -1.859375q7.984371 0 7.984371 7.078125l0 4.640623l-4.890621 0l0 -4.828123q0 -1.15625 -0.75 -1.796875q-0.75 -0.640625 -2.484375 -0.640625q-1.734375 0 -2.484375 0.640625q-0.75 0.640625 -0.75 1.890625q0 1.25 0.25 1.953125q0.25 0.7031231 1.140625 1.5312481l7.906246 7.59375q1.40625 1.546875 1.953125 3.015625q0.546875 1.453125 0.546875 3.59375z" fill-rule="nonzero"/></g></svg>