<svg version="1.1" viewBox="0.0 0.0 75.59055118110236 75.59055118110236" fill="none" stroke="none" stroke-linecap="square" stroke-miterlimit="10" xmlns:xlink="http://www.w3.org/1999/xlink" xmlns="http://www.w3.org/2000/svg"><clipPath id="p.0"><path d="m0 0l75.59055 0l0 75.59055l-75.59055 0l0 -75.59055z" clip-rule="nonzero"/></clipPath><g clip-path="url(#p.0)"><path fill="#000000" fill-opacity="0.0" d="m0 0l75.59055 0l0 75.59055l-75.59055 0z" fill-rule="evenodd"/><path fill="#ee8800" d="m68.33064 45.003773l-30.535366 23.326939l-30.53537 -23.326939l11.663473 -37.743774l37.74379 0z" fill-rule="evenodd"/><path stroke="#334455" stroke-width="4.0" stroke-linejoin="round" stroke-linecap="butt" d="m68.33064 45.003773l-30.535366 23.326939l-30.53537 -23.326939l11.663473 -37.743774l37.74379 0z" fill-rule="evenodd"/><path fill="#000000" fill-opacity="0.0" d="m7.4330707 12.272965l60.724407 0l0 44.755905l-60.724407 0z" fill-rule="evenodd"/><path fill="#ffffff" d="m47.90575 44.730915q0 7.71875 -9.109375 7.71875q-9.109375 0 -9.109375 -7.71875l0 -5.078125l5.359375 0l0 5.265625q0 1.25 0.875 1.953125q0.875 0.703125 2.875 0.703125q2.0 0 2.875 -0.703125q0.875 -0.703125 0.875 -2.03125q0 -1.328125 -0.296875 -2.125q-0.28125 -0.796875 -1.234375 -1.734375l-8.4375 -8.25q-1.65625 -1.6406231 -2.28125 -3.249998q-0.609375 -1.609375 -0.609375 -3.953125q0 -3.671875 2.296875 -5.6875q2.3125 -2.03125 6.71875 -2.03125q8.71875 0 8.71875 7.71875l0 5.078125l-5.359375 0l0 -5.265625q0 -1.265625 -0.8125 -1.953125q-0.8125 -0.703125 -2.703125 -0.703125q-1.875 0 -2.6875 0.703125q-0.8125 0.6875 -0.8125 2.046875q0 1.359375 0.265625 2.125q0.265625 0.765625 1.25 1.65625l8.609375 8.281248q1.5625 1.71875 2.140625 3.3125q0.59375 1.59375 0.59375 3.921875z" fill-rule="nonzero"/></g></svg>