<svg version="1.1" viewBox="0.0 0.0 75.59055118110236 75.59055118110236" fill="none" stroke="none" stroke-linecap="square" stroke-miterlimit="10" xmlns:xlink="http://www.w3.org/1999/xlink" xmlns="http://www.w3.org/2000/svg"><clipPath id="p.0"><path d="m0 0l75.59055 0l0 75.59055l-75.59055 0l0 -75.59055z" clip-rule="nonzero"/></clipPath><g clip-path="url(#p.0)"><path fill="#000000" fill-opacity="0.0" d="m0 0l75.59055 0l0 75.59055l-75.59055 0z" fill-rule="evenodd"/><path fill="#ee8800" d="m69.74796 45.33836l-31.952686 24.409672l-31.95269 -24.409672l12.204841 -39.495678l39.495693 0z" fill-rule="evenodd"/><path stroke="#334455" stroke-width="4.0" stroke-linejoin="round" stroke-linecap="butt" d="m69.74796 45.33836l-31.952686 24.409672l-31.95269 -24.409672l12.204841 -39.495678l39.495693 0z" fill-rule="evenodd"/><path fill="#ffffff" d="m21.327982 23.106785l0 0c0 -3.455759 2.814045 -6.257204 6.285345 -6.257204l0 0c1.6669769 0 3.2656784 0.6592388 4.4444084 1.8326931c1.17873 1.1734524 1.8409348 2.7649975 1.8409348 4.424511l0 0c0 3.455759 -2.814043 6.257204 -6.285343 6.257204l0 0c-3.4713001 0 -6.285345 -2.801445 -6.285345 -6.257204z" fill-rule="evenodd"/><path stroke="#334455" stroke-width="3.0" stroke-linejoin="round" stroke-linecap="butt" d="m21.327982 23.106785l0 0c0 -3.455759 2.814045 -6.257204 6.285345 -6.257204l0 0c1.6669769 0 3.2656784 0.6592388 4.4444084 1.8326931c1.17873 1.1734524 1.8409348 2.7649975 1.8409348 4.424511l0 0c0 3.455759 -2.814043 6.257204 -6.285343 6.257204l0 0c-3.4713001 0 -6.285345 -2.801445 -6.285345 -6.257204z" fill-rule="evenodd"/><path fill="#ffffff" d="m25.207891 29.937786l4.810869 0l0 0c1.193367 0 2.3378563 0.47406387 3.181694 1.3178997c0.8438339 0.84383965 1.3178978 1.9883251 1.3178978 3.1816921l0 13.697834c0 6.1035156E-5 -4.9591064E-5 1.1444092E-4 -1.1444092E-4 1.1444092E-4l-13.809938 -1.1444092E-4l0 0c-6.2942505E-5 0 -1.1444092E-4 -5.340576E-5 -1.1444092E-4 -1.18255615E-4l1.1444092E-4 -13.697716l0 0c0 -2.485056 2.014536 -4.499592 4.499592 -4.499592z" fill-rule="evenodd"/><path stroke="#334455" stroke-width="3.0" stroke-linejoin="round" stroke-linecap="butt" d="m25.207891 29.937786l4.810869 0l0 0c1.193367 0 2.3378563 0.47406387 3.181694 1.3178997c0.8438339 0.84383965 1.3178978 1.9883251 1.3178978 3.1816921l0 13.697834c0 6.1035156E-5 -4.9591064E-5 1.1444092E-4 -1.1444092E-4 1.1444092E-4l-13.809938 -1.1444092E-4l0 0c-6.2942505E-5 0 -1.1444092E-4 -5.340576E-5 -1.1444092E-4 -1.18255615E-4l1.1444092E-4 -13.697716l0 0c0 -2.485056 2.014536 -4.499592 4.499592 -4.499592z" fill-rule="evenodd"/><path fill="#ffffff" d="m38.464146 38.126335l0 0c0 -2.7773285 2.254158 -5.028797 5.0348015 -5.028797l0 0c1.3353119 0 2.6159325 0.5298157 3.5601425 1.4729004c0.94420624 0.9430809 1.474659 2.2221756 1.474659 3.5558968l0 0c0 2.7773323 -2.254158 5.028801 -5.0348015 5.028801l0 0c-2.7806435 0 -5.0348015 -2.2514687 -5.0348015 -5.028801z" fill-rule="evenodd"/><path stroke="#334455" stroke-width="3.0" stroke-linejoin="round" stroke-linecap="butt" d="m38.464146 38.126335l0 0c0 -2.7773285 2.254158 -5.028797 5.0348015 -5.028797l0 0c1.3353119 0 2.6159325 0.5298157 3.5601425 1.4729004c0.94420624 0.9430809 1.474659 2.2221756 1.474659 3.5558968l0 0c0 2.7773323 -2.254158 5.028801 -5.0348015 5.028801l0 0c-2.7806435 0 -5.0348015 -2.2514687 -5.0348015 -5.028801z" fill-rule="evenodd"/><path fill="#ffffff" d="m48.498577 38.126133l0 0c0 -2.7773285 2.254158 -5.028797 5.0348015 -5.028797l0 0c1.3353119 0 2.6159325 0.5298157 3.5601425 1.4729004c0.94420624 0.9430847 1.474659 2.2221794 1.474659 3.5558968l0 0c0 2.7773323 -2.254158 5.028801 -5.0348015 5.028801l0 0c-2.7806435 0 -5.0348015 -2.2514687 -5.0348015 -5.028801z" fill-rule="evenodd"/><path stroke="#334455" stroke-width="3.0" stroke-linejoin="round" stroke-linecap="butt" d="m48.498577 38.126133l0 0c0 -2.7773285 2.254158 -5.028797 5.0348015 -5.028797l0 0c1.3353119 0 2.6159325 0.5298157 3.5601425 1.4729004c0.94420624 0.9430847 1.474659 2.2221794 1.474659 3.5558968l0 0c0 2.7773323 -2.254158 5.028801 -5.0348015 5.028801l0 0c-2.7806435 0 -5.0348015 -2.2514687 -5.0348015 -5.028801z" fill-rule="evenodd"/><path fill="#ffffff" d="m43.162827 29.285664l0 0c0 -2.7773304 2.2541542 -5.028801 5.0347977 -5.028801l0 0c1.3353119 0 2.6159325 0.5298176 3.5601425 1.4729023c0.94420624 0.9430828 1.474659 2.2221775 1.474659 3.5558987l0 0c0 2.7773285 -2.254158 5.028801 -5.0348015 5.028801l0 0c-2.7806435 0 -5.0347977 -2.2514725 -5.0347977 -5.028801z" fill-rule="evenodd"/><path stroke="#334455" stroke-width="3.0" stroke-linejoin="round" stroke-linecap="butt" d="m43.162827 29.285664l0 0c0 -2.7773304 2.2541542 -5.028801 5.0347977 -5.028801l0 0c1.3353119 0 2.6159325 0.5298176 3.5601425 1.4729023c0.94420624 0.9430828 1.474659 2.2221775 1.474659 3.5558987l0 0c0 2.7773285 -2.254158 5.028801 -5.0348015 5.028801l0 0c-2.7806435 0 -5.0347977 -2.2514725 -5.0347977 -5.028801z" fill-rule="evenodd"/></g></svg>