<svg version="1.1" viewBox="0.0 0.0 75.59055118110236 75.59055118110236" fill="none" stroke="none" stroke-linecap="square" stroke-miterlimit="10" xmlns:xlink="http://www.w3.org/1999/xlink" xmlns="http://www.w3.org/2000/svg"><clipPath id="p.0"><path d="m0 0l75.59055 0l0 75.59055l-75.59055 0l0 -75.59055z" clip-rule="nonzero"/></clipPath><g clip-path="url(#p.0)"><path fill="#000000" fill-opacity="0.0" d="m0 0l75.59055 0l0 75.59055l-75.59055 0z" fill-rule="evenodd"/><path fill="#0077ff" d="m69.74796 45.33836l-31.952686 24.409672l-31.95269 -24.409672l12.204841 -39.495678l39.495693 0z" fill-rule="evenodd"/><path stroke="#334455" stroke-width="4.0" stroke-linejoin="round" stroke-linecap="butt" d="m69.74796 45.33836l-31.952686 24.409672l-31.95269 -24.409672l12.204841 -39.495678l39.495693 0z" fill-rule="evenodd"/><path fill="#ffffff" d="m22.805775 34.69918l0 0c0 -8.32341 6.7474556 -15.070868 15.070866 -15.070868l0 0c3.9970436 0 7.8303757 1.58782 10.656712 4.414156c2.826336 2.826334 4.414154 6.659668 4.414154 10.656712l0 0c0 8.32341 -6.7474556 15.070866 -15.070866 15.070866l0 0c-8.32341 0 -15.070866 -6.7474556 -15.070866 -15.070866z" fill-rule="evenodd"/><path stroke="#334455" stroke-width="4.0" stroke-linejoin="round" stroke-linecap="butt" d="m22.805775 34.69918l0 0c0 -8.32341 6.7474556 -15.070868 15.070866 -15.070868l0 0c3.9970436 0 7.8303757 1.58782 10.656712 4.414156c2.826336 2.826334 4.414154 6.659668 4.414154 10.656712l0 0c0 8.32341 -6.7474556 15.070866 -15.070866 15.070866l0 0c-8.32341 0 -15.070866 -6.7474556 -15.070866 -15.070866z" fill-rule="evenodd"/><path fill="#334455" d="m42.5853 25.565321l-9.41732 -5.448818l9.41732 -5.448819z" fill-rule="evenodd"/><path fill="#334455" d="m33.16798 44.14275l9.41732 5.448818l-9.41732 5.448818z" fill-rule="evenodd"/><path fill="#334455" d="m28.572178 29.990519l-5.448818 9.417322l-5.448818 -9.417322z" fill-rule="evenodd"/><path fill="#334455" d="m47.015747 39.40784l5.448818 -9.417322l5.448822 9.417322z" fill-rule="evenodd"/></g></svg>